SourceSerif-Italic_0.ufo
<glyph name="exclam" format="2">
	<unicode hex="0021"/>
	<advance width="290"/>
	<outline>
		<contour>
			<point x="130" y="160" type="line"/>
			<point x="143" y="160" type="line"/>
			<point x="239" y="556"/>
			<point x="263" y="647"/>
			<point x="263" y="675" type="curve" smooth="yes"/>
			<point x="263" y="683"/>
			<point x="258" y="689"/>
			<point x="247" y="689" type="curve" smooth="yes"/>
			<point x="236" y="689"/>
			<point x="227" y="683"/>
			<point x="224" y="666" type="curve" smooth="yes"/>
			<point x="213" y="607"/>
			<point x="198" y="536"/>
			<point x="176" y="414" type="curve" smooth="yes"/>
		</contour>
		<contour>
			<point x="77" y="22" type="curve" smooth="yes"/>
			<point x="77" y="9"/>
			<point x="87" y="-5"/>
			<point x="105" y="-5" type="curve" smooth="yes"/>
			<point x="123" y="-5"/>
			<point x="138" y="8"/>
			<point x="138" y="28" type="curve" smooth="yes"/>
			<point x="138" y="42"/>
			<point x="128" y="55"/>
			<point x="111" y="55" type="curve" smooth="yes"/>
			<point x="92" y="55"/>
			<point x="77" y="41"/>
		</contour>
	</outline>
</glyph>
<glyph name="numbersign" format="2">
	<unicode hex="0023"/>
	<advance width="560"/>
	<outline>
		<contour>
			<point x="95" y="0" type="line"/>
			<point x="117" y="0" type="line"/>
			<point x="289" y="654" type="line"/>
			<point x="267" y="654" type="line"/>
		</contour>
		<contour>
			<point x="53" y="235" type="line"/>
			<point x="48" y="208" type="line"/>
			<point x="509" y="208" type="line"/>
			<point x="514" y="235" type="line"/>
		</contour>
		<contour>
			<point x="570" y="444" type="line"/>
			<point x="575" y="470" type="line"/>
			<point x="114" y="470" type="line"/>
			<point x="109" y="444" type="line"/>
		</contour>
		<contour>
			<point x="326" y="0" type="line"/>
			<point x="348" y="0" type="line"/>
			<point x="520" y="654" type="line"/>
			<point x="498" y="654" type="line"/>
		</contour>
	</outline>
</glyph>
<glyph name="dollar" format="2">
	<unicode hex="0024"/>
	<advance width="510"/>
	<outline>
		<contour>
			<point x="235" y="-13" type="curve" smooth="yes"/>
			<point x="348" y="-13"/>
			<point x="441" y="38"/>
			<point x="441" y="152" type="curve" smooth="yes"/>
			<point x="441" y="213"/>
			<point x="421" y="268"/>
			<point x="329" y="324" type="curve" smooth="yes"/>
			<point x="283" y="352" type="line" smooth="yes"/>
			<point x="209" y="397"/>
			<point x="177" y="434"/>
			<point x="177" y="507" type="curve" smooth="yes"/>
			<point x="177" y="583"/>
			<point x="241" y="647"/>
			<point x="334" y="647" type="curve" smooth="yes"/>
			<point x="402" y="647"/>
			<point x="440" y="629"/>
			<point x="478" y="571" type="curve" smooth="yes"/>
			<point x="447" y="624" type="line"/>
			<point x="457" y="543" type="line" smooth="yes"/>
			<point x="460" y="523"/>
			<point x="469" y="512"/>
			<point x="483" y="512" type="curve" smooth="yes"/>
			<point x="495" y="512"/>
			<point x="500" y="518"/>
			<point x="503" y="527" type="curve"/>
			<point x="493" y="618"/>
			<point x="433" y="667"/>
			<point x="337" y="667" type="curve" smooth="yes"/>
			<point x="247" y="667"/>
			<point x="151" y="610"/>
			<point x="151" y="501" type="curve" smooth="yes"/>
			<point x="151" y="434"/>
			<point x="183" y="381"/>
			<point x="265" y="331" type="curve" smooth="yes"/>
			<point x="311" y="303" type="line" smooth="yes"/>
			<point x="395" y="252"/>
			<point x="415" y="215"/>
			<point x="415" y="152" type="curve" smooth="yes"/>
			<point x="415" y="56"/>
			<point x="335" y="6"/>
			<point x="239" y="6" type="curve" smooth="yes"/>
			<point x="159" y="6"/>
			<point x="115" y="33"/>
			<point x="80" y="79" type="curve"/>
			<point x="107" y="35" type="line"/>
			<point x="99" y="126" type="line" smooth="yes"/>
			<point x="97" y="143"/>
			<point x="85" y="146"/>
			<point x="76" y="146" type="curve" smooth="yes"/>
			<point x="64" y="146"/>
			<point x="57" y="139"/>
			<point x="54" y="130" type="curve" smooth="yes"/>
			<point x="61" y="49"/>
			<point x="114" y="-13"/>
		</contour>
		<contour>
			<point x="185" y="-115" type="line"/>
			<point x="207" y="-115" type="line"/>
			<point x="301" y="329" type="line"/>
			<point x="279" y="329" type="line"/>
		</contour>
		<contour>
			<point x="280" y="329" type="line"/>
			<point x="302" y="329" type="line"/>
			<point x="393" y="758" type="line"/>
			<point x="371" y="758" type="line"/>
		</contour>
	</outline>
</glyph>
<glyph name="ampersand" format="2">
	<unicode hex="0026"/>
	<advance width="668"/>
	<outline>
		<contour>
			<point x="297" y="-13" type="curve" smooth="yes"/>
			<point x="430" y="-13"/>
			<point x="523" y="57"/>
			<point x="523" y="178" type="curve" smooth="yes"/>
			<point x="523" y="239"/>
			<point x="490" y="288"/>
			<point x="432" y="304" type="curve"/>
			<point x="432" y="296" type="line"/>
			<point x="576" y="294"/>
			<point x="661" y="351"/>
			<point x="703" y="461" type="curve"/>
			<point x="677" y="470" type="line"/>
			<point x="635" y="363"/>
			<point x="570" y="313"/>
			<point x="398" y="313" type="curve"/>
			<point x="394" y="292" type="line"/>
			<point x="450" y="280"/>
			<point x="502" y="242"/>
			<point x="502" y="175" type="curve" smooth="yes"/>
			<point x="502" y="75"/>
			<point x="424" y="10"/>
			<point x="298" y="10" type="curve" smooth="yes"/>
			<point x="163" y="10"/>
			<point x="88" y="96"/>
			<point x="88" y="199" type="curve" smooth="yes"/>
			<point x="88" y="297"/>
			<point x="150" y="396"/>
			<point x="276" y="407" type="curve"/>
			<point x="248" y="435"/>
			<point x="228" y="472"/>
			<point x="228" y="521" type="curve" smooth="yes"/>
			<point x="228" y="600"/>
			<point x="283" y="672"/>
			<point x="396" y="672" type="curve" smooth="yes"/>
			<point x="422" y="672"/>
			<point x="452" y="668"/>
			<point x="472" y="657" type="curve"/>
			<point x="441" y="678" type="line"/>
			<point x="470" y="625" type="line" smooth="yes"/>
			<point x="479" y="609"/>
			<point x="487" y="605"/>
			<point x="497" y="605" type="curve" smooth="yes"/>
			<point x="507" y="605"/>
			<point x="513" y="610"/>
			<point x="514" y="621" type="curve"/>
			<point x="498" y="664"/>
			<point x="465" y="690"/>
			<point x="396" y="690" type="curve" smooth="yes"/>
			<point x="265" y="690"/>
			<point x="202" y="603"/>
			<point x="202" y="519" type="curve" smooth="yes"/>
			<point x="202" y="436"/>
			<point x="255" y="368"/>
			<point x="315" y="368" type="curve" smooth="yes"/>
			<point x="335" y="368"/>
			<point x="343" y="380"/>
			<point x="343" y="392" type="curve" smooth="yes"/>
			<point x="343" y="407"/>
			<point x="312" y="421"/>
			<point x="280" y="421" type="curve" smooth="yes"/>
			<point x="159" y="421"/>
			<point x="60" y="324"/>
			<point x="60" y="199" type="curve" smooth="yes"/>
			<point x="60" y="82"/>
			<point x="136" y="-13"/>
		</contour>
	</outline>
</glyph>
<glyph name="quotesingle" format="2">
	<unicode hex="0027"/>
	<advance width="194"/>
	<outline>
		<contour>
			<point x="204" y="747" type="curve" smooth="yes"/>
			<point x="192" y="747"/>
			<point x="182" y="739"/>
			<point x="178" y="720" type="curve" smooth="yes"/>
			<point x="172" y="688"/>
			<point x="168" y="649"/>
			<point x="160" y="586" type="curve" smooth="yes"/>
			<point x="144" y="470" type="line"/>
			<point x="160" y="470" type="line"/>
			<point x="204" y="656"/>
			<point x="219" y="712"/>
			<point x="219" y="725" type="curve" smooth="yes"/>
			<point x="219" y="737"/>
			<point x="214" y="747"/>
		</contour>
	</outline>
</glyph>
<glyph name="parenleft" format="2">
	<unicode hex="0028"/>
	<advance width="333"/>
	<outline>
		<contour>
			<point x="213" y="-206" type="curve"/>
			<point x="226" y="-195" type="line"/>
			<point x="139" y="-66"/>
			<point x="116" y="45"/>
			<point x="116" y="169" type="curve" smooth="yes"/>
			<point x="116" y="372"/>
			<point x="183" y="545"/>
			<point x="417" y="742" type="curve"/>
			<point x="406" y="756" type="line"/>
			<point x="162" y="566"/>
			<point x="88" y="367"/>
			<point x="88" y="168" type="curve" smooth="yes"/>
			<point x="88" y="38"/>
			<point x="119" y="-92"/>
		</contour>
	</outline>
</glyph>
<glyph name="asterisk" format="2">
	<unicode hex="002A"/>
	<advance width="468"/>
	<outline>
		<contour>
			<point x="260" y="758"/>
			<point x="256" y="749"/>
			<point x="256" y="736" type="curve" smooth="yes"/>
			<point x="256" y="714"/>
			<point x="269" y="671"/>
			<point x="303" y="542" type="curve"/>
			<point x="312" y="543" type="line"/>
			<point x="302" y="678"/>
			<point x="295" y="718"/>
			<point x="292" y="737" type="curve" smooth="yes"/>
			<point x="289" y="753"/>
			<point x="283" y="758"/>
			<point x="274" y="758" type="curve" smooth="yes"/>
		</contour>
		<contour>
			<point x="105" y="595"/>
			<point x="99" y="587"/>
			<point x="99" y="578" type="curve" smooth="yes"/>
			<point x="99" y="557"/>
			<point x="123" y="550"/>
			<point x="313" y="544" type="curve"/>
			<point x="315" y="553" type="line"/>
			<point x="173" y="587"/>
			<point x="132" y="595"/>
			<point x="120" y="595" type="curve" smooth="yes"/>
		</contour>
		<contour>
			<point x="225" y="424"/>
			<point x="206" y="394"/>
			<point x="206" y="376" type="curve" smooth="yes"/>
			<point x="206" y="365"/>
			<point x="214" y="360"/>
			<point x="222" y="360" type="curve" smooth="yes"/>
			<point x="245" y="360"/>
			<point x="260" y="407"/>
			<point x="315" y="557" type="curve"/>
			<point x="307" y="560" type="line"/>
		</contour>
		<contour>
			<point x="299" y="554" type="line"/>
			<point x="405" y="428"/>
			<point x="432" y="400"/>
			<point x="448" y="400" type="curve" smooth="yes"/>
			<point x="458" y="400"/>
			<point x="463" y="407"/>
			<point x="463" y="416" type="curve" smooth="yes"/>
			<point x="463" y="432"/>
			<point x="428" y="461"/>
			<point x="303" y="560" type="curve"/>
		</contour>
		<contour>
			<point x="494" y="654"/>
			<point x="488" y="658"/>
			<point x="478" y="658" type="curve" smooth="yes"/>
			<point x="458" y="658"/>
			<point x="423" y="632"/>
			<point x="297" y="551" type="curve"/>
			<point x="302" y="543" type="line"/>
			<point x="472" y="615"/>
			<point x="494" y="625"/>
			<point x="494" y="644" type="curve" smooth="yes"/>
		</contour>
	</outline>
</glyph>
<glyph name="plus" format="2">
	<unicode hex="002B"/>
	<advance width="530"/>
	<outline>
		<contour>
			<point x="284" y="103" type="line"/>
			<point x="308" y="103" type="line"/>
			<point x="308" y="564" type="line"/>
			<point x="284" y="564" type="line"/>
		</contour>
		<contour>
			<point x="516" y="325" type="line"/>
			<point x="516" y="347" type="line"/>
			<point x="76" y="347" type="line"/>
			<point x="76" y="325" type="line"/>
		</contour>
	</outline>
</glyph>
<glyph name="comma" format="2">
	<unicode hex="002C"/>
	<advance width="290"/>
	<outline>
		<contour>
			<point x="94" y="-131"/>
			<point x="144" y="-58"/>
			<point x="144" y="28" type="curve" smooth="yes"/>
			<point x="144" y="35"/>
			<point x="142" y="42"/>
			<point x="141" y="46" type="curve"/>
			<point x="136" y="51"/>
			<point x="128" y="55"/>
			<point x="116" y="55" type="curve" smooth="yes"/>
			<point x="102" y="55"/>
			<point x="87" y="44"/>
			<point x="87" y="28" type="curve" smooth="yes"/>
			<point x="87" y="16"/>
			<point x="91" y="9"/>
			<point x="104" y="-3" type="curve" smooth="yes"/>
			<point x="123" y="-20" type="line"/>
			<point x="123" y="-10" type="line"/>
			<point x="108" y="-76"/>
			<point x="72" y="-115"/>
			<point x="9" y="-136" type="curve"/>
			<point x="14" y="-153" type="line"/>
		</contour>
	</outline>
</glyph>
<glyph name="hyphen" format="2">
	<unicode hex="002D"/>
	<unicode hex="00AD"/>
	<unicode hex="2010"/>
	<advance width="310"/>
	<outline>
		<contour>
			<point x="54" y="226" type="line"/>
			<point x="284" y="226" type="line"/>
			<point x="284" y="252" type="line"/>
			<point x="54" y="252" type="line"/>
		</contour>
	</outline>
</glyph>
<glyph name="period" format="2">
	<unicode hex="002E"/>
	<advance width="290"/>
	<outline>
		<contour>
			<point x="114" y="-5" type="curve" smooth="yes"/>
			<point x="132" y="-5"/>
			<point x="147" y="8"/>
			<point x="147" y="28" type="curve" smooth="yes"/>
			<point x="147" y="42"/>
			<point x="137" y="55"/>
			<point x="120" y="55" type="curve" smooth="yes"/>
			<point x="101" y="55"/>
			<point x="86" y="41"/>
			<point x="86" y="22" type="curve" smooth="yes"/>
			<point x="86" y="9"/>
			<point x="96" y="-5"/>
		</contour>
	</outline>
</glyph>
<glyph name="slash" format="2">
	<unicode hex="002F"/>
	<advance width="325"/>
	<outline>
		<contour>
			<point x="-69" y="-160" type="line"/>
			<point x="-42" y="-160" type="line"/>
			<point x="403" y="710" type="line"/>
			<point x="378" y="710" type="line"/>
		</contour>
	</outline>
</glyph>
<glyph name="one" format="2">
	<unicode hex="0031"/>
	<advance width="510"/>
	<outline>
		<contour>
			<point x="200" y="618" type="line"/>
			<point x="196" y="598" type="line"/>
			<point x="362" y="635" type="line"/>
			<point x="354" y="648" type="line"/>
			<point x="222" y="0" type="line"/>
			<point x="249" y="0" type="line"/>
			<point x="262" y="70"/>
			<point x="277" y="142"/>
			<point x="291" y="213" type="curve" smooth="yes"/>
			<point x="351" y="509" type="line"/>
			<point x="385" y="655" type="line"/>
			<point x="374" y="667" type="line"/>
		</contour>
		<contour>
			<point x="248" y="26" type="line"/>
			<point x="232" y="26" type="line"/>
			<point x="75" y="20" type="line"/>
			<point x="70" y="0" type="line"/>
			<point x="404" y="0" type="line"/>
			<point x="408" y="20" type="line"/>
		</contour>
	</outline>
</glyph>
<glyph name="question" format="2">
	<unicode hex="003F"/>
	<advance width="383"/>
	<outline>
		<contour>
			<point x="95" y="161" type="curve"/>
			<point x="112" y="160" type="line"/>
			<point x="120" y="263"/>
			<point x="129" y="278"/>
			<point x="161" y="309" type="curve" smooth="yes"/>
			<point x="182" y="330"/>
			<point x="214" y="354"/>
			<point x="271" y="388" type="curve" smooth="yes"/>
			<point x="392" y="460"/>
			<point x="425" y="499"/>
			<point x="425" y="569" type="curve" smooth="yes"/>
			<point x="425" y="646"/>
			<point x="368" y="690"/>
			<point x="282" y="690" type="curve" smooth="yes"/>
			<point x="206" y="690"/>
			<point x="156" y="658"/>
			<point x="147" y="622" type="curve"/>
			<point x="147" y="610"/>
			<point x="156" y="602"/>
			<point x="168" y="602" type="curve" smooth="yes"/>
			<point x="179" y="602"/>
			<point x="185" y="607"/>
			<point x="192" y="619" type="curve" smooth="yes"/>
			<point x="224" y="673" type="line"/>
			<point x="192" y="652" type="line"/>
			<point x="215" y="666"/>
			<point x="248" y="670"/>
			<point x="278" y="670" type="curve" smooth="yes"/>
			<point x="356" y="670"/>
			<point x="398" y="630"/>
			<point x="398" y="570" type="curve" smooth="yes"/>
			<point x="398" y="514"/>
			<point x="370" y="480"/>
			<point x="259" y="410" type="curve" smooth="yes"/>
			<point x="199" y="372"/>
			<point x="162" y="345"/>
			<point x="146" y="329" type="curve" smooth="yes"/>
			<point x="114" y="297"/>
			<point x="99" y="271"/>
		</contour>
		<contour>
			<point x="66" y="20" type="curve" smooth="yes"/>
			<point x="66" y="5"/>
			<point x="78" y="-10"/>
			<point x="97" y="-10" type="curve" smooth="yes"/>
			<point x="116" y="-10"/>
			<point x="128" y="5"/>
			<point x="128" y="20" type="curve" smooth="yes"/>
			<point x="128" y="37"/>
			<point x="116" y="50"/>
			<point x="97" y="50" type="curve" smooth="yes"/>
			<point x="78" y="50"/>
			<point x="66" y="37"/>
		</contour>
	</outline>
</glyph>
<glyph name="A" format="2">
	<unicode hex="0041"/>
	<advance width="651"/>
	<outline>
		<contour>
			<point x="-27" y="0" type="line"/>
			<point x="171" y="0" type="line"/>
			<point x="175" y="20" type="line"/>
			<point x="79" y="26" type="line"/>
			<point x="65" y="26" type="line"/>
			<point x="-23" y="20" type="line"/>
		</contour>
		<contour>
			<point x="46" y="0" type="line"/>
			<point x="73" y="0" type="line"/>
			<point x="409" y="660" type="line"/>
			<point x="390" y="650" type="line"/>
			<point x="475" y="0" type="line"/>
			<point x="509" y="0" type="line"/>
			<point x="416" y="677" type="line"/>
			<point x="396" y="677" type="line"/>
		</contour>
		<contour>
			<point x="181" y="247" type="line"/>
			<point x="466" y="247" type="line"/>
			<point x="461" y="267" type="line"/>
			<point x="193" y="267" type="line"/>
		</contour>
		<contour>
			<point x="356" y="0" type="line"/>
			<point x="604" y="0" type="line"/>
			<point x="608" y="20" type="line"/>
			<point x="495" y="26" type="line"/>
			<point x="481" y="26" type="line"/>
			<point x="360" y="20" type="line"/>
		</contour>
	</outline>
	<anchor name="aboveUC" x="403" y="682"/>
	<anchor name="belowLC" x="274" y="-22"/>
	<anchor name="ogonek" x="515" y="0"/>
</glyph>
<glyph name="B" format="2">
	<unicode hex="0042"/>
	<advance width="558"/>
	<outline>
		<contour>
			<point x="12" y="0" type="line"/>
			<point x="130" y="0" type="line"/>
			<point x="135" y="27" type="line"/>
			<point x="128" y="27" type="line"/>
			<point x="16" y="20" type="line"/>
		</contour>
		<contour>
			<point x="116" y="0" type="line"/>
			<point x="150" y="0" type="line"/>
			<point x="166" y="104"/>
			<point x="185" y="209"/>
			<point x="204" y="313" type="curve" smooth="yes"/>
			<point x="272" y="676" type="line"/>
			<point x="239" y="676" type="line"/>
			<point x="222" y="572"/>
			<point x="205" y="468"/>
			<point x="185" y="364" type="curve" smooth="yes"/>
		</contour>
		<contour>
			<point x="126" y="656" type="line"/>
			<point x="246" y="649" type="line"/>
			<point x="253" y="649" type="line"/>
			<point x="258" y="676" type="line"/>
			<point x="130" y="676" type="line"/>
		</contour>
		<contour>
			<point x="130" y="0" type="line"/>
			<point x="261" y="0" type="line" smooth="yes"/>
			<point x="431" y="0"/>
			<point x="519" y="77"/>
			<point x="519" y="209" type="curve" smooth="yes"/>
			<point x="519" y="293"/>
			<point x="455" y="355"/>
			<point x="299" y="357" type="curve"/>
			<point x="308" y="349" type="line"/>
			<point x="475" y="361"/>
			<point x="538" y="440"/>
			<point x="538" y="545" type="curve" smooth="yes"/>
			<point x="538" y="624"/>
			<point x="472" y="676"/>
			<point x="323" y="676" type="curve" smooth="yes"/>
			<point x="258" y="676" type="line"/>
			<point x="254" y="654" type="line"/>
			<point x="308" y="654" type="line" smooth="yes"/>
			<point x="462" y="654"/>
			<point x="510" y="613"/>
			<point x="510" y="536" type="curve" smooth="yes"/>
			<point x="510" y="426"/>
			<point x="434" y="363"/>
			<point x="277" y="363" type="curve" smooth="yes"/>
			<point x="199" y="363" type="line"/>
			<point x="195" y="343" type="line"/>
			<point x="266" y="343" type="line" smooth="yes"/>
			<point x="422" y="343"/>
			<point x="490" y="293"/>
			<point x="490" y="200" type="curve" smooth="yes"/>
			<point x="490" y="82"/>
			<point x="403" y="22"/>
			<point x="266" y="22" type="curve" smooth="yes"/>
			<point x="134" y="22" type="line"/>
		</contour>
	</outline>
	<anchor name="aboveUC" x="360" y="696"/>
	<anchor name="belowLC" x="260" y="-20"/>
</glyph>
<glyph name="C" format="2">
	<unicode hex="0043"/>
	<advance width="601"/>
	<outline>
		<contour>
			<point x="353" y="-13" type="curve" smooth="yes"/>
			<point x="418" y="-13"/>
			<point x="470" y="-2"/>
			<point x="537" y="34" type="curve"/>
			<point x="567" y="179" type="line"/>
			<point x="543" y="179" type="line"/>
			<point x="499" y="34" type="line"/>
			<point x="520" y="55" type="line"/>
			<point x="465" y="22"/>
			<point x="414" y="9"/>
			<point x="355" y="9" type="curve" smooth="yes"/>
			<point x="205" y="9"/>
			<point x="97" y="103"/>
			<point x="97" y="280" type="curve" smooth="yes"/>
			<point x="97" y="507"/>
			<point x="238" y="667"/>
			<point x="433" y="667" type="curve" smooth="yes"/>
			<point x="511" y="667"/>
			<point x="552" y="654"/>
			<point x="602" y="616" type="curve"/>
			<point x="586" y="642" type="line"/>
			<point x="577" y="497" type="line"/>
			<point x="601" y="497" type="line"/>
			<point x="623" y="636" type="line"/>
			<point x="568" y="672"/>
			<point x="515" y="689"/>
			<point x="438" y="689" type="curve" smooth="yes"/>
			<point x="228" y="689"/>
			<point x="65" y="526"/>
			<point x="65" y="279" type="curve" smooth="yes"/>
			<point x="65" y="96"/>
			<point x="178" y="-13"/>
		</contour>
	</outline>
	<anchor name="aboveUC" x="448" y="696"/>
	<anchor name="belowLC" x="339" y="-20"/>
	<anchor name="baseLC" x="344" y="0"/>
</glyph>
<glyph name="D" format="2">
	<unicode hex="0044"/>
	<advance width="668"/>
	<outline>
		<contour>
			<point x="11" y="0" type="line"/>
			<point x="129" y="0" type="line"/>
			<point x="134" y="27" type="line"/>
			<point x="127" y="27" type="line"/>
			<point x="15" y="20" type="line"/>
		</contour>
		<contour>
			<point x="115" y="0" type="line"/>
			<point x="149" y="0" type="line"/>
			<point x="165" y="104"/>
			<point x="184" y="209"/>
			<point x="203" y="313" type="curve" smooth="yes"/>
			<point x="271" y="676" type="line"/>
			<point x="238" y="676" type="line"/>
			<point x="221" y="572"/>
			<point x="204" y="468"/>
			<point x="184" y="364" type="curve" smooth="yes"/>
		</contour>
		<contour>
			<point x="125" y="656" type="line"/>
			<point x="245" y="649" type="line"/>
			<point x="252" y="649" type="line"/>
			<point x="257" y="676" type="line"/>
			<point x="129" y="676" type="line"/>
		</contour>
		<contour>
			<point x="129" y="0" type="line"/>
			<point x="253" y="0" type="line" smooth="yes"/>
			<point x="507" y="0"/>
			<point x="655" y="167"/>
			<point x="655" y="393" type="curve" smooth="yes"/>
			<point x="655" y="574"/>
			<point x="544" y="676"/>
			<point x="340" y="676" type="curve" smooth="yes"/>
			<point x="257" y="676" type="line"/>
			<point x="253" y="654" type="line"/>
			<point x="339" y="654" type="line" smooth="yes"/>
			<point x="527" y="654"/>
			<point x="623" y="562"/>
			<point x="623" y="393" type="curve" smooth="yes"/>
			<point x="623" y="180"/>
			<point x="498" y="22"/>
			<point x="244" y="22" type="curve" smooth="yes"/>
			<point x="133" y="22" type="line"/>
		</contour>
	</outline>
	<anchor name="aboveUC" x="416" y="696"/>
	<anchor name="belowLC" x="282" y="-20"/>
</glyph>
<glyph name="E" format="2">
	<unicode hex="0045"/>
	<advance width="570"/>
	<outline>
		<contour>
			<point x="11" y="0" type="line"/>
			<point x="129" y="0" type="line"/>
			<point x="134" y="27" type="line"/>
			<point x="127" y="27" type="line"/>
			<point x="15" y="20" type="line"/>
		</contour>
		<contour>
			<point x="115" y="0" type="line"/>
			<point x="149" y="0" type="line"/>
			<point x="165" y="104"/>
			<point x="184" y="209"/>
			<point x="203" y="313" type="curve" smooth="yes"/>
			<point x="271" y="676" type="line"/>
			<point x="238" y="676" type="line"/>
			<point x="221" y="572"/>
			<point x="204" y="468"/>
			<point x="184" y="364" type="curve" smooth="yes"/>
		</contour>
		<contour>
			<point x="125" y="656" type="line"/>
			<point x="245" y="649" type="line"/>
			<point x="252" y="649" type="line"/>
			<point x="257" y="676" type="line"/>
			<point x="129" y="676" type="line"/>
		</contour>
		<contour>
			<point x="129" y="0" type="line"/>
			<point x="493" y="0" type="line"/>
			<point x="532" y="153" type="line"/>
			<point x="508" y="153" type="line"/>
			<point x="460" y="0" type="line"/>
			<point x="478" y="22" type="line"/>
			<point x="133" y="22" type="line"/>
		</contour>
		<contour>
			<point x="192" y="331" type="line"/>
			<point x="413" y="331" type="line"/>
			<point x="417" y="353" type="line"/>
			<point x="196" y="353" type="line"/>
		</contour>
		<contour>
			<point x="253" y="654" type="line"/>
			<point x="564" y="654" type="line"/>
			<point x="554" y="676" type="line"/>
			<point x="544" y="523" type="line"/>
			<point x="568" y="523" type="line"/>
			<point x="587" y="676" type="line"/>
			<point x="257" y="676" type="line"/>
		</contour>
		<contour>
			<point x="395" y="234" type="line"/>
			<point x="414" y="234" type="line"/>
			<point x="455" y="450" type="line"/>
			<point x="436" y="450" type="line"/>
			<point x="408" y="352" type="line"/>
			<point x="404" y="332" type="line"/>
		</contour>
	</outline>
	<anchor name="aboveUC" x="406" y="696"/>
	<anchor name="belowLC" x="289" y="-20"/>
	<anchor name="ogonek" x="433" y="0"/>
</glyph>
<glyph name="F" format="2">
	<unicode hex="0046"/>
	<advance width="548"/>
	<outline>
		<contour>
			<point x="11" y="0" type="line"/>
			<point x="263" y="0" type="line"/>
			<point x="267" y="20" type="line"/>
			<point x="141" y="27" type="line"/>
			<point x="127" y="27" type="line"/>
			<point x="15" y="20" type="line"/>
		</contour>
		<contour>
			<point x="115" y="0" type="line"/>
			<point x="149" y="0" type="line"/>
			<point x="165" y="104"/>
			<point x="184" y="209"/>
			<point x="203" y="313" type="curve" smooth="yes"/>
			<point x="271" y="676" type="line"/>
			<point x="238" y="676" type="line"/>
			<point x="221" y="572"/>
			<point x="204" y="468"/>
			<point x="184" y="364" type="curve" smooth="yes"/>
		</contour>
		<contour>
			<point x="125" y="656" type="line"/>
			<point x="245" y="649" type="line"/>
			<point x="252" y="649" type="line"/>
			<point x="257" y="676" type="line"/>
			<point x="129" y="676" type="line"/>
		</contour>
		<contour>
			<point x="192" y="331" type="line"/>
			<point x="413" y="331" type="line"/>
			<point x="417" y="353" type="line"/>
			<point x="196" y="353" type="line"/>
		</contour>
		<contour>
			<point x="253" y="654" type="line"/>
			<point x="576" y="654" type="line"/>
			<point x="566" y="676" type="line"/>
			<point x="556" y="523" type="line"/>
			<point x="580" y="523" type="line"/>
			<point x="599" y="676" type="line"/>
			<point x="257" y="676" type="line"/>
		</contour>
		<contour>
			<point x="395" y="234" type="line"/>
			<point x="414" y="234" type="line"/>
			<point x="455" y="450" type="line"/>
			<point x="436" y="450" type="line"/>
			<point x="408" y="352" type="line"/>
			<point x="404" y="332" type="line"/>
		</contour>
	</outline>
	<anchor name="aboveUC" x="412" y="696"/>
	<anchor name="belowLC" x="138" y="-20"/>
</glyph>
<glyph name="G" format="2">
	<unicode hex="0047"/>
	<advance width="664"/>
	<outline>
		<contour>
			<point x="65" y="278" type="curve" smooth="yes"/>
			<point x="65" y="95"/>
			<point x="185" y="-13"/>
			<point x="362" y="-13" type="curve" smooth="yes"/>
			<point x="437" y="-13"/>
			<point x="485" y="4"/>
			<point x="553" y="40" type="curve"/>
			<point x="605" y="320" type="line"/>
			<point x="572" y="320" type="line"/>
			<point x="560" y="246"/>
			<point x="545" y="171"/>
			<point x="533" y="97" type="curve" smooth="yes"/>
			<point x="524" y="41" type="line"/>
			<point x="540" y="61" type="line"/>
			<point x="479" y="25"/>
			<point x="434" y="9"/>
			<point x="363" y="9" type="curve" smooth="yes"/>
			<point x="210" y="9"/>
			<point x="97" y="106"/>
			<point x="97" y="278" type="curve" smooth="yes"/>
			<point x="97" y="512"/>
			<point x="233" y="667"/>
			<point x="434" y="667" type="curve" smooth="yes"/>
			<point x="520" y="667"/>
			<point x="573" y="650"/>
			<point x="624" y="609" type="curve"/>
			<point x="608" y="636" type="line"/>
			<point x="599" y="491" type="line"/>
			<point x="623" y="491" type="line"/>
			<point x="645" y="630" type="line"/>
			<point x="590" y="668"/>
			<point x="529" y="689"/>
			<point x="435" y="689" type="curve" smooth="yes"/>
			<point x="226" y="689"/>
			<point x="65" y="529"/>
		</contour>
		<contour>
			<point x="449" y="300" type="line"/>
			<point x="578" y="293" type="line"/>
			<point x="592" y="293" type="line"/>
			<point x="679" y="300" type="line"/>
			<point x="683" y="320" type="line"/>
			<point x="453" y="320" type="line"/>
		</contour>
	</outline>
	<anchor name="aboveUC" x="453" y="696"/>
	<anchor name="belowLC" x="348" y="-20"/>
</glyph>
<glyph name="H" format="2">
	<unicode hex="0048"/>
	<advance width="765"/>
	<outline>
		<contour>
			<point x="11" y="0" type="line"/>
			<point x="259" y="0" type="line"/>
			<point x="263" y="20" type="line"/>
			<point x="142" y="27" type="line"/>
			<point x="128" y="27" type="line"/>
			<point x="15" y="20" type="line"/>
		</contour>
		<contour>
			<point x="115" y="0" type="line"/>
			<point x="149" y="0" type="line"/>
			<point x="165" y="104"/>
			<point x="184" y="209"/>
			<point x="203" y="313" type="curve" smooth="yes"/>
			<point x="271" y="676" type="line"/>
			<point x="238" y="676" type="line"/>
			<point x="221" y="572"/>
			<point x="204" y="468"/>
			<point x="184" y="364" type="curve" smooth="yes"/>
		</contour>
		<contour>
			<point x="125" y="656" type="line"/>
			<point x="246" y="649" type="line"/>
			<point x="260" y="649" type="line"/>
			<point x="373" y="656" type="line"/>
			<point x="377" y="676" type="line"/>
			<point x="129" y="676" type="line"/>
		</contour>
		<contour>
			<point x="198" y="348" type="line"/>
			<point x="628" y="348" type="line"/>
			<point x="628" y="370" type="line"/>
			<point x="198" y="370" type="line"/>
		</contour>
		<contour>
			<point x="442" y="0" type="line"/>
			<point x="690" y="0" type="line"/>
			<point x="694" y="20" type="line"/>
			<point x="573" y="27" type="line"/>
			<point x="559" y="27" type="line"/>
			<point x="446" y="20" type="line"/>
		</contour>
		<contour>
			<point x="546" y="0" type="line"/>
			<point x="580" y="0" type="line"/>
			<point x="596" y="104"/>
			<point x="615" y="209"/>
			<point x="634" y="313" type="curve" smooth="yes"/>
			<point x="702" y="676" type="line"/>
			<point x="669" y="676" type="line"/>
			<point x="652" y="572"/>
			<point x="635" y="468"/>
			<point x="615" y="364" type="curve" smooth="yes"/>
		</contour>
		<contour>
			<point x="556" y="656" type="line"/>
			<point x="677" y="649" type="line"/>
			<point x="691" y="649" type="line"/>
			<point x="804" y="656" type="line"/>
			<point x="808" y="676" type="line"/>
			<point x="560" y="676" type="line"/>
		</contour>
	</outline>
	<anchor name="aboveUC" x="474" y="696"/>
	<anchor name="belowLC" x="358" y="-20"/>
	<note>
		skew 10 scale 120
	</note>
</glyph>
<glyph name="I" format="2">
	<unicode hex="0049"/>
	<advance width="334"/>
	<outline>
		<contour>
			<point x="12" y="0" type="line"/>
			<point x="260" y="0" type="line"/>
			<point x="264" y="20" type="line"/>
			<point x="143" y="27" type="line"/>
			<point x="129" y="27" type="line"/>
			<point x="16" y="20" type="line"/>
		</contour>
		<contour>
			<point x="116" y="0" type="line"/>
			<point x="150" y="0" type="line"/>
			<point x="166" y="104"/>
			<point x="185" y="209"/>
			<point x="204" y="313" type="curve" smooth="yes"/>
			<point x="272" y="676" type="line"/>
			<point x="239" y="676" type="line"/>
			<point x="222" y="572"/>
			<point x="205" y="468"/>
			<point x="185" y="364" type="curve" smooth="yes"/>
		</contour>
		<contour>
			<point x="126" y="656" type="line"/>
			<point x="247" y="649" type="line"/>
			<point x="261" y="649" type="line"/>
			<point x="374" y="656" type="line"/>
			<point x="378" y="676" type="line"/>
			<point x="130" y="676" type="line"/>
		</contour>
	</outline>
	<anchor name="aboveUC" x="258" y="696"/>
	<anchor name="belowLC" x="132" y="-20"/>
	<anchor name="ogonek" x="189" y="0"/>
</glyph>
<glyph name="J" format="2">
	<unicode hex="004A"/>
	<advance width="341"/>
	<outline>
		<contour>
			<point x="-89" y="-88" type="curve"/>
			<point x="-82.0324773834" y="-110.8932885973"/>
			<point x="-52.191011236" y="-121"/>
			<point x="-5" y="-121" type="curve" smooth="yes"/>
			<point x="71.1264367816" y="-121"/>
			<point x="143.9616338248" y="-54.1790421509"/>
			<point x="174" y="86" type="curve" smooth="yes"/>
			<point x="187" y="143"/>
			<point x="197" y="183"/>
			<point x="219" y="302" type="curve" smooth="yes"/>
			<point x="289" y="676" type="line"/>
			<point x="257" y="676" type="line"/>
			<point x="233" y="542"/>
			<point x="218" y="448"/>
			<point x="205" y="380" type="curve" smooth="yes"/>
			<point x="188" y="292"/>
			<point x="169" y="206"/>
			<point x="152" y="118" type="curve" smooth="yes"/>
			<point x="126" y="-16"/>
			<point x="83" y="-81"/>
			<point x="4" y="-104" type="curve"/>
			<point x="4" y="-107" type="line"/>
			<point x="27" y="-107" type="line"/>
			<point x="27" y="-104" type="line"/>
			<point x="-21" y="-73"/>
			<point x="-34" y="-67"/>
			<point x="-52" y="-67" type="curve" smooth="yes"/>
			<point x="-70" y="-67"/>
			<point x="-84" y="-76"/>
		</contour>
		<contour>
			<point x="135" y="656" type="line"/>
			<point x="261" y="649" type="line"/>
			<point x="275" y="649" type="line"/>
			<point x="391" y="656" type="line"/>
			<point x="395" y="676" type="line"/>
			<point x="139" y="676" type="line"/>
		</contour>
	</outline>
	<anchor name="aboveUC" x="275" y="696"/>
	<anchor name="belowLC" x="43" y="-141"/>
</glyph>
<glyph name="K" format="2">
	<unicode hex="004B"/>
	<advance width="653"/>
	<outline>
		<contour>
			<point x="12" y="0" type="line"/>
			<point x="260" y="0" type="line"/>
			<point x="264" y="20" type="line"/>
			<point x="143" y="27" type="line"/>
			<point x="129" y="27" type="line"/>
			<point x="16" y="20" type="line"/>
		</contour>
		<contour>
			<point x="116" y="0" type="line"/>
			<point x="150" y="0" type="line"/>
			<point x="166" y="104"/>
			<point x="185" y="209"/>
			<point x="204" y="313" type="curve" smooth="yes"/>
			<point x="272" y="676" type="line"/>
			<point x="239" y="676" type="line"/>
			<point x="222" y="572"/>
			<point x="205" y="468"/>
			<point x="185" y="364" type="curve" smooth="yes"/>
		</contour>
		<contour>
			<point x="126" y="656" type="line"/>
			<point x="247" y="649" type="line"/>
			<point x="261" y="649" type="line"/>
			<point x="374" y="656" type="line"/>
			<point x="378" y="676" type="line"/>
			<point x="130" y="676" type="line"/>
		</contour>
		<contour>
			<point x="175" y="240" type="line"/>
			<point x="653" y="676" type="line"/>
			<point x="622" y="676" type="line"/>
			<point x="191" y="283" type="line"/>
			<point x="182" y="275" type="line"/>
			<point x="177" y="275" type="line"/>
		</contour>
		<contour>
			<point x="518" y="0" type="line"/>
			<point x="549" y="0" type="line"/>
			<point x="332" y="394" type="line"/>
			<point x="307" y="372" type="line"/>
		</contour>
		<contour>
			<point x="399" y="0" type="line"/>
			<point x="627" y="0" type="line"/>
			<point x="631" y="20" type="line"/>
			<point x="530" y="27" type="line"/>
			<point x="516" y="27" type="line"/>
			<point x="403" y="20" type="line"/>
		</contour>
		<contour>
			<point x="478" y="656" type="line"/>
			<point x="603" y="649" type="line"/>
			<point x="617" y="649" type="line"/>
			<point x="706" y="656" type="line"/>
			<point x="710" y="676" type="line"/>
			<point x="482" y="676" type="line"/>
		</contour>
	</outline>
	<anchor name="aboveUC" x="430" y="696"/>
	<anchor name="belowLC" x="329" y="-20"/>
</glyph>
<glyph name="L" format="2">
	<unicode hex="004C"/>
	<advance width="538"/>
	<outline>
		<contour>
			<point x="11" y="0" type="line"/>
			<point x="129" y="0" type="line"/>
			<point x="134" y="27" type="line"/>
			<point x="127" y="27" type="line"/>
			<point x="15" y="20" type="line"/>
		</contour>
		<contour>
			<point x="115" y="0" type="line"/>
			<point x="149" y="0" type="line"/>
			<point x="165" y="104"/>
			<point x="184" y="209"/>
			<point x="203" y="313" type="curve" smooth="yes"/>
			<point x="271" y="677" type="line"/>
			<point x="238" y="677" type="line"/>
			<point x="221" y="573"/>
			<point x="204" y="468"/>
			<point x="184" y="364" type="curve" smooth="yes"/>
		</contour>
		<contour>
			<point x="125" y="657" type="line"/>
			<point x="246" y="650" type="line"/>
			<point x="260" y="650" type="line"/>
			<point x="373" y="657" type="line"/>
			<point x="377" y="677" type="line"/>
			<point x="129" y="677" type="line"/>
		</contour>
		<contour>
			<point x="129" y="0" type="line"/>
			<point x="471" y="0" type="line"/>
			<point x="512" y="163" type="line"/>
			<point x="488" y="163" type="line"/>
			<point x="438" y="0" type="line"/>
			<point x="456" y="22" type="line"/>
			<point x="133" y="22" type="line"/>
		</contour>
	</outline>
	<anchor name="aboveUC" x="252" y="682"/>
	<anchor name="belowLC" x="286" y="-22"/>
</glyph>
<glyph name="M" format="2">
	<unicode hex="004D"/>
	<advance width="906"/>
	<outline>
		<contour>
			<point x="12" y="0" type="line"/>
			<point x="230" y="0" type="line"/>
			<point x="234" y="20" type="line"/>
			<point x="128" y="27" type="line"/>
			<point x="114" y="27" type="line"/>
			<point x="16" y="20" type="line"/>
		</contour>
		<contour>
			<point x="104" y="0" type="line"/>
			<point x="128" y="0" type="line"/>
			<point x="200" y="310" type="line"/>
			<point x="286" y="676" type="line"/>
			<point x="262" y="676" type="line"/>
		</contour>
		<contour>
			<point x="403" y="0" type="line"/>
			<point x="422" y="0" type="line"/>
			<point x="804" y="636" type="line"/>
			<point x="810" y="647" type="line"/>
			<point x="820" y="647" type="line"/>
			<point x="820" y="676" type="line"/>
			<point x="802" y="676" type="line"/>
			<point x="419" y="38" type="line"/>
			<point x="413" y="28" type="line"/>
			<point x="428" y="28" type="line"/>
			<point x="288" y="676" type="line"/>
			<point x="160" y="676" type="line"/>
			<point x="156" y="656" type="line"/>
			<point x="265" y="646" type="line"/>
			<point x="267" y="637" type="line"/>
			<point x="268" y="631" type="line"/>
		</contour>
		<contour>
			<point x="604" y="0" type="line"/>
			<point x="842" y="0" type="line"/>
			<point x="846" y="20" type="line"/>
			<point x="730" y="27" type="line"/>
			<point x="716" y="27" type="line"/>
			<point x="608" y="20" type="line"/>
		</contour>
		<contour>
			<point x="705" y="0" type="line"/>
			<point x="735" y="0" type="line"/>
			<point x="752" y="102"/>
			<point x="761" y="205"/>
			<point x="777" y="310" type="curve" smooth="yes"/>
			<point x="833" y="676" type="line"/>
			<point x="815" y="676" type="line"/>
			<point x="796" y="633" type="line"/>
		</contour>
		<contour>
			<point x="804" y="649" type="line"/>
			<point x="811" y="649" type="line"/>
			<point x="929" y="656" type="line"/>
			<point x="933" y="676" type="line"/>
			<point x="809" y="676" type="line"/>
		</contour>
	</outline>
	<anchor name="aboveUC" x="541" y="696"/>
	<anchor name="belowLC" x="416" y="-20"/>
	<guideline name="310.0" x="0" y="310" angle="0" identifier="ne4fHfwzcL"/>
	<guideline name="777.0" x="777" y="310" angle="78" identifier="5ObhH7Afxg"/>
</glyph>
<glyph name="N" format="2">
	<unicode hex="004E"/>
	<advance width="726"/>
	<outline>
		<contour>
			<point x="17" y="0" type="line"/>
			<point x="250" y="0" type="line"/>
			<point x="254" y="20" type="line"/>
			<point x="133" y="27" type="line"/>
			<point x="119" y="27" type="line"/>
			<point x="21" y="20" type="line"/>
		</contour>
		<contour>
			<point x="108" y="0" type="line"/>
			<point x="132" y="0" type="line"/>
			<point x="255" y="651" type="line"/>
			<point x="236" y="676" type="line"/>
		</contour>
		<contour>
			<point x="554" y="656" type="line"/>
			<point x="675" y="649" type="line"/>
			<point x="689" y="649" type="line"/>
			<point x="782" y="656" type="line"/>
			<point x="786" y="676" type="line"/>
			<point x="558" y="676" type="line"/>
		</contour>
		<contour>
			<point x="569" y="30" type="line"/>
			<point x="563" y="30" type="line"/>
			<point x="268" y="676" type="line"/>
			<point x="130" y="676" type="line"/>
			<point x="126" y="656" type="line"/>
			<point x="245" y="652" type="line"/>
			<point x="248" y="645" type="line"/>
			<point x="249" y="642" type="line"/>
			<point x="549" y="-10" type="line"/>
			<point x="569" y="-10" type="line"/>
			<point x="699" y="676" type="line"/>
			<point x="675" y="676" type="line"/>
			<point x="550" y="14" type="line"/>
		</contour>
	</outline>
	<anchor name="aboveUC" x="445" y="696"/>
	<anchor name="belowLC" x="372" y="-20"/>
</glyph>
<glyph name="O" format="2">
	<unicode hex="004F"/>
	<advance width="654"/>
	<outline>
		<contour>
			<point x="304" y="-13" type="curve" smooth="yes"/>
			<point x="495" y="-13"/>
			<point x="645" y="169"/>
			<point x="645" y="418" type="curve" smooth="yes"/>
			<point x="645" y="573"/>
			<point x="570" y="689"/>
			<point x="406" y="689" type="curve" smooth="yes"/>
			<point x="220" y="689"/>
			<point x="65" y="502"/>
			<point x="65" y="259" type="curve" smooth="yes"/>
			<point x="65" y="104"/>
			<point x="147" y="-13"/>
		</contour>
		<contour>
			<point x="308" y="9" type="curve" smooth="yes"/>
			<point x="163" y="9"/>
			<point x="97" y="121"/>
			<point x="97" y="271" type="curve" smooth="yes"/>
			<point x="97" y="477"/>
			<point x="229" y="667"/>
			<point x="402" y="667" type="curve" smooth="yes"/>
			<point x="549" y="667"/>
			<point x="612" y="562"/>
			<point x="612" y="405" type="curve" smooth="yes"/>
			<point x="612" y="183"/>
			<point x="477" y="9"/>
		</contour>
	</outline>
	<anchor name="aboveUC" x="402" y="696"/>
	<anchor name="belowLC" x="311" y="-20"/>
	<anchor name="ogonek" x="397" y="0"/>
	<anchor name="hornLC" x="568" y="592"/>
</glyph>
<glyph name="P" format="2">
	<unicode hex="0050"/>
	<advance width="551"/>
	<outline>
		<contour>
			<point x="12" y="0" type="line"/>
			<point x="264" y="0" type="line"/>
			<point x="268" y="20" type="line"/>
			<point x="142" y="27" type="line"/>
			<point x="128" y="27" type="line"/>
			<point x="16" y="20" type="line"/>
		</contour>
		<contour>
			<point x="116" y="0" type="line"/>
			<point x="150" y="0" type="line"/>
			<point x="166" y="104"/>
			<point x="185" y="209"/>
			<point x="204" y="313" type="curve" smooth="yes"/>
			<point x="272" y="676" type="line"/>
			<point x="239" y="676" type="line"/>
			<point x="222" y="572"/>
			<point x="205" y="468"/>
			<point x="185" y="364" type="curve" smooth="yes"/>
		</contour>
		<contour>
			<point x="126" y="656" type="line"/>
			<point x="246" y="649" type="line"/>
			<point x="253" y="649" type="line"/>
			<point x="258" y="676" type="line"/>
			<point x="130" y="676" type="line"/>
		</contour>
		<contour>
			<point x="184" y="285" type="line"/>
			<point x="300" y="285" type="line" smooth="yes"/>
			<point x="472" y="285"/>
			<point x="564" y="378"/>
			<point x="564" y="497" type="curve" smooth="yes"/>
			<point x="564" y="615"/>
			<point x="501" y="676"/>
			<point x="356" y="676" type="curve" smooth="yes"/>
			<point x="258" y="676" type="line"/>
			<point x="254" y="654" type="line"/>
			<point x="347" y="654" type="line" smooth="yes"/>
			<point x="480" y="654"/>
			<point x="534" y="604"/>
			<point x="534" y="498" type="curve" smooth="yes"/>
			<point x="534" y="392"/>
			<point x="464" y="305"/>
			<point x="292" y="305" type="curve" smooth="yes"/>
			<point x="188" y="305" type="line"/>
		</contour>
	</outline>
	<anchor name="aboveUC" x="344" y="696"/>
	<anchor name="belowLC" x="141" y="-20"/>
</glyph>
<glyph name="Q" format="2">
	<unicode hex="0051"/>
	<advance width="654"/>
	<outline>
		<contour>
			<point x="485" y="-245" type="curve" smooth="yes"/>
			<point x="563" y="-245"/>
			<point x="613" y="-218"/>
			<point x="655" y="-181" type="curve"/>
			<point x="647" y="-166" type="line"/>
			<point x="600" y="-200"/>
			<point x="559" y="-219"/>
			<point x="497" y="-219" type="curve" smooth="yes"/>
			<point x="379" y="-219"/>
			<point x="293" y="-162"/>
			<point x="303" y="0" type="curve"/>
			<point x="274" y="0" type="line"/>
			<point x="264" y="-165"/>
			<point x="352" y="-245"/>
		</contour>
		<component base="O"/>
	</outline>
	<anchor name="aboveUC" x="396" y="696"/>
</glyph>
<glyph name="S" format="2">
	<unicode hex="0053"/>
	<advance width="514"/>
	<outline>
		<contour>
			<point x="41" y="46" type="line"/>
			<point x="81" y="13"/>
			<point x="140" y="-13"/>
			<point x="216" y="-13" type="curve" smooth="yes"/>
			<point x="346" y="-13"/>
			<point x="440" y="48"/>
			<point x="440" y="157" type="curve" smooth="yes"/>
			<point x="440" y="237"/>
			<point x="398" y="277"/>
			<point x="292" y="356" type="curve" smooth="yes"/>
			<point x="205" y="421"/>
			<point x="176" y="452"/>
			<point x="176" y="522" type="curve" smooth="yes"/>
			<point x="176" y="615"/>
			<point x="251" y="667"/>
			<point x="340" y="667" type="curve" smooth="yes"/>
			<point x="396" y="667"/>
			<point x="433" y="658"/>
			<point x="484" y="625" type="curve"/>
			<point x="473" y="646" type="line"/>
			<point x="462" y="521" type="line"/>
			<point x="484" y="521" type="line"/>
			<point x="507" y="643" type="line"/>
			<point x="452" y="674"/>
			<point x="416" y="689"/>
			<point x="343" y="689" type="curve" smooth="yes"/>
			<point x="241" y="689"/>
			<point x="148" y="632"/>
			<point x="148" y="517" type="curve" smooth="yes"/>
			<point x="148" y="450"/>
			<point x="180" y="403"/>
			<point x="275" y="332" type="curve" smooth="yes"/>
			<point x="374" y="258"/>
			<point x="412" y="227"/>
			<point x="412" y="155" type="curve" smooth="yes"/>
			<point x="412" y="65"/>
			<point x="336" y="9"/>
			<point x="218" y="9" type="curve" smooth="yes"/>
			<point x="149" y="9"/>
			<point x="109" y="26"/>
			<point x="54" y="66" type="curve"/>
			<point x="77" y="42" type="line"/>
			<point x="82" y="167" type="line"/>
			<point x="60" y="167" type="line"/>
		</contour>
	</outline>
	<anchor name="aboveUC" x="349" y="696"/>
	<anchor name="belowLC" x="223" y="-20"/>
	<anchor name="baseLC" x="227" y="0"/>
</glyph>
<glyph name="T" format="2">
	<unicode hex="0054"/>
	<advance width="614"/>
	<outline>
		<contour>
			<point x="90" y="513" type="line"/>
			<point x="114" y="513" type="line"/>
			<point x="164" y="676" type="line"/>
			<point x="146" y="654" type="line"/>
			<point x="642" y="654" type="line"/>
			<point x="632" y="676" type="line"/>
			<point x="620" y="513" type="line"/>
			<point x="644" y="513" type="line"/>
			<point x="665" y="676" type="line"/>
			<point x="131" y="676" type="line"/>
		</contour>
		<contour>
			<point x="151" y="0" type="line"/>
			<point x="403" y="0" type="line"/>
			<point x="407" y="20" type="line"/>
			<point x="281" y="27" type="line"/>
			<point x="267" y="27" type="line"/>
			<point x="155" y="20" type="line"/>
		</contour>
		<contour>
			<point x="255" y="0" type="line"/>
			<point x="289" y="0" type="line"/>
			<point x="305" y="104"/>
			<point x="324" y="209"/>
			<point x="343" y="313" type="curve" smooth="yes"/>
			<point x="411" y="676" type="line"/>
			<point x="378" y="676" type="line"/>
			<point x="361" y="572"/>
			<point x="344" y="468"/>
			<point x="324" y="364" type="curve" smooth="yes"/>
		</contour>
	</outline>
	<anchor name="aboveUC" x="399" y="696"/>
	<anchor name="belowLC" x="272" y="-20"/>
	<anchor name="baseLC" x="274" y="0"/>
</glyph>
<glyph name="U" format="2">
	<unicode hex="0055"/>
	<advance width="725"/>
	<outline>
		<contour>
			<point x="237" y="649" type="line"/>
			<point x="251" y="649" type="line"/>
			<point x="364" y="656" type="line"/>
			<point x="368" y="676" type="line"/>
			<point x="130" y="676" type="line"/>
			<point x="126" y="656" type="line"/>
		</contour>
		<contour>
			<point x="339" y="-13" type="curve" smooth="yes"/>
			<point x="496" y="-13"/>
			<point x="568" y="63"/>
			<point x="602" y="246" type="curve" smooth="yes"/>
			<point x="683" y="676" type="line"/>
			<point x="660" y="676" type="line"/>
			<point x="583" y="272" type="line" smooth="yes"/>
			<point x="544" y="68"/>
			<point x="479" y="13"/>
			<point x="344" y="13" type="curve" smooth="yes"/>
			<point x="242" y="13"/>
			<point x="173" y="60"/>
			<point x="173" y="165" type="curve" smooth="yes"/>
			<point x="173" y="191"/>
			<point x="176" y="220"/>
			<point x="182" y="254" type="curve" smooth="yes"/>
			<point x="262" y="676" type="line"/>
			<point x="230" y="676" type="line"/>
			<point x="212" y="572"/>
			<point x="193" y="467"/>
			<point x="173" y="361" type="curve" smooth="yes"/>
			<point x="152" y="247" type="line" smooth="yes"/>
			<point x="146" y="215"/>
			<point x="143" y="185"/>
			<point x="143" y="160" type="curve" smooth="yes"/>
			<point x="143" y="43"/>
			<point x="223" y="-13"/>
		</contour>
		<contour>
			<point x="660" y="649" type="line"/>
			<point x="674" y="649" type="line"/>
			<point x="775" y="656" type="line"/>
			<point x="779" y="676" type="line"/>
			<point x="543" y="676" type="line"/>
			<point x="539" y="656" type="line"/>
		</contour>
	</outline>
	<anchor name="aboveUC" x="459" y="696"/>
	<anchor name="belowLC" x="338" y="-20"/>
	<anchor name="hornLC" x="667" y="613"/>
	<anchor name="ogonek" x="430" y="0"/>
</glyph>
<glyph name="V" format="2">
	<unicode hex="0056"/>
	<advance width="610"/>
	<outline>
		<contour>
			<point x="68" y="656" type="line"/>
			<point x="173" y="649" type="line"/>
			<point x="183" y="649" type="line"/>
			<point x="307" y="656" type="line"/>
			<point x="310" y="676" type="line"/>
			<point x="71" y="676" type="line"/>
		</contour>
		<contour>
			<point x="262" y="-10" type="line"/>
			<point x="282" y="-10" type="line"/>
			<point x="639" y="676" type="line"/>
			<point x="611" y="676" type="line"/>
			<point x="272" y="14" type="line"/>
			<point x="286" y="14" type="line"/>
			<point x="189" y="676" type="line"/>
			<point x="158" y="676" type="line"/>
		</contour>
		<contour>
			<point x="489" y="656" type="line"/>
			<point x="606" y="649" type="line"/>
			<point x="620" y="649" type="line"/>
			<point x="717" y="656" type="line"/>
			<point x="720" y="676" type="line"/>
			<point x="492" y="676" type="line"/>
		</contour>
	</outline>
	<anchor name="aboveUC" x="399" y="696"/>
	<anchor name="belowLC" x="269" y="-20"/>
</glyph>
<glyph name="W" format="2">
	<unicode hex="0057"/>
	<advance width="886"/>
	<outline>
		<contour>
			<point x="68" y="656" type="line"/>
			<point x="170" y="649" type="line"/>
			<point x="184" y="649" type="line"/>
			<point x="296" y="656" type="line"/>
			<point x="299" y="676" type="line"/>
			<point x="71" y="676" type="line"/>
		</contour>
		<contour>
			<point x="208" y="-10" type="line"/>
			<point x="228" y="-10" type="line"/>
			<point x="522" y="630" type="line"/>
			<point x="512" y="621" type="line"/>
			<point x="588" y="-10" type="line"/>
			<point x="608" y="-10" type="line"/>
			<point x="901" y="676" type="line"/>
			<point x="875" y="676" type="line"/>
			<point x="598" y="11" type="line"/>
			<point x="613" y="20" type="line"/>
			<point x="535" y="676" type="line"/>
			<point x="521" y="676" type="line"/>
			<point x="218" y="13" type="line"/>
			<point x="234" y="19" type="line"/>
			<point x="189" y="676" type="line"/>
			<point x="159" y="676" type="line"/>
		</contour>
		<contour>
			<point x="415" y="656" type="line"/>
			<point x="519" y="649" type="line"/>
			<point x="533" y="649" type="line"/>
			<point x="643" y="656" type="line"/>
			<point x="646" y="676" type="line"/>
			<point x="418" y="676" type="line"/>
		</contour>
		<contour>
			<point x="765" y="656" type="line"/>
			<point x="870" y="649" type="line"/>
			<point x="884" y="649" type="line"/>
			<point x="993" y="656" type="line"/>
			<point x="996" y="676" type="line"/>
			<point x="768" y="676" type="line"/>
		</contour>
	</outline>
	<anchor name="aboveUC" x="532" y="696"/>
	<anchor name="belowLC" x="417" y="-20"/>
</glyph>
<glyph name="X" format="2">
	<unicode hex="0058"/>
	<advance width="622"/>
	<outline>
		<contour>
			<point x="-11" y="0" type="line"/>
			<point x="217" y="0" type="line"/>
			<point x="221" y="20" type="line"/>
			<point x="102" y="27" type="line"/>
			<point x="88" y="27" type="line"/>
			<point x="-7" y="20" type="line"/>
		</contour>
		<contour>
			<point x="58" y="0" type="line"/>
			<point x="88" y="0" type="line"/>
			<point x="342" y="328" type="line"/>
			<point x="334" y="349" type="line"/>
		</contour>
		<contour>
			<point x="115" y="656" type="line"/>
			<point x="211" y="649" type="line"/>
			<point x="225" y="649" type="line"/>
			<point x="343" y="656" type="line"/>
			<point x="346" y="676" type="line"/>
			<point x="118" y="676" type="line"/>
		</contour>
		<contour>
			<point x="468" y="0" type="line"/>
			<point x="500" y="0" type="line"/>
			<point x="354" y="355" type="line"/>
			<point x="353" y="358" type="line"/>
			<point x="222" y="676" type="line"/>
			<point x="190" y="676" type="line"/>
			<point x="332" y="332" type="line"/>
			<point x="333" y="329" type="line"/>
		</contour>
		<contour>
			<point x="348" y="0" type="line"/>
			<point x="576" y="0" type="line"/>
			<point x="580" y="20" type="line"/>
			<point x="481" y="27" type="line"/>
			<point x="467" y="27" type="line"/>
			<point x="352" y="20" type="line"/>
		</contour>
		<contour>
			<point x="338" y="352" type="line"/>
			<point x="345" y="332" type="line"/>
			<point x="614" y="676" type="line"/>
			<point x="585" y="676" type="line"/>
		</contour>
		<contour>
			<point x="454" y="656" type="line"/>
			<point x="570" y="649" type="line"/>
			<point x="584" y="649" type="line"/>
			<point x="682" y="656" type="line"/>
			<point x="685" y="676" type="line"/>
			<point x="457" y="676" type="line"/>
		</contour>
	</outline>
	<anchor name="aboveUC" x="407" y="696"/>
	<anchor name="belowLC" x="279" y="-20"/>
</glyph>
<glyph name="Y" format="2">
	<unicode hex="0059"/>
	<advance width="558"/>
	<outline>
		<contour>
			<point x="67" y="657" type="line"/>
			<point x="158" y="650" type="line"/>
			<point x="172" y="650" type="line"/>
			<point x="290" y="657" type="line"/>
			<point x="294" y="677" type="line"/>
			<point x="71" y="677" type="line"/>
		</contour>
		<contour>
			<point x="116" y="0" type="line"/>
			<point x="384" y="0" type="line"/>
			<point x="388" y="20" type="line"/>
			<point x="262" y="27" type="line"/>
			<point x="248" y="27" type="line"/>
			<point x="120" y="20" type="line"/>
		</contour>
		<contour>
			<point x="293" y="250" type="line"/>
			<point x="303" y="253" type="line"/>
			<point x="596" y="677" type="line"/>
			<point x="570" y="677" type="line"/>
			<point x="298" y="279" type="line"/>
			<point x="313" y="283" type="line"/>
			<point x="171" y="677" type="line"/>
			<point x="139" y="677" type="line"/>
		</contour>
		<contour>
			<point x="235" y="0" type="line"/>
			<point x="265" y="0" type="line"/>
			<point x="283" y="96"/>
			<point x="301" y="193"/>
			<point x="319" y="289" type="curve"/>
			<point x="289" y="289" type="line"/>
		</contour>
		<contour>
			<point x="442" y="657" type="line"/>
			<point x="557" y="650" type="line"/>
			<point x="571" y="650" type="line"/>
			<point x="665" y="657" type="line"/>
			<point x="669" y="677" type="line"/>
			<point x="446" y="677" type="line"/>
		</contour>
	</outline>
	<anchor name="aboveUC" x="356" y="682"/>
	<anchor name="belowLC" x="247" y="-22"/>
</glyph>
<glyph name="Z" format="2">
	<unicode hex="005A"/>
	<advance width="542"/>
	<outline>
		<contour>
			<point x="-4" y="0" type="line"/>
			<point x="481" y="0" type="line"/>
			<point x="521" y="163" type="line"/>
			<point x="499" y="163" type="line"/>
			<point x="448" y="10" type="line"/>
			<point x="464" y="22" type="line"/>
			<point x="237" y="22" type="line"/>
			<point x="31" y="22" type="line"/>
			<point x="32" y="30" type="line"/>
			<point x="23" y="9" type="line"/>
			<point x="575" y="656" type="line"/>
			<point x="579" y="676" type="line"/>
			<point x="127" y="676" type="line"/>
			<point x="87" y="513" type="line"/>
			<point x="109" y="513" type="line"/>
			<point x="158" y="668" type="line"/>
			<point x="137" y="654" type="line"/>
			<point x="351" y="654" type="line"/>
			<point x="546" y="654" type="line"/>
			<point x="544" y="646" type="line"/>
			<point x="552" y="666" type="line"/>
			<point x="-1" y="20" type="line"/>
		</contour>
	</outline>
	<anchor name="aboveUC" x="353" y="696"/>
	<anchor name="belowLC" x="246" y="-20"/>
</glyph>
<glyph name="bracketleft" format="2">
	<unicode hex="005B"/>
	<advance width="291"/>
	<outline>
		<contour>
			<point x="41" y="-159" type="line"/>
			<point x="71" y="-159" type="line"/>
			<point x="87" y="-54"/>
			<point x="107" y="53"/>
			<point x="127" y="158" type="curve" smooth="yes"/>
			<point x="231" y="715" type="line"/>
			<point x="201" y="715" type="line"/>
			<point x="185" y="610"/>
			<point x="165" y="503"/>
			<point x="145" y="398" type="curve" smooth="yes"/>
		</contour>
		<contour>
			<point x="55" y="-159" type="line"/>
			<point x="186" y="-159" type="line"/>
			<point x="190" y="-137" type="line"/>
			<point x="74" y="-131" type="line"/>
			<point x="60" y="-131" type="line"/>
		</contour>
		<contour>
			<point x="212" y="687" type="line"/>
			<point x="226" y="687" type="line"/>
			<point x="344" y="693" type="line"/>
			<point x="348" y="715" type="line"/>
			<point x="217" y="715" type="line"/>
		</contour>
	</outline>
</glyph>
<glyph name="asciicircum" format="2">
	<unicode hex="005E"/>
	<advance width="530"/>
	<outline>
		<contour>
			<point x="107" y="226" type="line"/>
			<point x="127" y="213" type="line"/>
			<point x="295" y="481" type="line"/>
			<point x="268" y="481" type="line"/>
			<point x="446" y="213" type="line"/>
			<point x="466" y="226" type="line"/>
			<point x="293" y="490" type="line"/>
			<point x="271" y="490" type="line"/>
		</contour>
	</outline>
</glyph>
<glyph name="underscore" format="2">
	<unicode hex="005F"/>
	<advance width="510"/>
	<outline>
		<contour>
			<point x="-60" y="-25" type="line"/>
			<point x="474" y="-25" type="line"/>
			<point x="474" y="1" type="line"/>
			<point x="-60" y="1" type="line"/>
		</contour>
	</outline>
</glyph>
<glyph name="c" format="2">
	<unicode hex="0063"/>
	<advance width="408"/>
	<outline>
		<contour>
			<point x="212" y="-13" type="curve" smooth="yes"/>
			<point x="282" y="-13"/>
			<point x="335" y="26"/>
			<point x="378" y="92" type="curve"/>
			<point x="367" y="100" type="line"/>
			<point x="326" y="44"/>
			<point x="279" y="12"/>
			<point x="221" y="12" type="curve" smooth="yes"/>
			<point x="144" y="12"/>
			<point x="96" y="64"/>
			<point x="96" y="169" type="curve" smooth="yes"/>
			<point x="96" y="307"/>
			<point x="201" y="470"/>
			<point x="340" y="467" type="curve"/>
			<point x="324" y="470" type="line"/>
			<point x="371" y="425" type="line" smooth="yes"/>
			<point x="386" y="411"/>
			<point x="391" y="408"/>
			<point x="400" y="408" type="curve" smooth="yes"/>
			<point x="408" y="408"/>
			<point x="418" y="416"/>
			<point x="417" y="425" type="curve"/>
			<point x="409" y="450"/>
			<point x="370" y="483"/>
			<point x="324" y="483" type="curve" smooth="yes"/>
			<point x="196" y="483"/>
			<point x="69" y="327"/>
			<point x="69" y="159" type="curve" smooth="yes"/>
			<point x="69" y="38"/>
			<point x="138" y="-13"/>
		</contour>
	</outline>
	<anchor name="aboveLC" x="330" y="500"/>
	<anchor name="belowLC" x="196" y="-22"/>
	<anchor name="baseLC" x="197" y="0"/>
</glyph>
<glyph name="d" format="2">
	<unicode hex="0064"/>
	<advance width="543"/>
	<outline>
		<contour>
			<point x="152" y="-13" type="curve" smooth="yes"/>
			<point x="232" y="-13"/>
			<point x="328" y="76"/>
			<point x="397" y="173" type="curve"/>
			<point x="400" y="173" type="line"/>
			<point x="393" y="181" type="line"/>
			<point x="303" y="82"/>
			<point x="232" y="12"/>
			<point x="157" y="12" type="curve" smooth="yes"/>
			<point x="115" y="12"/>
			<point x="90" y="42"/>
			<point x="90" y="114" type="curve" smooth="yes"/>
			<point x="90" y="197"/>
			<point x="126" y="288"/>
			<point x="181" y="357" type="curve" smooth="yes"/>
			<point x="231" y="418"/>
			<point x="297" y="460"/>
			<point x="367" y="460" type="curve" smooth="yes"/>
			<point x="391" y="460"/>
			<point x="419" y="451"/>
			<point x="446" y="427" type="curve"/>
			<point x="453" y="447" type="line"/>
			<point x="430" y="473"/>
			<point x="406" y="483"/>
			<point x="374" y="483" type="curve" smooth="yes"/>
			<point x="223" y="483"/>
			<point x="62" y="282"/>
			<point x="62" y="106" type="curve" smooth="yes"/>
			<point x="62" y="18"/>
			<point x="98" y="-13"/>
		</contour>
		<contour>
			<point x="402" y="-13" type="curve" smooth="yes"/>
			<point x="457" y="-13"/>
			<point x="501" y="32"/>
			<point x="543" y="92" type="curve"/>
			<point x="533" y="100" type="line"/>
			<point x="491" y="47"/>
			<point x="450" y="13"/>
			<point x="416" y="13" type="curve" smooth="yes"/>
			<point x="397" y="13"/>
			<point x="387" y="20"/>
			<point x="387" y="40" type="curve" smooth="yes"/>
			<point x="387" y="56"/>
			<point x="391" y="80"/>
			<point x="395" y="99" type="curve" smooth="yes"/>
			<point x="522" y="738" type="line"/>
			<point x="512" y="748" type="line"/>
			<point x="373" y="733" type="line"/>
			<point x="370" y="719" type="line"/>
			<point x="499" y="717" type="line"/>
			<point x="492" y="724" type="line"/>
			<point x="439" y="453" type="line"/>
			<point x="437" y="443" type="line"/>
			<point x="370" y="104" type="line"/>
			<point x="369" y="99" type="line" smooth="yes"/>
			<point x="363" y="68"/>
			<point x="360" y="54"/>
			<point x="360" y="31" type="curve" smooth="yes"/>
			<point x="360" y="2"/>
			<point x="377" y="-13"/>
		</contour>
	</outline>
	<anchor name="aboveLC" x="485" y="748"/>
	<anchor name="belowLC" x="296" y="-20"/>
</glyph>
<glyph name="e" format="2">
	<unicode hex="0065"/>
	<advance width="408"/>
	<outline>
		<contour>
			<point x="211" y="-13" type="curve" smooth="yes"/>
			<point x="282" y="-13"/>
			<point x="335" y="26"/>
			<point x="378" y="92" type="curve"/>
			<point x="367" y="100" type="line"/>
			<point x="325" y="43"/>
			<point x="279" y="12"/>
			<point x="221" y="12" type="curve" smooth="yes"/>
			<point x="144" y="12"/>
			<point x="96" y="64"/>
			<point x="96" y="171" type="curve" smooth="yes"/>
			<point x="96" y="309"/>
			<point x="208" y="464"/>
			<point x="320" y="464" type="curve" smooth="yes"/>
			<point x="362" y="464"/>
			<point x="390" y="445"/>
			<point x="390" y="406" type="curve" smooth="yes"/>
			<point x="390" y="316"/>
			<point x="276" y="235"/>
			<point x="81" y="183" type="curve"/>
			<point x="83" y="167" type="line"/>
			<point x="289" y="219"/>
			<point x="414" y="309"/>
			<point x="414" y="408" type="curve" smooth="yes"/>
			<point x="414" y="460"/>
			<point x="374" y="483"/>
			<point x="326" y="483" type="curve" smooth="yes"/>
			<point x="191" y="483"/>
			<point x="70" y="318"/>
			<point x="70" y="162" type="curve" smooth="yes"/>
			<point x="70" y="34"/>
			<point x="139" y="-13"/>
		</contour>
	</outline>
	<anchor name="aboveLC" x="326" y="500"/>
	<anchor name="belowLC" x="217" y="-22"/>
	<anchor name="ogonek" x="268" y="0"/>
</glyph>
<glyph name="g" format="2">
	<unicode hex="0067"/>
	<advance width="466"/>
	<outline>
		<contour>
			<point x="156" y="-245" type="curve" smooth="yes"/>
			<point x="306" y="-245"/>
			<point x="400" y="-156"/>
			<point x="400" y="-77" type="curve" smooth="yes"/>
			<point x="400" y="-27"/>
			<point x="372" y="10"/>
			<point x="272" y="24" type="curve" smooth="yes"/>
			<point x="139" y="43" type="line" smooth="yes"/>
			<point x="97" y="49"/>
			<point x="82" y="67"/>
			<point x="82" y="95" type="curve" smooth="yes"/>
			<point x="82" y="117"/>
			<point x="91" y="146"/>
			<point x="140" y="182" type="curve"/>
			<point x="132" y="196" type="line"/>
			<point x="132" y="191" type="line"/>
			<point x="83" y="159"/>
			<point x="59" y="122"/>
			<point x="59" y="86" type="curve" smooth="yes"/>
			<point x="59" y="61"/>
			<point x="73" y="31"/>
			<point x="123" y="21" type="curve"/>
			<point x="123" y="20" type="line"/>
			<point x="129" y="19"/>
			<point x="136" y="18"/>
			<point x="142" y="17" type="curve" smooth="yes"/>
			<point x="259" y="1" type="line" smooth="yes"/>
			<point x="355" y="-12"/>
			<point x="373" y="-38"/>
			<point x="373" y="-84" type="curve" smooth="yes"/>
			<point x="373" y="-167"/>
			<point x="277" y="-225"/>
			<point x="161" y="-225" type="curve" smooth="yes"/>
			<point x="65" y="-225"/>
			<point x="14" y="-186"/>
			<point x="14" y="-125" type="curve" smooth="yes"/>
			<point x="14" y="-58"/>
			<point x="61" y="-15"/>
			<point x="143" y="24" type="curve"/>
			<point x="134" y="31" type="line"/>
			<point x="57" y="3"/>
			<point x="-14" y="-53"/>
			<point x="-14" y="-130" type="curve" smooth="yes"/>
			<point x="-14" y="-207"/>
			<point x="50" y="-245"/>
		</contour>
		<contour>
			<point x="215" y="147" type="curve" smooth="yes"/>
			<point x="307" y="147"/>
			<point x="380" y="208"/>
			<point x="397" y="344" type="curve" smooth="yes"/>
			<point x="403" y="393"/>
			<point x="411" y="419"/>
			<point x="426" y="446" type="curve"/>
			<point x="406" y="424" type="line"/>
			<point x="466" y="445"/>
			<point x="493" y="460"/>
			<point x="493" y="479" type="curve" smooth="yes"/>
			<point x="493" y="484"/>
			<point x="492" y="487"/>
			<point x="490" y="490" type="curve"/>
			<point x="484" y="492"/>
			<point x="478" y="493"/>
			<point x="470" y="493" type="curve" smooth="yes"/>
			<point x="439" y="493"/>
			<point x="397" y="461"/>
			<point x="385" y="370" type="curve"/>
			<point x="388" y="371" type="line"/>
			<point x="383" y="443"/>
			<point x="338" y="483"/>
			<point x="276" y="483" type="curve" smooth="yes"/>
			<point x="171" y="483"/>
			<point x="90" y="393"/>
			<point x="90" y="277" type="curve" smooth="yes"/>
			<point x="90" y="191"/>
			<point x="141" y="147"/>
		</contour>
		<contour>
			<point x="220" y="167" type="curve" smooth="yes"/>
			<point x="150" y="167"/>
			<point x="116" y="208"/>
			<point x="116" y="283" type="curve" smooth="yes"/>
			<point x="116" y="375"/>
			<point x="181" y="463"/>
			<point x="268" y="463" type="curve" smooth="yes"/>
			<point x="344" y="463"/>
			<point x="372" y="413"/>
			<point x="372" y="339" type="curve" smooth="yes"/>
			<point x="372" y="249"/>
			<point x="304" y="167"/>
		</contour>
	</outline>
	<anchor name="aboveLC" x="284" y="490"/>
	<anchor name="belowLC" x="168" y="-265"/>
</glyph>
<glyph name="i" format="2">
	<unicode hex="0069"/>
	<advance width="286"/>
	<outline>
		<contour>
			<point x="98" y="28" type="curve" smooth="yes"/>
			<point x="98" y="4"/>
			<point x="116" y="-13"/>
			<point x="140" y="-13" type="curve" smooth="yes"/>
			<point x="195" y="-13"/>
			<point x="239" y="32"/>
			<point x="281" y="92" type="curve"/>
			<point x="271" y="100" type="line"/>
			<point x="229" y="47"/>
			<point x="188" y="13"/>
			<point x="154" y="13" type="curve" smooth="yes"/>
			<point x="135" y="13"/>
			<point x="125" y="20"/>
			<point x="125" y="38" type="curve" smooth="yes"/>
			<point x="125" y="56"/>
			<point x="132" y="80"/>
			<point x="136" y="99" type="curve" smooth="yes"/>
			<point x="218" y="473" type="line"/>
			<point x="205" y="483" type="line"/>
			<point x="65" y="468" type="line"/>
			<point x="62" y="454" type="line"/>
			<point x="191" y="452" type="line"/>
			<point x="187" y="459" type="line"/>
			<point x="110" y="99" type="line" smooth="yes"/>
			<point x="103" y="68"/>
			<point x="98" y="54"/>
		</contour>
		<contour>
			<point x="234" y="656" type="curve" smooth="yes"/>
			<point x="249" y="656"/>
			<point x="267" y="669"/>
			<point x="267" y="692" type="curve" smooth="yes"/>
			<point x="267" y="709"/>
			<point x="254" y="719"/>
			<point x="238" y="719" type="curve" smooth="yes"/>
			<point x="223" y="719"/>
			<point x="205" y="706"/>
			<point x="205" y="684" type="curve" smooth="yes"/>
			<point x="205" y="665"/>
			<point x="219" y="656"/>
		</contour>
	</outline>
	<anchor name="aboveLC" x="238" y="719"/>
	<anchor name="belowLC" x="149" y="-20"/>
	<anchor name="ogonek" x="181" y="0"/>
</glyph>
<glyph name="j" format="2">
	<unicode hex="006A"/>
	<advance width="251"/>
	<outline>
		<contour>
			<point x="-63" y="-255" type="line"/>
			<point x="-33" y="-248"/>
			<point x="-6" y="-236"/>
			<point x="25" y="-208" type="curve" smooth="yes"/>
			<point x="88" y="-150"/>
			<point x="110" y="-83"/>
			<point x="132" y="31" type="curve" smooth="yes"/>
			<point x="219" y="473" type="line"/>
			<point x="206" y="483" type="line"/>
			<point x="66" y="468" type="line"/>
			<point x="63" y="454" type="line"/>
			<point x="202" y="452" type="line"/>
			<point x="193" y="470" type="line"/>
			<point x="110" y="38" type="line" smooth="yes"/>
			<point x="88" y="-76"/>
			<point x="64" y="-133"/>
			<point x="25" y="-177" type="curve" smooth="yes"/>
			<point x="-7" y="-214"/>
			<point x="-35" y="-230"/>
			<point x="-67" y="-240" type="curve"/>
		</contour>
		<contour>
			<point x="235" y="656" type="curve" smooth="yes"/>
			<point x="250" y="656"/>
			<point x="268" y="669"/>
			<point x="268" y="692" type="curve" smooth="yes"/>
			<point x="268" y="709"/>
			<point x="255" y="719"/>
			<point x="239" y="719" type="curve" smooth="yes"/>
			<point x="224" y="719"/>
			<point x="206" y="706"/>
			<point x="206" y="684" type="curve" smooth="yes"/>
			<point x="206" y="665"/>
			<point x="220" y="656"/>
		</contour>
	</outline>
	<anchor name="aboveLC" x="244" y="719"/>
	<anchor name="belowLC" x="-6" y="-265"/>
</glyph>
<glyph name="m" format="2">
	<unicode hex="006D"/>
	<advance width="805"/>
	<outline>
		<contour>
			<point x="660" y="-13" type="curve" smooth="yes"/>
			<point x="715" y="-13"/>
			<point x="759" y="32"/>
			<point x="801" y="92" type="curve"/>
			<point x="791" y="100" type="line"/>
			<point x="749" y="47"/>
			<point x="708" y="13"/>
			<point x="674" y="13" type="curve" smooth="yes"/>
			<point x="655" y="13"/>
			<point x="645" y="20"/>
			<point x="645" y="38" type="curve" smooth="yes"/>
			<point x="645" y="56"/>
			<point x="652" y="80"/>
			<point x="656" y="99" type="curve" smooth="yes"/>
			<point x="708" y="321" type="line" smooth="yes"/>
			<point x="717" y="361"/>
			<point x="726" y="388"/>
			<point x="726" y="419" type="curve" smooth="yes"/>
			<point x="726" y="458"/>
			<point x="705" y="483"/>
			<point x="661" y="483" type="curve" smooth="yes"/>
			<point x="606" y="483"/>
			<point x="522" y="434"/>
			<point x="443" y="348" type="curve"/>
			<point x="441" y="348" type="line"/>
			<point x="441" y="330" type="line"/>
			<point x="551" y="429"/>
			<point x="600" y="458"/>
			<point x="655" y="458" type="curve" smooth="yes"/>
			<point x="683" y="458"/>
			<point x="698" y="445"/>
			<point x="698" y="414" type="curve" smooth="yes"/>
			<point x="698" y="388"/>
			<point x="689" y="356"/>
			<point x="682" y="324" type="curve" smooth="yes"/>
			<point x="630" y="99" type="line" smooth="yes"/>
			<point x="623" y="68"/>
			<point x="618" y="54"/>
			<point x="618" y="28" type="curve" smooth="yes"/>
			<point x="618" y="4"/>
			<point x="636" y="-13"/>
		</contour>
		<contour>
			<point x="118" y="0" type="line"/>
			<point x="132" y="69"/>
			<point x="145" y="138"/>
			<point x="161" y="207" type="curve" smooth="yes"/>
			<point x="193" y="351" type="line"/>
			<point x="193" y="353" type="line"/>
			<point x="217" y="473" type="line"/>
			<point x="204" y="483" type="line"/>
			<point x="66" y="468" type="line"/>
			<point x="63" y="454" type="line"/>
			<point x="192" y="452" type="line"/>
			<point x="188" y="459" type="line"/>
			<point x="91" y="0" type="line"/>
			<point x="97" y="-5" type="line"/>
		</contour>
		<contour>
			<point x="382" y="0" type="line"/>
			<point x="396" y="69"/>
			<point x="410" y="138"/>
			<point x="425" y="207" type="curve" smooth="yes"/>
			<point x="454" y="337" type="line"/>
			<point x="457" y="350" type="line" smooth="yes"/>
			<point x="461" y="369"/>
			<point x="468" y="394"/>
			<point x="468" y="421" type="curve" smooth="yes"/>
			<point x="468" y="458"/>
			<point x="447" y="483"/>
			<point x="403" y="483" type="curve" smooth="yes"/>
			<point x="348" y="483"/>
			<point x="256" y="430"/>
			<point x="177" y="344" type="curve"/>
			<point x="175" y="344" type="line"/>
			<point x="175" y="326" type="line"/>
			<point x="285" y="425"/>
			<point x="342" y="458"/>
			<point x="397" y="458" type="curve" smooth="yes"/>
			<point x="425" y="458"/>
			<point x="439" y="445"/>
			<point x="439" y="414" type="curve" smooth="yes"/>
			<point x="439" y="388"/>
			<point x="430" y="351"/>
			<point x="424" y="323" type="curve" smooth="yes"/>
			<point x="355" y="0" type="line"/>
			<point x="361" y="-5" type="line"/>
		</contour>
	</outline>
	<anchor name="aboveLC" x="457" y="490"/>
	<anchor name="belowLC" x="368" y="-20"/>
</glyph>
<glyph name="n" format="2">
	<unicode hex="006E"/>
	<advance width="556"/>
	<outline>
		<contour>
			<point x="97" y="-5" type="line"/>
			<point x="118" y="0" type="line"/>
			<point x="132" y="69"/>
			<point x="145" y="138"/>
			<point x="161" y="207" type="curve" smooth="yes"/>
			<point x="192" y="346" type="line"/>
			<point x="193" y="351" type="line"/>
			<point x="217" y="473" type="line"/>
			<point x="204" y="483" type="line"/>
			<point x="66" y="468" type="line"/>
			<point x="63" y="454" type="line"/>
			<point x="192" y="452" type="line"/>
			<point x="188" y="459" type="line"/>
			<point x="91" y="0" type="line"/>
		</contour>
		<contour>
			<point x="411" y="-13" type="curve" smooth="yes"/>
			<point x="466" y="-13"/>
			<point x="510" y="32"/>
			<point x="552" y="92" type="curve"/>
			<point x="542" y="100" type="line"/>
			<point x="500" y="47"/>
			<point x="459" y="13"/>
			<point x="425" y="13" type="curve" smooth="yes"/>
			<point x="406" y="13"/>
			<point x="396" y="20"/>
			<point x="396" y="38" type="curve" smooth="yes"/>
			<point x="396" y="56"/>
			<point x="403" y="80"/>
			<point x="407" y="99" type="curve" smooth="yes"/>
			<point x="459" y="321" type="line" smooth="yes"/>
			<point x="468" y="361"/>
			<point x="476" y="388"/>
			<point x="476" y="419" type="curve" smooth="yes"/>
			<point x="476" y="458"/>
			<point x="455" y="483"/>
			<point x="411" y="483" type="curve" smooth="yes"/>
			<point x="356" y="483"/>
			<point x="256" y="430"/>
			<point x="177" y="344" type="curve"/>
			<point x="174" y="344" type="line"/>
			<point x="175" y="326" type="line"/>
			<point x="285" y="425"/>
			<point x="350" y="458"/>
			<point x="405" y="458" type="curve" smooth="yes"/>
			<point x="433" y="458"/>
			<point x="448" y="445"/>
			<point x="448" y="414" type="curve" smooth="yes"/>
			<point x="448" y="388"/>
			<point x="440" y="356"/>
			<point x="433" y="324" type="curve" smooth="yes"/>
			<point x="381" y="99" type="line" smooth="yes"/>
			<point x="374" y="68"/>
			<point x="369" y="54"/>
			<point x="369" y="28" type="curve" smooth="yes"/>
			<point x="369" y="4"/>
			<point x="387" y="-13"/>
		</contour>
	</outline>
	<anchor name="aboveLC" x="332" y="490"/>
	<anchor name="belowLC" x="253" y="-20"/>
</glyph>
<glyph name="s" format="2">
	<unicode hex="0073"/>
	<advance width="371"/>
	<outline>
		<contour>
			<point x="170" y="-13" type="curve" smooth="yes"/>
			<point x="254" y="-13"/>
			<point x="320" y="33"/>
			<point x="320" y="118" type="curve" smooth="yes"/>
			<point x="320" y="164"/>
			<point x="296" y="198"/>
			<point x="226" y="249" type="curve" smooth="yes"/>
			<point x="173" y="288"/>
			<point x="148" y="310"/>
			<point x="148" y="363" type="curve" smooth="yes"/>
			<point x="148" y="420"/>
			<point x="190" y="463"/>
			<point x="269" y="463" type="curve" smooth="yes"/>
			<point x="291" y="463"/>
			<point x="315" y="456"/>
			<point x="333" y="445" type="curve"/>
			<point x="306" y="472" type="line"/>
			<point x="333" y="414" type="line" smooth="yes"/>
			<point x="340" y="399"/>
			<point x="349" y="396"/>
			<point x="358" y="396" type="curve" smooth="yes"/>
			<point x="367" y="396"/>
			<point x="377" y="404"/>
			<point x="377" y="413" type="curve"/>
			<point x="366" y="451"/>
			<point x="325" y="483"/>
			<point x="264" y="483" type="curve" smooth="yes"/>
			<point x="181" y="483"/>
			<point x="123" y="434"/>
			<point x="123" y="356" type="curve" smooth="yes"/>
			<point x="123" y="303"/>
			<point x="154" y="267"/>
			<point x="213" y="227" type="curve" smooth="yes"/>
			<point x="272" y="187"/>
			<point x="295" y="152"/>
			<point x="295" y="111" type="curve" smooth="yes"/>
			<point x="295" y="52"/>
			<point x="247" y="7"/>
			<point x="170" y="7" type="curve" smooth="yes"/>
			<point x="136" y="7"/>
			<point x="113" y="12"/>
			<point x="88" y="29" type="curve"/>
			<point x="109" y="7" type="line"/>
			<point x="85" y="77" type="line" smooth="yes"/>
			<point x="81" y="89"/>
			<point x="74" y="93"/>
			<point x="63" y="93" type="curve" smooth="yes"/>
			<point x="53" y="93"/>
			<point x="46" y="84"/>
			<point x="44" y="73" type="curve"/>
			<point x="63" y="10"/>
			<point x="99" y="-13"/>
		</contour>
	</outline>
	<anchor name="aboveLC" x="256" y="490"/>
	<anchor name="belowLC" x="171" y="-20"/>
	<anchor name="baseLC" x="170" y="0"/>
</glyph>
<glyph name="t" format="2">
	<unicode hex="0074"/>
	<advance width="320"/>
	<outline>
		<contour>
			<point x="61" y="453" type="line"/>
			<point x="199" y="453" type="line"/>
			<point x="201" y="453" type="line"/>
			<point x="354" y="450" type="line"/>
			<point x="358" y="475" type="line"/>
			<point x="202" y="475" type="line"/>
			<point x="202" y="476" type="line"/>
			<point x="65" y="469" type="line"/>
		</contour>
		<contour>
			<point x="140" y="-13" type="curve" smooth="yes"/>
			<point x="195" y="-13"/>
			<point x="239" y="32"/>
			<point x="281" y="92" type="curve"/>
			<point x="271" y="100" type="line"/>
			<point x="229" y="47"/>
			<point x="188" y="13"/>
			<point x="154" y="13" type="curve" smooth="yes"/>
			<point x="135" y="13"/>
			<point x="125" y="20"/>
			<point x="125" y="38" type="curve" smooth="yes"/>
			<point x="125" y="56"/>
			<point x="131" y="80"/>
			<point x="135" y="99" type="curve" smooth="yes"/>
			<point x="244" y="609" type="line"/>
			<point x="222" y="609" type="line"/>
			<point x="182" y="443" type="line"/>
			<point x="109" y="99" type="line" smooth="yes"/>
			<point x="102" y="68"/>
			<point x="98" y="54"/>
			<point x="98" y="28" type="curve" smooth="yes"/>
			<point x="98" y="4"/>
			<point x="116" y="-13"/>
		</contour>
	</outline>
	<anchor name="aboveLC" x="224" y="579"/>
	<anchor name="belowLC" x="150" y="-20"/>
	<anchor name="baseLC" x="147" y="0"/>
</glyph>
<glyph name="v" format="2">
	<unicode hex="0076"/>
	<advance width="461"/>
	<outline>
		<contour>
			<point x="195" y="-5" type="curve"/>
			<point x="199" y="-8" type="line"/>
			<point x="206" y="-7" type="line"/>
			<point x="313" y="113"/>
			<point x="379" y="218"/>
			<point x="423" y="306" type="curve" smooth="yes"/>
			<point x="459" y="378"/>
			<point x="463" y="422"/>
			<point x="463" y="447" type="curve" smooth="yes"/>
			<point x="463" y="463"/>
			<point x="462" y="470"/>
			<point x="458" y="478" type="curve"/>
			<point x="455" y="481"/>
			<point x="450" y="483"/>
			<point x="443" y="483" type="curve" smooth="yes"/>
			<point x="431" y="483"/>
			<point x="417" y="470"/>
			<point x="417" y="447" type="curve" smooth="yes"/>
			<point x="417" y="433"/>
			<point x="421" y="406"/>
			<point x="423" y="391" type="curve" smooth="yes"/>
			<point x="429" y="338" type="line"/>
			<point x="434" y="410" type="line"/>
			<point x="423" y="362"/>
			<point x="415" y="339"/>
			<point x="403" y="314" type="curve" smooth="yes"/>
			<point x="362" y="223"/>
			<point x="299" y="128"/>
			<point x="213" y="26" type="curve"/>
			<point x="209" y="21" type="line"/>
			<point x="217" y="21" type="line"/>
			<point x="216" y="176"/>
			<point x="214" y="285"/>
			<point x="201" y="396" type="curve" smooth="yes"/>
			<point x="193" y="462"/>
			<point x="175" y="483"/>
			<point x="142" y="483" type="curve" smooth="yes"/>
			<point x="102" y="483"/>
			<point x="71" y="457"/>
			<point x="37" y="382" type="curve"/>
			<point x="50" y="376" type="line"/>
			<point x="85" y="445"/>
			<point x="110" y="457"/>
			<point x="133" y="457" type="curve" smooth="yes"/>
			<point x="153" y="457"/>
			<point x="164" y="445"/>
			<point x="172" y="395" type="curve" smooth="yes"/>
			<point x="189" y="285"/>
			<point x="190" y="172"/>
		</contour>
	</outline>
	<anchor name="aboveLC" x="302" y="490"/>
	<anchor name="belowLC" x="200" y="-20"/>
</glyph>
<glyph name="x" format="2">
	<unicode hex="0078"/>
	<advance width="536"/>
	<outline>
		<contour>
			<point x="404" y="-13" type="curve" smooth="yes"/>
			<point x="441" y="-13"/>
			<point x="490" y="29"/>
			<point x="532" y="92" type="curve"/>
			<point x="521" y="101" type="line"/>
			<point x="483" y="49"/>
			<point x="438" y="13"/>
			<point x="407" y="13" type="curve" smooth="yes"/>
			<point x="371" y="13"/>
			<point x="358" y="37"/>
			<point x="344" y="99" type="curve" smooth="yes"/>
			<point x="306" y="261" type="line"/>
			<point x="306" y="262" type="line"/>
			<point x="275" y="395" type="line" smooth="yes"/>
			<point x="260" y="460"/>
			<point x="240" y="483"/>
			<point x="201" y="483" type="curve" smooth="yes"/>
			<point x="167" y="483"/>
			<point x="125" y="456"/>
			<point x="96" y="382" type="curve"/>
			<point x="109" y="375" type="line"/>
			<point x="141" y="439"/>
			<point x="161" y="457"/>
			<point x="196" y="457" type="curve" smooth="yes"/>
			<point x="218" y="457"/>
			<point x="236" y="445"/>
			<point x="248" y="394" type="curve" smooth="yes"/>
			<point x="288" y="229" type="line"/>
			<point x="288" y="228" type="line"/>
			<point x="319" y="99" type="line" smooth="yes"/>
			<point x="339" y="15"/>
			<point x="354" y="-13"/>
		</contour>
		<contour>
			<point x="8" y="54" type="curve"/>
			<point x="18" y="14"/>
			<point x="48" y="-13"/>
			<point x="82" y="-13" type="curve" smooth="yes"/>
			<point x="107" y="-13"/>
			<point x="137" y="-3"/>
			<point x="162" y="28" type="curve" smooth="yes"/>
			<point x="208" y="85"/>
			<point x="251" y="156"/>
			<point x="303" y="243" type="curve"/>
			<point x="294" y="259" type="line"/>
			<point x="255" y="202"/>
			<point x="194" y="100"/>
			<point x="147" y="42" type="curve" smooth="yes"/>
			<point x="126" y="16"/>
			<point x="104" y="7"/>
			<point x="74" y="4" type="curve"/>
			<point x="74" y="-3" type="line"/>
			<point x="85" y="-3" type="line"/>
			<point x="47" y="65" type="line" smooth="yes"/>
			<point x="42" y="74"/>
			<point x="36" y="77"/>
			<point x="27" y="77" type="curve" smooth="yes"/>
			<point x="16" y="77"/>
			<point x="8" y="69"/>
		</contour>
		<contour>
			<point x="303" y="240" type="line"/>
			<point x="342" y="297"/>
			<point x="388" y="372"/>
			<point x="436" y="426" type="curve" smooth="yes"/>
			<point x="458" y="449"/>
			<point x="484" y="464"/>
			<point x="506" y="465" type="curve"/>
			<point x="506" y="473" type="line"/>
			<point x="493" y="473" type="line"/>
			<point x="522" y="421" type="line" smooth="yes"/>
			<point x="527" y="412"/>
			<point x="535" y="409"/>
			<point x="542" y="409" type="curve" smooth="yes"/>
			<point x="557" y="409"/>
			<point x="565" y="421"/>
			<point x="565" y="432" type="curve"/>
			<point x="557" y="464"/>
			<point x="533" y="483"/>
			<point x="504" y="483" type="curve" smooth="yes"/>
			<point x="477" y="483"/>
			<point x="447" y="469"/>
			<point x="421" y="440" type="curve" smooth="yes"/>
			<point x="390" y="406"/>
			<point x="346" y="343"/>
			<point x="294" y="256" type="curve"/>
		</contour>
	</outline>
	<anchor name="aboveLC" x="344" y="490"/>
	<anchor name="belowLC" x="248" y="-20"/>
</glyph>
<glyph name="braceleft" format="2">
	<unicode hex="007B"/>
	<advance width="348"/>
	<outline>
		<contour>
			<point x="39" y="268" type="line"/>
			<point x="121" y="261"/>
			<point x="152" y="233"/>
			<point x="152" y="191" type="curve" smooth="yes"/>
			<point x="152" y="144"/>
			<point x="80" y="29"/>
			<point x="80" y="-70" type="curve" smooth="yes"/>
			<point x="80" y="-127"/>
			<point x="114" y="-159"/>
			<point x="203" y="-159" type="curve" smooth="yes"/>
			<point x="248" y="-159" type="line"/>
			<point x="253" y="-137" type="line"/>
			<point x="206" y="-135" type="line" smooth="yes"/>
			<point x="133" y="-132"/>
			<point x="108" y="-108"/>
			<point x="108" y="-62" type="curve" smooth="yes"/>
			<point x="108" y="36"/>
			<point x="172" y="138"/>
			<point x="172" y="196" type="curve" smooth="yes"/>
			<point x="172" y="241"/>
			<point x="144" y="277"/>
			<point x="57" y="281" type="curve"/>
			<point x="55" y="275" type="line"/>
			<point x="180" y="281"/>
			<point x="220" y="352"/>
			<point x="220" y="419" type="curve" smooth="yes"/>
			<point x="220" y="453"/>
			<point x="212" y="489"/>
			<point x="212" y="531" type="curve" smooth="yes"/>
			<point x="212" y="639"/>
			<point x="243" y="684"/>
			<point x="370" y="691" type="curve" smooth="yes"/>
			<point x="407" y="693" type="line"/>
			<point x="412" y="715" type="line"/>
			<point x="377" y="715" type="line" smooth="yes"/>
			<point x="236" y="715"/>
			<point x="186" y="648"/>
			<point x="186" y="539" type="curve" smooth="yes"/>
			<point x="186" y="489"/>
			<point x="198" y="440"/>
			<point x="198" y="406" type="curve" smooth="yes"/>
			<point x="198" y="342"/>
			<point x="151" y="297"/>
			<point x="43" y="288" type="curve"/>
		</contour>
	</outline>
</glyph>
<glyph name="asciitilde" format="2">
	<unicode hex="007E"/>
	<advance width="530"/>
	<outline>
		<contour>
			<point x="297" y="349" type="curve" smooth="yes"/>
			<point x="267" y="379"/>
			<point x="237" y="402"/>
			<point x="195" y="402" type="curve" smooth="yes"/>
			<point x="137" y="402"/>
			<point x="99" y="359"/>
			<point x="94" y="297" type="curve"/>
			<point x="114" y="294" type="line"/>
			<point x="122" y="355"/>
			<point x="151" y="380"/>
			<point x="195" y="380" type="curve" smooth="yes"/>
			<point x="229" y="380"/>
			<point x="247" y="367"/>
			<point x="275" y="338" type="curve" smooth="yes"/>
			<point x="307" y="304"/>
			<point x="334" y="287"/>
			<point x="376" y="287" type="curve" smooth="yes"/>
			<point x="434" y="287"/>
			<point x="471" y="332"/>
			<point x="476" y="392" type="curve"/>
			<point x="456" y="395" type="line"/>
			<point x="448" y="336"/>
			<point x="420" y="309"/>
			<point x="377" y="309" type="curve" smooth="yes"/>
			<point x="345" y="309"/>
			<point x="324" y="321"/>
		</contour>
	</outline>
</glyph>
<glyph name="currency" format="2">
	<unicode hex="00A4"/>
	<advance width="510"/>
	<outline>
		<contour>
			<point x="399" y="438" type="line"/>
			<point x="446" y="475" type="line" smooth="yes"/>
			<point x="480" y="499"/>
			<point x="503" y="516"/>
			<point x="503" y="533" type="curve" smooth="yes"/>
			<point x="503" y="543"/>
			<point x="494" y="552"/>
			<point x="484" y="552" type="curve" smooth="yes"/>
			<point x="467" y="552"/>
			<point x="449" y="528"/>
			<point x="425" y="495" type="curve" smooth="yes"/>
			<point x="389" y="448" type="line"/>
		</contour>
		<contour>
			<point x="145" y="336" type="curve" smooth="yes"/>
			<point x="145" y="419"/>
			<point x="209" y="478"/>
			<point x="287" y="478" type="curve" smooth="yes"/>
			<point x="364" y="478"/>
			<point x="427" y="419"/>
			<point x="427" y="336" type="curve" smooth="yes"/>
			<point x="427" y="256"/>
			<point x="365" y="194"/>
			<point x="287" y="194" type="curve" smooth="yes"/>
			<point x="211" y="194"/>
			<point x="145" y="252"/>
		</contour>
		<contour>
			<point x="122" y="336" type="curve" smooth="yes"/>
			<point x="122" y="239"/>
			<point x="198" y="174"/>
			<point x="287" y="174" type="curve" smooth="yes"/>
			<point x="375" y="174"/>
			<point x="451" y="239"/>
			<point x="451" y="336" type="curve" smooth="yes"/>
			<point x="451" y="433"/>
			<point x="375" y="498"/>
			<point x="287" y="498" type="curve" smooth="yes"/>
			<point x="198" y="498"/>
			<point x="122" y="433"/>
		</contour>
		<contour>
			<point x="184" y="449" type="line"/>
			<point x="147" y="496" type="line" smooth="yes"/>
			<point x="123" y="530"/>
			<point x="106" y="553"/>
			<point x="89" y="553" type="curve" smooth="yes"/>
			<point x="79" y="553"/>
			<point x="70" y="544"/>
			<point x="70" y="534" type="curve" smooth="yes"/>
			<point x="70" y="517"/>
			<point x="94" y="499"/>
			<point x="127" y="475" type="curve" smooth="yes"/>
			<point x="174" y="439" type="line"/>
		</contour>
		<contour>
			<point x="173" y="234" type="line"/>
			<point x="126" y="197" type="line" smooth="yes"/>
			<point x="92" y="173"/>
			<point x="69" y="156"/>
			<point x="69" y="139" type="curve" smooth="yes"/>
			<point x="69" y="129"/>
			<point x="78" y="120"/>
			<point x="88" y="120" type="curve" smooth="yes"/>
			<point x="105" y="120"/>
			<point x="123" y="144"/>
			<point x="147" y="177" type="curve" smooth="yes"/>
			<point x="183" y="224" type="line"/>
		</contour>
		<contour>
			<point x="388" y="223" type="line"/>
			<point x="425" y="176" type="line" smooth="yes"/>
			<point x="449" y="142"/>
			<point x="466" y="119"/>
			<point x="483" y="119" type="curve" smooth="yes"/>
			<point x="493" y="119"/>
			<point x="502" y="128"/>
			<point x="502" y="138" type="curve" smooth="yes"/>
			<point x="502" y="155"/>
			<point x="478" y="173"/>
			<point x="445" y="197" type="curve" smooth="yes"/>
			<point x="398" y="233" type="line"/>
		</contour>
	</outline>
</glyph>
<glyph name="yen" format="2">
	<unicode hex="00A5"/>
	<advance width="510"/>
	<outline>
		<contour>
			<point x="263" y="241" type="line"/>
			<point x="272" y="244" type="line"/>
			<point x="537" y="654" type="line"/>
			<point x="511" y="654" type="line"/>
			<point x="265" y="269" type="line"/>
			<point x="280" y="273" type="line"/>
			<point x="189" y="654" type="line"/>
			<point x="164" y="654" type="line"/>
		</contour>
		<contour>
			<point x="94" y="0" type="line"/>
			<point x="338" y="0" type="line"/>
			<point x="343" y="20" type="line"/>
			<point x="229" y="27" type="line"/>
			<point x="215" y="27" type="line"/>
			<point x="99" y="20" type="line"/>
		</contour>
		<contour>
			<point x="103" y="634" type="line"/>
			<point x="177" y="627" type="line"/>
			<point x="191" y="627" type="line"/>
			<point x="297" y="634" type="line"/>
			<point x="302" y="654" type="line"/>
			<point x="108" y="654" type="line"/>
		</contour>
		<contour>
			<point x="398" y="634" type="line"/>
			<point x="501" y="627" type="line"/>
			<point x="515" y="627" type="line"/>
			<point x="587" y="634" type="line"/>
			<point x="592" y="654" type="line"/>
			<point x="403" y="654" type="line"/>
		</contour>
		<contour>
			<point x="62" y="141" type="line"/>
			<point x="421" y="141" type="line"/>
			<point x="426" y="165" type="line"/>
			<point x="67" y="165" type="line"/>
		</contour>
		<contour>
			<point x="87" y="260" type="line"/>
			<point x="446" y="260" type="line"/>
			<point x="451" y="284" type="line"/>
			<point x="92" y="284" type="line"/>
		</contour>
		<contour>
			<point x="203" y="0" type="line"/>
			<point x="231" y="0" type="line"/>
			<point x="248" y="93"/>
			<point x="254" y="121"/>
			<point x="286" y="278" type="curve"/>
			<point x="260" y="278" type="line"/>
		</contour>
	</outline>
</glyph>
<glyph name="brokenbar" format="2">
	<unicode hex="00A6"/>
	<advance width="280"/>
	<outline>
		<contour>
			<point x="144" y="-250" type="line"/>
			<point x="170" y="-250" type="line"/>
			<point x="170" y="200" type="line"/>
			<point x="144" y="200" type="line"/>
		</contour>
		<contour>
			<point x="170" y="320" type="line"/>
			<point x="170" y="750" type="line"/>
			<point x="144" y="750" type="line"/>
			<point x="144" y="320" type="line"/>
		</contour>
	</outline>
</glyph>
<glyph name="section" format="2">
	<unicode hex="00A7"/>
	<advance width="464"/>
	<outline>
		<contour>
			<point x="174" y="-108" type="curve" smooth="yes"/>
			<point x="258" y="-108"/>
			<point x="324" y="-62"/>
			<point x="324" y="15" type="curve" smooth="yes"/>
			<point x="324" y="67"/>
			<point x="303" y="100"/>
			<point x="243" y="143" type="curve" smooth="yes"/>
			<point x="200" y="174" type="line" smooth="yes"/>
			<point x="142" y="216"/>
			<point x="121" y="241"/>
			<point x="121" y="295" type="curve" smooth="yes"/>
			<point x="121" y="375"/>
			<point x="188" y="432"/>
			<point x="311" y="437" type="curve"/>
			<point x="305" y="459" type="line"/>
			<point x="305" y="452" type="line"/>
			<point x="182" y="450"/>
			<point x="97" y="388"/>
			<point x="97" y="292" type="curve" smooth="yes"/>
			<point x="97" y="237"/>
			<point x="127" y="198"/>
			<point x="184" y="156" type="curve" smooth="yes"/>
			<point x="217" y="132" type="line" smooth="yes"/>
			<point x="277" y="89"/>
			<point x="299" y="57"/>
			<point x="299" y="13" type="curve" smooth="yes"/>
			<point x="299" y="-43"/>
			<point x="251" y="-88"/>
			<point x="174" y="-88" type="curve" smooth="yes"/>
			<point x="140" y="-88"/>
			<point x="117" y="-83"/>
			<point x="92" y="-66" type="curve"/>
			<point x="113" y="-88" type="line"/>
			<point x="89" y="-18" type="line" smooth="yes"/>
			<point x="85" y="-6"/>
			<point x="78" y="-2"/>
			<point x="67" y="-2" type="curve" smooth="yes"/>
			<point x="57" y="-2"/>
			<point x="50" y="-11"/>
			<point x="48" y="-22" type="curve"/>
			<point x="67" y="-85"/>
			<point x="103" y="-108"/>
		</contour>
		<contour>
			<point x="355" y="689" type="curve" smooth="yes"/>
			<point x="272" y="689"/>
			<point x="214" y="641"/>
			<point x="214" y="567" type="curve" smooth="yes"/>
			<point x="214" y="511"/>
			<point x="247" y="475"/>
			<point x="296" y="441" type="curve" smooth="yes"/>
			<point x="338" y="412" type="line" smooth="yes"/>
			<point x="397" y="371"/>
			<point x="419" y="331"/>
			<point x="419" y="287" type="curve" smooth="yes"/>
			<point x="419" y="210"/>
			<point x="344" y="152"/>
			<point x="223" y="147" type="curve"/>
			<point x="234" y="126" type="line"/>
			<point x="234" y="132" type="line"/>
			<point x="352" y="135"/>
			<point x="443" y="191"/>
			<point x="443" y="292" type="curve" smooth="yes"/>
			<point x="443" y="342"/>
			<point x="421" y="382"/>
			<point x="349" y="433" type="curve" smooth="yes"/>
			<point x="314" y="458" type="line" smooth="yes"/>
			<point x="261" y="496"/>
			<point x="239" y="518"/>
			<point x="239" y="570" type="curve" smooth="yes"/>
			<point x="239" y="627"/>
			<point x="281" y="669"/>
			<point x="360" y="669" type="curve" smooth="yes"/>
			<point x="382" y="669"/>
			<point x="406" y="662"/>
			<point x="424" y="651" type="curve"/>
			<point x="397" y="678" type="line"/>
			<point x="424" y="620" type="line" smooth="yes"/>
			<point x="431" y="605"/>
			<point x="440" y="602"/>
			<point x="449" y="602" type="curve" smooth="yes"/>
			<point x="458" y="602"/>
			<point x="468" y="610"/>
			<point x="468" y="619" type="curve"/>
			<point x="457" y="657"/>
			<point x="416" y="689"/>
		</contour>
	</outline>
</glyph>
<glyph name="logicalnot" format="2">
	<unicode hex="00AC"/>
	<advance width="530"/>
	<outline>
		<contour>
			<point x="64" y="360" type="line"/>
			<point x="481" y="360" type="line"/>
			<point x="478" y="363" type="line"/>
			<point x="478" y="175" type="line"/>
			<point x="502" y="175" type="line"/>
			<point x="502" y="382" type="line"/>
			<point x="64" y="382" type="line"/>
		</contour>
	</outline>
</glyph>
<glyph name="registered" format="2">
	<unicode hex="00AE"/>
	<advance width="458"/>
	<outline>
		<contour>
			<point x="395" y="419" type="curve"/>
			<point x="398" y="431" type="line"/>
			<point x="360" y="433" type="line"/>
			<point x="372" y="423" type="line"/>
			<point x="351" y="482" type="line" smooth="yes"/>
			<point x="343" y="504"/>
			<point x="335" y="513"/>
			<point x="312" y="516" type="curve"/>
			<point x="314" y="514" type="line"/>
			<point x="358" y="517"/>
			<point x="383" y="541"/>
			<point x="383" y="572" type="curve" smooth="yes"/>
			<point x="383" y="604"/>
			<point x="357" y="622"/>
			<point x="319" y="622" type="curve" smooth="yes"/>
			<point x="285" y="622" type="line"/>
			<point x="283" y="610" type="line"/>
			<point x="315" y="610" type="line" smooth="yes"/>
			<point x="349" y="610"/>
			<point x="360" y="594"/>
			<point x="360" y="572" type="curve" smooth="yes"/>
			<point x="360" y="546"/>
			<point x="341" y="522"/>
			<point x="301" y="522" type="curve" smooth="yes"/>
			<point x="266" y="522" type="line"/>
			<point x="264" y="510" type="line"/>
			<point x="294" y="510" type="line" smooth="yes"/>
			<point x="311" y="510"/>
			<point x="319" y="501"/>
			<point x="327" y="479" type="curve" smooth="yes"/>
			<point x="343" y="433" type="line" smooth="yes"/>
			<point x="347" y="422"/>
			<point x="351" y="418"/>
			<point x="371" y="418" type="curve" smooth="yes"/>
			<point x="381" y="418"/>
			<point x="386" y="418"/>
		</contour>
		<contour>
			<point x="208" y="419" type="line"/>
			<point x="286" y="419" type="line"/>
			<point x="289" y="431" type="line"/>
			<point x="252" y="433" type="line"/>
			<point x="248" y="433" type="line"/>
			<point x="211" y="431" type="line"/>
		</contour>
		<contour>
			<point x="244" y="610" type="line"/>
			<point x="280" y="608" type="line"/>
			<point x="283" y="613" type="line"/>
			<point x="285" y="622" type="line"/>
			<point x="246" y="622" type="line"/>
		</contour>
		<contour>
			<point x="282" y="318" type="curve" smooth="yes"/>
			<point x="396" y="318"/>
			<point x="498" y="400"/>
			<point x="498" y="538" type="curve" smooth="yes"/>
			<point x="498" y="648"/>
			<point x="423" y="712"/>
			<point x="323" y="712" type="curve" smooth="yes"/>
			<point x="208" y="712"/>
			<point x="106" y="630"/>
			<point x="106" y="492" type="curve" smooth="yes"/>
			<point x="106" y="381"/>
			<point x="180" y="318"/>
		</contour>
		<contour>
			<point x="284" y="338" type="curve" smooth="yes"/>
			<point x="193" y="338"/>
			<point x="128" y="396"/>
			<point x="128" y="495" type="curve" smooth="yes"/>
			<point x="128" y="617"/>
			<point x="219" y="692"/>
			<point x="320" y="692" type="curve" smooth="yes"/>
			<point x="411" y="692"/>
			<point x="476" y="634"/>
			<point x="476" y="535" type="curve" smooth="yes"/>
			<point x="476" y="412"/>
			<point x="385" y="338"/>
		</contour>
		<contour>
			<point x="235" y="419" type="line"/>
			<point x="259" y="419" type="line"/>
			<point x="297" y="622" type="line"/>
			<point x="273" y="622" type="line"/>
		</contour>
	</outline>
</glyph>
<glyph name="degree" format="2">
	<unicode hex="00B0"/>
	<advance width="313"/>
	<outline>
		<contour>
			<point x="242" y="482" type="curve" smooth="yes"/>
			<point x="194" y="482"/>
			<point x="154" y="518"/>
			<point x="154" y="575" type="curve" smooth="yes"/>
			<point x="154" y="632"/>
			<point x="194" y="668"/>
			<point x="242" y="668" type="curve" smooth="yes"/>
			<point x="291" y="668"/>
			<point x="330" y="632"/>
			<point x="330" y="575" type="curve" smooth="yes"/>
			<point x="330" y="518"/>
			<point x="291" y="482"/>
		</contour>
		<contour>
			<point x="242" y="460" type="curve" smooth="yes"/>
			<point x="302" y="460"/>
			<point x="355" y="505"/>
			<point x="355" y="575" type="curve" smooth="yes"/>
			<point x="355" y="643"/>
			<point x="302" y="690"/>
			<point x="242" y="690" type="curve" smooth="yes"/>
			<point x="181" y="690"/>
			<point x="129" y="643"/>
			<point x="129" y="575" type="curve" smooth="yes"/>
			<point x="129" y="505"/>
			<point x="181" y="460"/>
		</contour>
	</outline>
</glyph>
<glyph name="plusminus" format="2">
	<unicode hex="00B1"/>
	<advance width="530"/>
	<outline>
		<contour>
			<point x="250" y="103" type="line"/>
			<point x="274" y="103" type="line"/>
			<point x="274" y="564" type="line"/>
			<point x="250" y="564" type="line"/>
		</contour>
		<contour>
			<point x="482" y="325" type="line"/>
			<point x="482" y="347" type="line"/>
			<point x="42" y="347" type="line"/>
			<point x="42" y="325" type="line"/>
		</contour>
		<contour>
			<point x="482" y="0" type="line"/>
			<point x="482" y="22" type="line"/>
			<point x="42" y="22" type="line"/>
			<point x="42" y="0" type="line"/>
		</contour>
	</outline>
</glyph>
<glyph name="two.sups" format="2">
	<unicode hex="00B2"/>
	<advance width="326"/>
	<outline>
		<contour>
			<point x="101" y="430" type="line"/>
			<point x="337" y="430" type="line"/>
			<point x="343" y="457" type="line"/>
			<point x="125" y="457" type="line"/>
			<point x="128" y="452" type="line"/>
			<point x="338" y="638"/>
			<point x="380" y="678"/>
			<point x="380" y="742" type="curve" smooth="yes"/>
			<point x="380" y="795"/>
			<point x="344" y="832"/>
			<point x="276" y="832" type="curve" smooth="yes"/>
			<point x="214" y="832"/>
			<point x="164" y="799"/>
			<point x="156" y="723" type="curve"/>
			<point x="158" y="715"/>
			<point x="165" y="709"/>
			<point x="173" y="709" type="curve" smooth="yes"/>
			<point x="184" y="709"/>
			<point x="192" y="717"/>
			<point x="193" y="739" type="curve" smooth="yes"/>
			<point x="194" y="795" type="line"/>
			<point x="183" y="760" type="line"/>
			<point x="197" y="798"/>
			<point x="234" y="815"/>
			<point x="269" y="815" type="curve" smooth="yes"/>
			<point x="323" y="815"/>
			<point x="352" y="784"/>
			<point x="352" y="738" type="curve" smooth="yes"/>
			<point x="352" y="684"/>
			<point x="322" y="647"/>
			<point x="105" y="452" type="curve"/>
		</contour>
	</outline>
</glyph>
<glyph name="three.sups" format="2">
	<unicode hex="00B3"/>
	<advance width="326"/>
	<outline>
		<contour>
			<point x="222" y="421" type="curve" smooth="yes"/>
			<point x="293" y="421"/>
			<point x="357" y="458"/>
			<point x="357" y="540" type="curve" smooth="yes"/>
			<point x="357" y="592"/>
			<point x="322" y="629"/>
			<point x="260" y="633" type="curve"/>
			<point x="259" y="629" type="line"/>
			<point x="324" y="636"/>
			<point x="378" y="682"/>
			<point x="378" y="742" type="curve" smooth="yes"/>
			<point x="378" y="793"/>
			<point x="347" y="832"/>
			<point x="281" y="832" type="curve" smooth="yes"/>
			<point x="221" y="832"/>
			<point x="180" y="805"/>
			<point x="165" y="745" type="curve"/>
			<point x="165" y="733"/>
			<point x="173" y="727"/>
			<point x="181" y="727" type="curve" smooth="yes"/>
			<point x="192" y="727"/>
			<point x="198" y="734"/>
			<point x="200" y="748" type="curve" smooth="yes"/>
			<point x="208" y="801" type="line"/>
			<point x="193" y="774" type="line"/>
			<point x="212" y="801"/>
			<point x="244" y="815"/>
			<point x="277" y="815" type="curve" smooth="yes"/>
			<point x="326" y="815"/>
			<point x="351" y="786"/>
			<point x="351" y="740" type="curve" smooth="yes"/>
			<point x="351" y="675"/>
			<point x="293" y="640"/>
			<point x="218" y="640" type="curve"/>
			<point x="214" y="623" type="line"/>
			<point x="294" y="623"/>
			<point x="327" y="595"/>
			<point x="327" y="541" type="curve" smooth="yes"/>
			<point x="327" y="472"/>
			<point x="281" y="438"/>
			<point x="224" y="438" type="curve" smooth="yes"/>
			<point x="189" y="438"/>
			<point x="159" y="448"/>
			<point x="139" y="481" type="curve"/>
			<point x="149" y="459" type="line"/>
			<point x="150" y="515" type="line" smooth="yes"/>
			<point x="150" y="528"/>
			<point x="146" y="536"/>
			<point x="134" y="536" type="curve" smooth="yes"/>
			<point x="127" y="536"/>
			<point x="121" y="533"/>
			<point x="118" y="525" type="curve"/>
			<point x="116" y="451"/>
			<point x="162" y="421"/>
		</contour>
	</outline>
</glyph>
<glyph name="paragraph" format="2">
	<unicode hex="00B6"/>
	<advance width="602"/>
	<outline>
		<contour>
			<point x="546" y="676" type="line"/>
			<point x="541" y="649" type="line"/>
			<point x="548" y="649" type="line"/>
			<point x="667" y="656" type="line"/>
			<point x="670" y="676" type="line"/>
		</contour>
		<contour>
			<point x="386" y="-130" type="line"/>
			<point x="414" y="-130" type="line"/>
			<point x="431" y="-28"/>
			<point x="450" y="76"/>
			<point x="469" y="180" type="curve" smooth="yes"/>
			<point x="561" y="676" type="line"/>
			<point x="535" y="676" type="line"/>
		</contour>
		<contour>
			<point x="458" y="652" type="line"/>
			<point x="542" y="652" type="line"/>
			<point x="546" y="676" type="line"/>
			<point x="485" y="676" type="line" smooth="yes"/>
			<point x="247" y="676"/>
			<point x="134" y="569"/>
			<point x="134" y="414" type="curve" smooth="yes"/>
			<point x="134" y="262"/>
			<point x="236" y="193"/>
			<point x="370" y="178" type="curve"/>
		</contour>
	</outline>
</glyph>
<glyph name="one.sups" format="2">
	<unicode hex="00B9"/>
	<advance width="326"/>
	<outline>
		<contour>
			<point x="121" y="437" type="line"/>
			<point x="330" y="437" type="line"/>
			<point x="333" y="452" type="line"/>
			<point x="238" y="458" type="line"/>
			<point x="219" y="458" type="line"/>
			<point x="124" y="452" type="line"/>
		</contour>
		<contour>
			<point x="211" y="437" type="line"/>
			<point x="236" y="437" type="line"/>
			<point x="299" y="744" type="line"/>
			<point x="319" y="832" type="line"/>
			<point x="312" y="839" type="line"/>
			<point x="198" y="809" type="line"/>
			<point x="195" y="792" type="line"/>
			<point x="297" y="810" type="line"/>
			<point x="289" y="820" type="line"/>
		</contour>
	</outline>
</glyph>
<glyph name="AE" format="2">
	<unicode hex="00C6"/>
	<advance width="893"/>
	<outline>
		<contour>
			<point x="-27" y="0" type="line"/>
			<point x="171" y="0" type="line"/>
			<point x="175" y="20" type="line"/>
			<point x="79" y="26" type="line"/>
			<point x="65" y="26" type="line"/>
			<point x="-23" y="20" type="line"/>
		</contour>
		<contour>
			<point x="42" y="0" type="line"/>
			<point x="73" y="0" type="line"/>
			<point x="565" y="677" type="line"/>
			<point x="539" y="677" type="line"/>
		</contour>
		<contour>
			<point x="245" y="247" type="line"/>
			<point x="500" y="247" type="line"/>
			<point x="504" y="267" type="line"/>
			<point x="257" y="267" type="line"/>
		</contour>
		<contour>
			<point x="334" y="0" type="line"/>
			<point x="452" y="0" type="line"/>
			<point x="457" y="27" type="line"/>
			<point x="450" y="27" type="line"/>
			<point x="338" y="20" type="line"/>
		</contour>
		<contour>
			<point x="428" y="657" type="line"/>
			<point x="558" y="650" type="line"/>
			<point x="575" y="650" type="line"/>
			<point x="580" y="677" type="line"/>
			<point x="432" y="677" type="line"/>
		</contour>
		<contour>
			<point x="438" y="0" type="line"/>
			<point x="472" y="0" type="line"/>
			<point x="488" y="104"/>
			<point x="507" y="209"/>
			<point x="526" y="313" type="curve" smooth="yes"/>
			<point x="594" y="677" type="line"/>
			<point x="561" y="677" type="line"/>
			<point x="544" y="573"/>
			<point x="527" y="468"/>
			<point x="507" y="364" type="curve" smooth="yes"/>
		</contour>
		<contour>
			<point x="452" y="0" type="line"/>
			<point x="816" y="0" type="line"/>
			<point x="855" y="153" type="line"/>
			<point x="831" y="153" type="line"/>
			<point x="783" y="0" type="line"/>
			<point x="801" y="22" type="line"/>
			<point x="456" y="22" type="line"/>
		</contour>
		<contour>
			<point x="515" y="331" type="line"/>
			<point x="736" y="331" type="line"/>
			<point x="740" y="353" type="line"/>
			<point x="519" y="353" type="line"/>
		</contour>
		<contour>
			<point x="576" y="655" type="line"/>
			<point x="887" y="655" type="line"/>
			<point x="877" y="677" type="line"/>
			<point x="867" y="524" type="line"/>
			<point x="891" y="524" type="line"/>
			<point x="910" y="677" type="line"/>
			<point x="580" y="677" type="line"/>
		</contour>
		<contour>
			<point x="718" y="234" type="line"/>
			<point x="737" y="234" type="line"/>
			<point x="778" y="450" type="line"/>
			<point x="759" y="450" type="line"/>
			<point x="731" y="352" type="line"/>
			<point x="727" y="332" type="line"/>
		</contour>
	</outline>
	<anchor name="aboveUC" x="677" y="694"/>
</glyph>
<glyph name="multiply" format="2">
	<unicode hex="00D7"/>
	<advance width="530"/>
	<outline>
		<contour>
			<point x="475" y="142" type="line"/>
			<point x="491" y="158" type="line"/>
			<point x="118" y="531" type="line"/>
			<point x="102" y="515" type="line"/>
		</contour>
		<contour>
			<point x="491" y="514" type="line"/>
			<point x="475" y="530" type="line"/>
			<point x="102" y="157" type="line"/>
			<point x="118" y="141" type="line"/>
		</contour>
	</outline>
</glyph>
<glyph name="Oslash" format="2">
	<unicode hex="00D8"/>
	<advance width="654"/>
	<outline>
		<contour>
			<point x="699" y="678" type="line"/>
			<point x="683" y="694" type="line"/>
			<point x="8" y="1" type="line"/>
			<point x="24" y="-15" type="line"/>
		</contour>
		<contour>
			<point x="303" y="-13" type="curve" smooth="yes"/>
			<point x="494" y="-13"/>
			<point x="644" y="169"/>
			<point x="644" y="418" type="curve" smooth="yes"/>
			<point x="644" y="573"/>
			<point x="569" y="689"/>
			<point x="405" y="689" type="curve" smooth="yes"/>
			<point x="219" y="689"/>
			<point x="64" y="502"/>
			<point x="64" y="259" type="curve" smooth="yes"/>
			<point x="64" y="104"/>
			<point x="146" y="-13"/>
		</contour>
		<contour>
			<point x="307" y="9" type="curve" smooth="yes"/>
			<point x="161" y="9"/>
			<point x="95" y="101"/>
			<point x="95" y="271" type="curve" smooth="yes"/>
			<point x="95" y="477"/>
			<point x="227" y="667"/>
			<point x="401" y="667" type="curve" smooth="yes"/>
			<point x="549" y="667"/>
			<point x="612" y="582"/>
			<point x="612" y="405" type="curve" smooth="yes"/>
			<point x="612" y="183"/>
			<point x="477" y="9"/>
		</contour>
	</outline>
	<anchor name="aboveUC" x="401" y="696"/>
</glyph>
<glyph name="Thorn" format="2">
	<unicode hex="00DE"/>
	<advance width="560"/>
	<outline>
		<contour>
			<point x="168" y="163" type="line"/>
			<point x="294" y="163" type="line" smooth="yes"/>
			<point x="466" y="163"/>
			<point x="558" y="253"/>
			<point x="558" y="374" type="curve" smooth="yes"/>
			<point x="558" y="474"/>
			<point x="487" y="535"/>
			<point x="340" y="535" type="curve" smooth="yes"/>
			<point x="242" y="535" type="line"/>
			<point x="238" y="513" type="line"/>
			<point x="331" y="513" type="line" smooth="yes"/>
			<point x="468" y="513"/>
			<point x="528" y="464"/>
			<point x="528" y="375" type="curve" smooth="yes"/>
			<point x="528" y="266"/>
			<point x="461" y="183"/>
			<point x="286" y="183" type="curve" smooth="yes"/>
			<point x="172" y="183" type="line"/>
		</contour>
		<contour>
			<point x="12" y="0" type="line"/>
			<point x="260" y="0" type="line"/>
			<point x="264" y="20" type="line"/>
			<point x="143" y="27" type="line"/>
			<point x="129" y="27" type="line"/>
			<point x="16" y="20" type="line"/>
		</contour>
		<contour>
			<point x="116" y="0" type="line"/>
			<point x="150" y="0" type="line"/>
			<point x="166" y="104"/>
			<point x="185" y="209"/>
			<point x="204" y="313" type="curve" smooth="yes"/>
			<point x="272" y="676" type="line"/>
			<point x="239" y="676" type="line"/>
			<point x="222" y="572"/>
			<point x="205" y="468"/>
			<point x="185" y="364" type="curve" smooth="yes"/>
		</contour>
		<contour>
			<point x="126" y="656" type="line"/>
			<point x="247" y="649" type="line"/>
			<point x="261" y="649" type="line"/>
			<point x="374" y="656" type="line"/>
			<point x="378" y="676" type="line"/>
			<point x="130" y="676" type="line"/>
		</contour>
	</outline>
</glyph>
<glyph name="ae" format="2">
	<unicode hex="00E6"/>
	<advance width="680"/>
	<outline>
		<contour>
			<point x="160" y="-13" type="curve" smooth="yes"/>
			<point x="232" y="-13"/>
			<point x="297" y="41"/>
			<point x="354" y="115" type="curve"/>
			<point x="362" y="115" type="line"/>
			<point x="349" y="129" type="line"/>
			<point x="288" y="56"/>
			<point x="231" y="12"/>
			<point x="167" y="12" type="curve" smooth="yes"/>
			<point x="121" y="12"/>
			<point x="88" y="42"/>
			<point x="88" y="123" type="curve" smooth="yes"/>
			<point x="88" y="213"/>
			<point x="132" y="319"/>
			<point x="200" y="387" type="curve" smooth="yes"/>
			<point x="243" y="431"/>
			<point x="297" y="460"/>
			<point x="354" y="460" type="curve" smooth="yes"/>
			<point x="397" y="460"/>
			<point x="435" y="447"/>
			<point x="466" y="414" type="curve"/>
			<point x="477" y="434" type="line"/>
			<point x="452" y="467"/>
			<point x="411" y="483"/>
			<point x="359" y="483" type="curve" smooth="yes"/>
			<point x="211" y="483"/>
			<point x="60" y="282"/>
			<point x="60" y="116" type="curve" smooth="yes"/>
			<point x="60" y="18"/>
			<point x="108" y="-13"/>
		</contour>
		<component base="e" xOffset="272"/>
	</outline>
	<anchor name="aboveLC" x="464" y="490"/>
	<anchor name="belowLC" x="335" y="-20"/>
</glyph>
<glyph name="idieresis" format="2">
	<unicode hex="00EF"/>
	<advance width="286"/>
	<outline>
		<contour>
			<point x="151" y="661" type="curve" smooth="yes"/>
			<point x="166" y="661"/>
			<point x="183" y="674"/>
			<point x="183" y="695" type="curve" smooth="yes"/>
			<point x="183" y="711"/>
			<point x="171" y="720"/>
			<point x="157" y="720" type="curve" smooth="yes"/>
			<point x="142" y="720"/>
			<point x="125" y="707"/>
			<point x="125" y="687" type="curve" smooth="yes"/>
			<point x="125" y="670"/>
			<point x="137" y="661"/>
		</contour>
		<contour>
			<point x="318" y="661" type="curve" smooth="yes"/>
			<point x="333" y="661"/>
			<point x="350" y="674"/>
			<point x="350" y="695" type="curve" smooth="yes"/>
			<point x="350" y="711"/>
			<point x="338" y="720"/>
			<point x="324" y="720" type="curve" smooth="yes"/>
			<point x="309" y="720"/>
			<point x="292" y="707"/>
			<point x="292" y="687" type="curve" smooth="yes"/>
			<point x="292" y="670"/>
			<point x="304" y="661"/>
		</contour>
		<component base="dotlessi"/>
	</outline>
</glyph>
<glyph name="eth" format="2">
	<unicode hex="00F0"/>
	<advance width="468"/>
	<outline>
		<contour>
			<point x="205" y="-13" type="curve" smooth="yes"/>
			<point x="338" y="-13"/>
			<point x="447" y="141"/>
			<point x="447" y="325" type="curve" smooth="yes"/>
			<point x="447" y="535"/>
			<point x="365" y="677"/>
			<point x="221" y="758" type="curve"/>
			<point x="212" y="744" type="line"/>
			<point x="353" y="660"/>
			<point x="426" y="510"/>
			<point x="427" y="350" type="curve"/>
			<point x="438" y="352" type="line"/>
			<point x="422" y="441"/>
			<point x="369" y="483"/>
			<point x="303" y="483" type="curve" smooth="yes"/>
			<point x="163" y="483"/>
			<point x="59" y="311"/>
			<point x="59" y="157" type="curve" smooth="yes"/>
			<point x="59" y="31"/>
			<point x="137" y="-13"/>
		</contour>
		<contour>
			<point x="208" y="7" type="curve" smooth="yes"/>
			<point x="140" y="7"/>
			<point x="86" y="55"/>
			<point x="86" y="162" type="curve" smooth="yes"/>
			<point x="86" y="296"/>
			<point x="175" y="463"/>
			<point x="300" y="463" type="curve" smooth="yes"/>
			<point x="367" y="463"/>
			<point x="423" y="424"/>
			<point x="423" y="318" type="curve" smooth="yes"/>
			<point x="423" y="170"/>
			<point x="326" y="7"/>
		</contour>
		<contour>
			<point x="197" y="554" type="line"/>
			<point x="487" y="726" type="line"/>
			<point x="478" y="740" type="line"/>
			<point x="188" y="568" type="line"/>
		</contour>
	</outline>
</glyph>
<glyph name="thorn" format="2">
	<unicode hex="00FE"/>
	<advance width="509"/>
	<outline>
		<contour>
			<point x="-67" y="-245" type="line"/>
			<point x="156" y="-245" type="line"/>
			<point x="159" y="-225" type="line"/>
			<point x="46" y="-219" type="line"/>
			<point x="37" y="-219" type="line"/>
			<point x="-64" y="-225" type="line"/>
		</contour>
		<contour>
			<point x="21" y="-245" type="line"/>
			<point x="48" y="-245" type="line"/>
			<point x="62" y="-176"/>
			<point x="89" y="-47"/>
			<point x="104" y="22" type="curve" smooth="yes"/>
			<point x="105" y="26" type="line"/>
			<point x="167" y="318" type="line"/>
			<point x="168" y="322" type="line"/>
			<point x="256" y="738" type="line"/>
			<point x="246" y="748" type="line"/>
			<point x="105" y="733" type="line"/>
			<point x="102" y="719" type="line"/>
			<point x="231" y="717" type="line"/>
			<point x="224" y="724" type="line"/>
			<point x="212" y="655"/>
			<point x="200" y="586"/>
			<point x="185" y="517" type="curve" smooth="yes"/>
		</contour>
		<contour>
			<point x="183" y="-13" type="curve" smooth="yes"/>
			<point x="332" y="-13"/>
			<point x="486" y="188"/>
			<point x="486" y="364" type="curve" smooth="yes"/>
			<point x="486" y="452"/>
			<point x="450" y="483"/>
			<point x="396" y="483" type="curve" smooth="yes"/>
			<point x="318" y="483"/>
			<point x="209" y="399"/>
			<point x="146" y="297" type="curve"/>
			<point x="142" y="297" type="line"/>
			<point x="150" y="292" type="line"/>
			<point x="239" y="390"/>
			<point x="318" y="458"/>
			<point x="391" y="458" type="curve" smooth="yes"/>
			<point x="433" y="458"/>
			<point x="458" y="428"/>
			<point x="458" y="356" type="curve" smooth="yes"/>
			<point x="458" y="274"/>
			<point x="425" y="184"/>
			<point x="372" y="116" type="curve" smooth="yes"/>
			<point x="324" y="53"/>
			<point x="259" y="11"/>
			<point x="193" y="11" type="curve" smooth="yes"/>
			<point x="158" y="11"/>
			<point x="126" y="21"/>
			<point x="97" y="48" type="curve"/>
			<point x="90" y="23" type="line"/>
			<point x="115" y="-3"/>
			<point x="151" y="-13"/>
		</contour>
	</outline>
	<anchor name="aboveLC" x="247" y="748"/>
	<anchor name="belowLC" x="301" y="-20"/>
</glyph>
<glyph name="aogonek" format="2">
	<unicode hex="0105"/>
	<advance width="515"/>
	<outline>
		<contour>
			<point x="160" y="-13" type="curve" smooth="yes"/>
			<point x="243" y="-13"/>
			<point x="311" y="75"/>
			<point x="380" y="173" type="curve"/>
			<point x="381" y="173" type="line"/>
			<point x="376" y="181" type="line"/>
			<point x="296" y="83"/>
			<point x="238" y="12"/>
			<point x="167" y="12" type="curve" smooth="yes"/>
			<point x="121" y="12"/>
			<point x="88" y="42"/>
			<point x="88" y="123" type="curve" smooth="yes"/>
			<point x="88" y="213"/>
			<point x="132" y="319"/>
			<point x="200" y="387" type="curve" smooth="yes"/>
			<point x="243" y="431"/>
			<point x="297" y="460"/>
			<point x="354" y="460" type="curve" smooth="yes"/>
			<point x="382" y="460"/>
			<point x="406" y="451"/>
			<point x="426" y="420" type="curve"/>
			<point x="433" y="440" type="line"/>
			<point x="417" y="471"/>
			<point x="392" y="483"/>
			<point x="359" y="483" type="curve" smooth="yes"/>
			<point x="211" y="483"/>
			<point x="60" y="282"/>
			<point x="60" y="116" type="curve" smooth="yes"/>
			<point x="60" y="18"/>
			<point x="108" y="-13"/>
		</contour>
		<contour>
			<point x="374" y="-245" type="curve" smooth="yes"/>
			<point x="409" y="-245"/>
			<point x="443" y="-227"/>
			<point x="473" y="-201" type="curve"/>
			<point x="464" y="-191" type="line"/>
			<point x="439" y="-209"/>
			<point x="406" y="-221"/>
			<point x="381" y="-221" type="curve" smooth="yes"/>
			<point x="345" y="-221"/>
			<point x="328" y="-199"/>
			<point x="328" y="-165" type="curve" smooth="yes"/>
			<point x="328" y="-116"/>
			<point x="382" y="-43"/>
			<point x="446" y="13" type="curve" smooth="yes"/>
			<point x="478" y="41"/>
			<point x="495" y="65"/>
			<point x="513" y="92" type="curve"/>
			<point x="502" y="101" type="line"/>
			<point x="464" y="49"/>
			<point x="422" y="13"/>
			<point x="386" y="13" type="curve" smooth="yes"/>
			<point x="369" y="13"/>
			<point x="356" y="18"/>
			<point x="356" y="35" type="curve" smooth="yes"/>
			<point x="356" y="56"/>
			<point x="363" y="80"/>
			<point x="367" y="99" type="curve" smooth="yes"/>
			<point x="447" y="477" type="line"/>
			<point x="439" y="483" type="line"/>
			<point x="416" y="448" type="line"/>
			<point x="414" y="445" type="line"/>
			<point x="343" y="108" type="line"/>
			<point x="341" y="99" type="line" smooth="yes"/>
			<point x="334" y="68"/>
			<point x="330" y="54"/>
			<point x="330" y="32" type="curve" smooth="yes"/>
			<point x="330" y="4"/>
			<point x="349" y="-13"/>
			<point x="374" y="-13" type="curve" smooth="yes"/>
			<point x="382" y="-13"/>
			<point x="390" y="-13"/>
			<point x="407" y="-5" type="curve"/>
			<point x="400" y="-2" type="line"/>
			<point x="400" y="-9" type="line"/>
			<point x="344" y="-63"/>
			<point x="301" y="-125"/>
			<point x="301" y="-175" type="curve" smooth="yes"/>
			<point x="301" y="-213"/>
			<point x="322" y="-245"/>
		</contour>
	</outline>
	<anchor name="aboveLC" x="342" y="490"/>
	<anchor name="belowLC" x="243" y="-20"/>
</glyph>
<glyph name="dcroat" format="2">
	<unicode hex="0111"/>
	<advance width="543"/>
	<outline>
		<contour>
			<point x="402" y="-13" type="curve" smooth="yes"/>
			<point x="457" y="-13"/>
			<point x="501" y="32"/>
			<point x="543" y="92" type="curve"/>
			<point x="533" y="100" type="line"/>
			<point x="491" y="47"/>
			<point x="450" y="13"/>
			<point x="416" y="13" type="curve" smooth="yes"/>
			<point x="397" y="13"/>
			<point x="387" y="20"/>
			<point x="387" y="40" type="curve" smooth="yes"/>
			<point x="387" y="56"/>
			<point x="391" y="80"/>
			<point x="395" y="99" type="curve" smooth="yes"/>
			<point x="522" y="738" type="line"/>
			<point x="512" y="748" type="line"/>
			<point x="373" y="733" type="line"/>
			<point x="370" y="719" type="line"/>
			<point x="499" y="717" type="line"/>
			<point x="492" y="724" type="line"/>
			<point x="437" y="443" type="line"/>
			<point x="435" y="433" type="line"/>
			<point x="372" y="114" type="line"/>
			<point x="369" y="99" type="line" smooth="yes"/>
			<point x="363" y="68"/>
			<point x="360" y="54"/>
			<point x="360" y="31" type="curve" smooth="yes"/>
			<point x="360" y="2"/>
			<point x="377" y="-13"/>
		</contour>
		<contour>
			<point x="152" y="-13" type="curve" smooth="yes"/>
			<point x="232" y="-13"/>
			<point x="328" y="76"/>
			<point x="397" y="173" type="curve"/>
			<point x="402" y="173" type="line"/>
			<point x="393" y="181" type="line"/>
			<point x="303" y="82"/>
			<point x="232" y="12"/>
			<point x="157" y="12" type="curve" smooth="yes"/>
			<point x="115" y="12"/>
			<point x="90" y="42"/>
			<point x="90" y="114" type="curve" smooth="yes"/>
			<point x="90" y="194"/>
			<point x="126" y="280"/>
			<point x="179" y="347" type="curve" smooth="yes"/>
			<point x="229" y="408"/>
			<point x="295" y="450"/>
			<point x="365" y="450" type="curve" smooth="yes"/>
			<point x="389" y="450"/>
			<point x="417" y="441"/>
			<point x="444" y="417" type="curve"/>
			<point x="451" y="437" type="line"/>
			<point x="428" y="463"/>
			<point x="404" y="473"/>
			<point x="372" y="473" type="curve" smooth="yes"/>
			<point x="222" y="473"/>
			<point x="62" y="277"/>
			<point x="62" y="106" type="curve" smooth="yes"/>
			<point x="62" y="18"/>
			<point x="98" y="-13"/>
		</contour>
		<contour>
			<point x="304" y="584" type="line"/>
			<point x="608" y="584" type="line"/>
			<point x="611" y="601" type="line"/>
			<point x="307" y="601" type="line"/>
		</contour>
	</outline>
</glyph>
<glyph name="eogonek" format="2">
	<unicode hex="0119"/>
	<advance width="408"/>
	<outline>
		<contour>
			<point x="235" y="-245" type="curve" smooth="yes"/>
			<point x="270" y="-245"/>
			<point x="304" y="-227"/>
			<point x="334" y="-201" type="curve"/>
			<point x="325" y="-191" type="line"/>
			<point x="300" y="-209"/>
			<point x="267" y="-221"/>
			<point x="242" y="-221" type="curve" smooth="yes"/>
			<point x="206" y="-221"/>
			<point x="189" y="-199"/>
			<point x="189" y="-165" type="curve" smooth="yes"/>
			<point x="189" y="-116"/>
			<point x="240" y="-44"/>
			<point x="319" y="23" type="curve" smooth="yes"/>
			<point x="340" y="41"/>
			<point x="361" y="64"/>
			<point x="379" y="92" type="curve"/>
			<point x="368" y="100" type="line"/>
			<point x="326" y="43"/>
			<point x="280" y="12"/>
			<point x="222" y="12" type="curve" smooth="yes"/>
			<point x="145" y="12"/>
			<point x="97" y="64"/>
			<point x="97" y="171" type="curve" smooth="yes"/>
			<point x="97" y="309"/>
			<point x="209" y="464"/>
			<point x="321" y="464" type="curve" smooth="yes"/>
			<point x="363" y="464"/>
			<point x="391" y="445"/>
			<point x="391" y="406" type="curve" smooth="yes"/>
			<point x="391" y="316"/>
			<point x="277" y="235"/>
			<point x="82" y="183" type="curve"/>
			<point x="84" y="167" type="line"/>
			<point x="290" y="219"/>
			<point x="415" y="309"/>
			<point x="415" y="408" type="curve" smooth="yes"/>
			<point x="415" y="460"/>
			<point x="375" y="483"/>
			<point x="327" y="483" type="curve" smooth="yes"/>
			<point x="192" y="483"/>
			<point x="71" y="318"/>
			<point x="71" y="162" type="curve" smooth="yes"/>
			<point x="71" y="34"/>
			<point x="140" y="-13"/>
			<point x="212" y="-13" type="curve" smooth="yes"/>
			<point x="234" y="-13"/>
			<point x="254" y="-9"/>
			<point x="267" y="-3" type="curve"/>
			<point x="267" y="-4" type="line"/>
			<point x="208" y="-59"/>
			<point x="162" y="-123"/>
			<point x="162" y="-175" type="curve" smooth="yes"/>
			<point x="162" y="-213"/>
			<point x="183" y="-245"/>
		</contour>
	</outline>
	<anchor name="aboveLC" x="327" y="490"/>
</glyph>
<glyph name="Hbar" format="2">
	<unicode hex="0126"/>
	<advance width="765"/>
	<outline>
		<contour>
			<point x="11" y="0" type="line"/>
			<point x="259" y="0" type="line"/>
			<point x="263" y="20" type="line"/>
			<point x="142" y="27" type="line"/>
			<point x="128" y="27" type="line"/>
			<point x="15" y="20" type="line"/>
		</contour>
		<contour>
			<point x="115" y="0" type="line"/>
			<point x="149" y="0" type="line"/>
			<point x="165" y="104"/>
			<point x="184" y="209"/>
			<point x="203" y="313" type="curve" smooth="yes"/>
			<point x="271" y="677" type="line"/>
			<point x="238" y="677" type="line"/>
			<point x="221" y="573"/>
			<point x="204" y="468"/>
			<point x="184" y="364" type="curve" smooth="yes"/>
		</contour>
		<contour>
			<point x="125" y="657" type="line"/>
			<point x="246" y="650" type="line"/>
			<point x="260" y="650" type="line"/>
			<point x="373" y="657" type="line"/>
			<point x="377" y="677" type="line"/>
			<point x="129" y="677" type="line"/>
		</contour>
		<contour>
			<point x="198" y="335" type="line"/>
			<point x="616" y="335" type="line"/>
			<point x="619" y="357" type="line"/>
			<point x="203" y="357" type="line"/>
		</contour>
		<contour>
			<point x="442" y="0" type="line"/>
			<point x="690" y="0" type="line"/>
			<point x="694" y="20" type="line"/>
			<point x="573" y="27" type="line"/>
			<point x="559" y="27" type="line"/>
			<point x="446" y="20" type="line"/>
		</contour>
		<contour>
			<point x="546" y="0" type="line"/>
			<point x="580" y="0" type="line"/>
			<point x="596" y="104"/>
			<point x="615" y="209"/>
			<point x="634" y="313" type="curve" smooth="yes"/>
			<point x="702" y="677" type="line"/>
			<point x="669" y="677" type="line"/>
			<point x="652" y="573"/>
			<point x="635" y="468"/>
			<point x="615" y="364" type="curve" smooth="yes"/>
		</contour>
		<contour>
			<point x="556" y="657" type="line"/>
			<point x="677" y="650" type="line"/>
			<point x="691" y="650" type="line"/>
			<point x="804" y="657" type="line"/>
			<point x="808" y="677" type="line"/>
			<point x="560" y="677" type="line"/>
		</contour>
		<contour>
			<point x="83" y="498" type="line"/>
			<point x="802" y="498" type="line"/>
			<point x="806" y="520" type="line"/>
			<point x="87" y="520" type="line"/>
		</contour>
	</outline>
</glyph>
<glyph name="hbar" format="2">
	<unicode hex="0127"/>
	<advance width="521"/>
	<outline>
		<contour>
			<point x="376" y="-13" type="curve" smooth="yes"/>
			<point x="431" y="-13"/>
			<point x="475" y="32"/>
			<point x="517" y="92" type="curve"/>
			<point x="507" y="100" type="line"/>
			<point x="465" y="47"/>
			<point x="424" y="13"/>
			<point x="390" y="13" type="curve" smooth="yes"/>
			<point x="371" y="13"/>
			<point x="361" y="20"/>
			<point x="361" y="38" type="curve" smooth="yes"/>
			<point x="361" y="56"/>
			<point x="368" y="80"/>
			<point x="372" y="99" type="curve" smooth="yes"/>
			<point x="424" y="321" type="line" smooth="yes"/>
			<point x="433" y="361"/>
			<point x="441" y="388"/>
			<point x="441" y="419" type="curve" smooth="yes"/>
			<point x="441" y="458"/>
			<point x="420" y="483"/>
			<point x="376" y="483" type="curve" smooth="yes"/>
			<point x="321" y="483"/>
			<point x="221" y="430"/>
			<point x="142" y="344" type="curve"/>
			<point x="135" y="344" type="line"/>
			<point x="140" y="326" type="line"/>
			<point x="250" y="425"/>
			<point x="315" y="458"/>
			<point x="370" y="458" type="curve" smooth="yes"/>
			<point x="398" y="458"/>
			<point x="413" y="445"/>
			<point x="413" y="414" type="curve" smooth="yes"/>
			<point x="413" y="388"/>
			<point x="405" y="356"/>
			<point x="398" y="324" type="curve" smooth="yes"/>
			<point x="346" y="99" type="line" smooth="yes"/>
			<point x="339" y="68"/>
			<point x="334" y="54"/>
			<point x="334" y="28" type="curve" smooth="yes"/>
			<point x="334" y="4"/>
			<point x="352" y="-13"/>
		</contour>
		<contour>
			<point x="66" y="-5" type="line"/>
			<point x="87" y="0" type="line"/>
			<point x="100" y="69"/>
			<point x="114" y="138"/>
			<point x="128" y="207" type="curve" smooth="yes"/>
			<point x="157" y="350" type="line"/>
			<point x="158" y="357" type="line"/>
			<point x="236" y="738" type="line"/>
			<point x="226" y="748" type="line"/>
			<point x="85" y="733" type="line"/>
			<point x="82" y="719" type="line"/>
			<point x="211" y="717" type="line"/>
			<point x="204" y="724" type="line"/>
			<point x="192" y="655"/>
			<point x="179" y="586"/>
			<point x="165" y="517" type="curve" smooth="yes"/>
			<point x="60" y="0" type="line"/>
		</contour>
		<contour>
			<point x="57" y="579" type="line"/>
			<point x="389" y="579" type="line"/>
			<point x="393" y="599" type="line"/>
			<point x="61" y="599" type="line"/>
		</contour>
	</outline>
</glyph>
<glyph name="iogonek" format="2">
	<unicode hex="012F"/>
	<advance width="286"/>
	<outline>
		<contour>
			<point x="141" y="-245" type="curve" smooth="yes"/>
			<point x="169" y="-245"/>
			<point x="196" y="-235"/>
			<point x="222" y="-217" type="curve"/>
			<point x="216" y="-203" type="line"/>
			<point x="193" y="-216"/>
			<point x="168" y="-221"/>
			<point x="148" y="-221" type="curve" smooth="yes"/>
			<point x="112" y="-221"/>
			<point x="95" y="-199"/>
			<point x="95" y="-165" type="curve" smooth="yes"/>
			<point x="95" y="-116"/>
			<point x="137" y="-64"/>
			<point x="226" y="25" type="curve" smooth="yes"/>
			<point x="251" y="50"/>
			<point x="264" y="66"/>
			<point x="282" y="92" type="curve"/>
			<point x="272" y="100" type="line"/>
			<point x="230" y="47"/>
			<point x="189" y="13"/>
			<point x="155" y="13" type="curve" smooth="yes"/>
			<point x="136" y="13"/>
			<point x="126" y="20"/>
			<point x="126" y="38" type="curve" smooth="yes"/>
			<point x="126" y="56"/>
			<point x="133" y="80"/>
			<point x="137" y="99" type="curve" smooth="yes"/>
			<point x="219" y="473" type="line"/>
			<point x="206" y="483" type="line"/>
			<point x="66" y="468" type="line"/>
			<point x="63" y="454" type="line"/>
			<point x="192" y="452" type="line"/>
			<point x="188" y="459" type="line"/>
			<point x="111" y="99" type="line" smooth="yes"/>
			<point x="104" y="68"/>
			<point x="99" y="54"/>
			<point x="99" y="28" type="curve" smooth="yes"/>
			<point x="99" y="4"/>
			<point x="117" y="-13"/>
			<point x="141" y="-13" type="curve" smooth="yes"/>
			<point x="155" y="-13"/>
			<point x="163" y="-10"/>
			<point x="167" y="-8" type="curve"/>
			<point x="167" y="-9" type="line"/>
			<point x="111" y="-63"/>
			<point x="68" y="-125"/>
			<point x="68" y="-175" type="curve" smooth="yes"/>
			<point x="68" y="-213"/>
			<point x="89" y="-245"/>
		</contour>
		<contour>
			<point x="235" y="656" type="curve" smooth="yes"/>
			<point x="250" y="656"/>
			<point x="268" y="669"/>
			<point x="268" y="692" type="curve" smooth="yes"/>
			<point x="268" y="709"/>
			<point x="255" y="719"/>
			<point x="239" y="719" type="curve" smooth="yes"/>
			<point x="224" y="719"/>
			<point x="206" y="706"/>
			<point x="206" y="684" type="curve" smooth="yes"/>
			<point x="206" y="665"/>
			<point x="220" y="656"/>
		</contour>
	</outline>
</glyph>
<glyph name="dotlessi" format="2">
	<unicode hex="0131"/>
	<advance width="286"/>
	<outline>
		<contour>
			<point x="99" y="28" type="curve" smooth="yes"/>
			<point x="99" y="4"/>
			<point x="117" y="-13"/>
			<point x="141" y="-13" type="curve" smooth="yes"/>
			<point x="196" y="-13"/>
			<point x="240" y="32"/>
			<point x="282" y="92" type="curve"/>
			<point x="272" y="100" type="line"/>
			<point x="230" y="47"/>
			<point x="189" y="13"/>
			<point x="155" y="13" type="curve" smooth="yes"/>
			<point x="136" y="13"/>
			<point x="126" y="20"/>
			<point x="126" y="38" type="curve" smooth="yes"/>
			<point x="126" y="56"/>
			<point x="133" y="80"/>
			<point x="137" y="99" type="curve" smooth="yes"/>
			<point x="219" y="473" type="line"/>
			<point x="206" y="483" type="line"/>
			<point x="66" y="468" type="line"/>
			<point x="63" y="454" type="line"/>
			<point x="192" y="452" type="line"/>
			<point x="188" y="459" type="line"/>
			<point x="111" y="99" type="line" smooth="yes"/>
			<point x="104" y="68"/>
			<point x="99" y="54"/>
		</contour>
	</outline>
	<anchor name="aboveLC" x="203" y="490"/>
	<anchor name="belowLC" x="145" y="-20"/>
	<anchor name="ogonek" x="184" y="0"/>
</glyph>
<glyph name="lslash" format="2">
	<unicode hex="0142"/>
	<advance width="250"/>
	<outline>
		<contour>
			<point x="151" y="398" type="line"/>
			<point x="21" y="330" type="line"/>
			<point x="17" y="307" type="line"/>
			<point x="146" y="373" type="line"/>
		</contour>
		<contour>
			<point x="276" y="459" type="line"/>
			<point x="151" y="393" type="line"/>
			<point x="146" y="370" type="line"/>
			<point x="271" y="434" type="line"/>
		</contour>
		<component base="l"/>
	</outline>
</glyph>
<glyph name="eng" format="2">
	<unicode hex="014B"/>
	<advance width="584"/>
	<outline>
		<contour>
			<point x="97" y="-5" type="line"/>
			<point x="118" y="0" type="line"/>
			<point x="132" y="69"/>
			<point x="145" y="138"/>
			<point x="161" y="207" type="curve" smooth="yes"/>
			<point x="192" y="346" type="line"/>
			<point x="193" y="351" type="line"/>
			<point x="217" y="473" type="line"/>
			<point x="204" y="483" type="line"/>
			<point x="66" y="468" type="line"/>
			<point x="63" y="454" type="line"/>
			<point x="192" y="452" type="line"/>
			<point x="188" y="459" type="line"/>
			<point x="91" y="0" type="line"/>
		</contour>
		<contour>
			<point x="197" y="-255" type="line"/>
			<point x="230" y="-250"/>
			<point x="261" y="-237"/>
			<point x="293" y="-208" type="curve" smooth="yes"/>
			<point x="356" y="-150"/>
			<point x="376" y="-83"/>
			<point x="400" y="31" type="curve" smooth="yes"/>
			<point x="462" y="321" type="line" smooth="yes"/>
			<point x="471" y="361"/>
			<point x="476" y="388"/>
			<point x="476" y="419" type="curve" smooth="yes"/>
			<point x="476" y="458"/>
			<point x="455" y="483"/>
			<point x="411" y="483" type="curve" smooth="yes"/>
			<point x="356" y="483"/>
			<point x="256" y="430"/>
			<point x="177" y="344" type="curve"/>
			<point x="174" y="344" type="line"/>
			<point x="175" y="326" type="line"/>
			<point x="285" y="425"/>
			<point x="350" y="458"/>
			<point x="405" y="458" type="curve" smooth="yes"/>
			<point x="433" y="458"/>
			<point x="448" y="445"/>
			<point x="448" y="414" type="curve" smooth="yes"/>
			<point x="448" y="388"/>
			<point x="442" y="356"/>
			<point x="436" y="324" type="curve" smooth="yes"/>
			<point x="378" y="38" type="line" smooth="yes"/>
			<point x="355" y="-76"/>
			<point x="332" y="-133"/>
			<point x="293" y="-177" type="curve" smooth="yes"/>
			<point x="260" y="-215"/>
			<point x="229" y="-231"/>
			<point x="194" y="-240" type="curve"/>
		</contour>
	</outline>
</glyph>
<glyph name="OE" format="2">
	<unicode hex="0152"/>
	<advance width="874"/>
	<outline>
		<contour>
			<point x="434" y="0" type="curve"/>
			<point x="439" y="23" type="line"/>
			<point x="397" y="14"/>
			<point x="374" y="9"/>
			<point x="331" y="9" type="curve" smooth="yes"/>
			<point x="178" y="9"/>
			<point x="97" y="123"/>
			<point x="97" y="267" type="curve" smooth="yes"/>
			<point x="97" y="485"/>
			<point x="248" y="667"/>
			<point x="447" y="667" type="curve" smooth="yes"/>
			<point x="496" y="667"/>
			<point x="527" y="664"/>
			<point x="558" y="654" type="curve"/>
			<point x="562" y="676" type="line"/>
			<point x="533" y="682"/>
			<point x="501" y="689"/>
			<point x="451" y="689" type="curve" smooth="yes"/>
			<point x="248" y="689"/>
			<point x="65" y="512"/>
			<point x="65" y="264" type="curve" smooth="yes"/>
			<point x="65" y="102"/>
			<point x="167" y="-13"/>
			<point x="327" y="-13" type="curve" smooth="yes"/>
			<point x="366" y="-13"/>
			<point x="404" y="-6"/>
		</contour>
		<contour>
			<point x="420" y="0" type="line"/>
			<point x="454" y="0" type="line"/>
			<point x="470" y="104"/>
			<point x="489" y="209"/>
			<point x="508" y="313" type="curve" smooth="yes"/>
			<point x="576" y="676" type="line"/>
			<point x="543" y="676" type="line"/>
			<point x="526" y="572"/>
			<point x="509" y="468"/>
			<point x="489" y="364" type="curve" smooth="yes"/>
		</contour>
		<contour>
			<point x="434" y="0" type="line"/>
			<point x="798" y="0" type="line"/>
			<point x="837" y="153" type="line"/>
			<point x="813" y="153" type="line"/>
			<point x="765" y="0" type="line"/>
			<point x="783" y="22" type="line"/>
			<point x="438" y="22" type="line"/>
		</contour>
		<contour>
			<point x="497" y="331" type="line"/>
			<point x="718" y="331" type="line"/>
			<point x="722" y="353" type="line"/>
			<point x="501" y="353" type="line"/>
		</contour>
		<contour>
			<point x="558" y="654" type="line"/>
			<point x="869" y="654" type="line"/>
			<point x="859" y="676" type="line"/>
			<point x="849" y="523" type="line"/>
			<point x="873" y="523" type="line"/>
			<point x="892" y="676" type="line"/>
			<point x="562" y="676" type="line"/>
		</contour>
		<contour>
			<point x="700" y="234" type="line"/>
			<point x="719" y="234" type="line"/>
			<point x="760" y="450" type="line"/>
			<point x="741" y="450" type="line"/>
			<point x="713" y="352" type="line"/>
			<point x="709" y="332" type="line"/>
		</contour>
	</outline>
	<anchor name="aboveUC" x="562" y="696"/>
</glyph>
<glyph name="oe" format="2">
	<unicode hex="0153"/>
	<advance width="748"/>
	<outline>
		<contour>
			<point x="216" y="-13" type="curve" smooth="yes"/>
			<point x="308" y="-13"/>
			<point x="382" y="59"/>
			<point x="422" y="159" type="curve"/>
			<point x="411" y="162" type="line"/>
			<point x="411" y="34"/>
			<point x="480" y="-13"/>
			<point x="552" y="-13" type="curve" smooth="yes"/>
			<point x="623" y="-13"/>
			<point x="676" y="26"/>
			<point x="719" y="92" type="curve"/>
			<point x="708" y="100" type="line"/>
			<point x="666" y="43"/>
			<point x="620" y="12"/>
			<point x="562" y="12" type="curve" smooth="yes"/>
			<point x="485" y="12"/>
			<point x="437" y="64"/>
			<point x="437" y="171" type="curve" smooth="yes"/>
			<point x="437" y="309"/>
			<point x="549" y="464"/>
			<point x="661" y="464" type="curve" smooth="yes"/>
			<point x="703" y="464"/>
			<point x="731" y="445"/>
			<point x="731" y="406" type="curve" smooth="yes"/>
			<point x="731" y="316"/>
			<point x="617" y="235"/>
			<point x="422" y="183" type="curve"/>
			<point x="424" y="167" type="line"/>
			<point x="630" y="219"/>
			<point x="755" y="309"/>
			<point x="755" y="408" type="curve" smooth="yes"/>
			<point x="755" y="460"/>
			<point x="715" y="483"/>
			<point x="667" y="483" type="curve" smooth="yes"/>
			<point x="572" y="483"/>
			<point x="485" y="402"/>
			<point x="441" y="300" type="curve"/>
			<point x="450" y="300" type="line"/>
			<point x="450" y="433"/>
			<point x="383" y="483"/>
			<point x="304" y="483" type="curve" smooth="yes"/>
			<point x="166" y="483"/>
			<point x="67" y="313"/>
			<point x="67" y="161" type="curve" smooth="yes"/>
			<point x="67" y="32"/>
			<point x="148" y="-13"/>
		</contour>
		<contour>
			<point x="219" y="7" type="curve" smooth="yes"/>
			<point x="151" y="7"/>
			<point x="95" y="56"/>
			<point x="95" y="166" type="curve" smooth="yes"/>
			<point x="95" y="298"/>
			<point x="178" y="463"/>
			<point x="303" y="463" type="curve" smooth="yes"/>
			<point x="375" y="463"/>
			<point x="425" y="413"/>
			<point x="425" y="298" type="curve" smooth="yes"/>
			<point x="425" y="165"/>
			<point x="337" y="7"/>
		</contour>
	</outline>
	<anchor name="aboveLC" x="476" y="490"/>
</glyph>
<glyph name="uogonek" format="2">
	<unicode hex="0173"/>
	<advance width="543"/>
	<outline>
		<contour>
			<point x="158" y="-13" type="curve" smooth="yes"/>
			<point x="229" y="-13"/>
			<point x="298" y="27"/>
			<point x="397" y="129" type="curve"/>
			<point x="401" y="129" type="line"/>
			<point x="395" y="144" type="line"/>
			<point x="286" y="38"/>
			<point x="212" y="14"/>
			<point x="168" y="14" type="curve" smooth="yes"/>
			<point x="135" y="14"/>
			<point x="123" y="32"/>
			<point x="123" y="59" type="curve" smooth="yes"/>
			<point x="123" y="90"/>
			<point x="138" y="165"/>
			<point x="147" y="205" type="curve" smooth="yes"/>
			<point x="208" y="474" type="line"/>
			<point x="195" y="484" type="line"/>
			<point x="69" y="469" type="line"/>
			<point x="66" y="455" type="line"/>
			<point x="180" y="453" type="line"/>
			<point x="178" y="460" type="line"/>
			<point x="117" y="186" type="line" smooth="yes"/>
			<point x="108" y="146"/>
			<point x="96" y="94"/>
			<point x="96" y="55" type="curve" smooth="yes"/>
			<point x="96" y="8"/>
			<point x="119" y="-13"/>
		</contour>
		<contour>
			<point x="401" y="-245" type="curve" smooth="yes"/>
			<point x="429" y="-245"/>
			<point x="457" y="-235"/>
			<point x="482" y="-217" type="curve"/>
			<point x="476" y="-203" type="line"/>
			<point x="454" y="-216"/>
			<point x="428" y="-221"/>
			<point x="408" y="-221" type="curve" smooth="yes"/>
			<point x="372" y="-221"/>
			<point x="355" y="-199"/>
			<point x="355" y="-165" type="curve" smooth="yes"/>
			<point x="355" y="-116"/>
			<point x="409" y="-44"/>
			<point x="480" y="19" type="curve" smooth="yes"/>
			<point x="506" y="42"/>
			<point x="524" y="66"/>
			<point x="542" y="92" type="curve"/>
			<point x="532" y="100" type="line"/>
			<point x="490" y="47"/>
			<point x="449" y="13"/>
			<point x="415" y="13" type="curve" smooth="yes"/>
			<point x="396" y="13"/>
			<point x="385" y="20"/>
			<point x="385" y="39" type="curve" smooth="yes"/>
			<point x="385" y="55"/>
			<point x="392" y="80"/>
			<point x="396" y="99" type="curve" smooth="yes"/>
			<point x="476" y="477" type="line"/>
			<point x="468" y="483" type="line"/>
			<point x="447" y="469" type="line"/>
			<point x="435" y="405"/>
			<point x="422" y="340"/>
			<point x="408" y="276" type="curve" smooth="yes"/>
			<point x="373" y="114" type="line"/>
			<point x="372" y="106" type="line"/>
			<point x="363" y="68"/>
			<point x="359" y="54"/>
			<point x="359" y="33" type="curve" smooth="yes"/>
			<point x="359" y="4"/>
			<point x="377" y="-13"/>
			<point x="404" y="-13" type="curve" smooth="yes"/>
			<point x="414" y="-13"/>
			<point x="422" y="-11"/>
			<point x="440" y="-3" type="curve"/>
			<point x="427" y="5" type="line"/>
			<point x="427" y="-10" type="line"/>
			<point x="371" y="-64"/>
			<point x="328" y="-125"/>
			<point x="328" y="-175" type="curve" smooth="yes"/>
			<point x="328" y="-213"/>
			<point x="349" y="-245"/>
		</contour>
	</outline>
	<anchor name="aboveLC" x="327" y="490"/>
</glyph>
<glyph name="longs" format="2">
	<unicode hex="017F"/>
	<advance width="297"/>
	<outline>
		<contour>
			<point x="390" y="758" type="curve" smooth="yes"/>
			<point x="288" y="758"/>
			<point x="216" y="675"/>
			<point x="191" y="502" type="curve"/>
			<point x="119" y="33" type="line"/>
			<point x="103" y="-66"/>
			<point x="81" y="-140"/>
			<point x="46" y="-186" type="curve" smooth="yes"/>
			<point x="18" y="-221"/>
			<point x="-16" y="-239"/>
			<point x="-63" y="-239" type="curve"/>
			<point x="-63" y="-242" type="line"/>
			<point x="-38" y="-242" type="line"/>
			<point x="-81" y="-200" type="line" smooth="yes"/>
			<point x="-91" y="-191"/>
			<point x="-101" y="-185"/>
			<point x="-111" y="-185" type="curve" smooth="yes"/>
			<point x="-121" y="-185"/>
			<point x="-129" y="-192"/>
			<point x="-129" y="-206" type="curve"/>
			<point x="-120" y="-231"/>
			<point x="-86" y="-255"/>
			<point x="-51" y="-255" type="curve" smooth="yes"/>
			<point x="-16" y="-255"/>
			<point x="24" y="-245"/>
			<point x="60" y="-202" type="curve" smooth="yes"/>
			<point x="95" y="-161"/>
			<point x="126" y="-90"/>
			<point x="145" y="33" type="curve"/>
			<point x="217" y="502" type="line"/>
			<point x="238" y="637"/>
			<point x="283" y="740"/>
			<point x="406" y="740" type="curve"/>
			<point x="406" y="745" type="line"/>
			<point x="391" y="745" type="line"/>
			<point x="436" y="700" type="line" smooth="yes"/>
			<point x="450" y="686"/>
			<point x="454" y="683"/>
			<point x="463" y="683" type="curve" smooth="yes"/>
			<point x="473" y="683"/>
			<point x="484" y="691"/>
			<point x="483" y="700" type="curve"/>
			<point x="476" y="728"/>
			<point x="442" y="758"/>
		</contour>
	</outline>
</glyph>
<glyph name="Schwa" format="2">
	<unicode hex="018F"/>
	<advance width="628"/>
	<outline>
		<contour>
			<point x="283" y="-13" type="curve" smooth="yes"/>
			<point x="437" y="-13"/>
			<point x="614" y="130"/>
			<point x="614" y="392" type="curve" smooth="yes"/>
			<point x="614" y="590"/>
			<point x="515" y="689"/>
			<point x="368" y="689" type="curve" smooth="yes"/>
			<point x="291" y="689"/>
			<point x="218" y="665"/>
			<point x="154" y="606" type="curve"/>
			<point x="165" y="593" type="line"/>
			<point x="225" y="645"/>
			<point x="288" y="667"/>
			<point x="361" y="667" type="curve" smooth="yes"/>
			<point x="493" y="667"/>
			<point x="584" y="576"/>
			<point x="584" y="397" type="curve" smooth="yes"/>
			<point x="584" y="146"/>
			<point x="429" y="8"/>
			<point x="289" y="8" type="curve" smooth="yes"/>
			<point x="152" y="8"/>
			<point x="92" y="101"/>
			<point x="92" y="220" type="curve" smooth="yes"/>
			<point x="92" y="274"/>
			<point x="99" y="305"/>
			<point x="111" y="335" type="curve"/>
			<point x="587" y="335" type="line"/>
			<point x="590" y="356" type="line"/>
			<point x="90" y="356" type="line"/>
			<point x="74" y="315"/>
			<point x="64" y="271"/>
			<point x="64" y="221" type="curve" smooth="yes"/>
			<point x="64" y="88"/>
			<point x="146" y="-13"/>
		</contour>
	</outline>
	<anchor name="aboveUC" x="363" y="696"/>
	<anchor name="belowLC" x="275" y="-20"/>
</glyph>
<glyph name="florin" format="2">
	<unicode hex="0192"/>
	<advance width="510"/>
	<outline>
		<contour>
			<point x="161" y="362" type="line"/>
			<point x="439" y="362" type="line"/>
			<point x="443" y="386" type="line"/>
			<point x="165" y="386" type="line"/>
		</contour>
		<contour>
			<point x="71" y="-100" type="curve" smooth="yes"/>
			<point x="101" y="-100"/>
			<point x="135" y="-89"/>
			<point x="171" y="-52" type="curve" smooth="yes"/>
			<point x="225" y="5"/>
			<point x="253" y="83"/>
			<point x="283" y="224" type="curve" smooth="yes"/>
			<point x="315" y="369" type="line" smooth="yes"/>
			<point x="341" y="495"/>
			<point x="361" y="547"/>
			<point x="403" y="599" type="curve" smooth="yes"/>
			<point x="423" y="625"/>
			<point x="457" y="646"/>
			<point x="495" y="649" type="curve"/>
			<point x="495" y="656" type="line"/>
			<point x="461" y="656" type="line"/>
			<point x="487" y="640" type="line" smooth="yes"/>
			<point x="513" y="624"/>
			<point x="531" y="612"/>
			<point x="547" y="612" type="curve" smooth="yes"/>
			<point x="561" y="612"/>
			<point x="569" y="624"/>
			<point x="569" y="635" type="curve"/>
			<point x="551" y="653"/>
			<point x="527" y="667"/>
			<point x="495" y="667" type="curve" smooth="yes"/>
			<point x="465" y="667"/>
			<point x="431" y="657"/>
			<point x="395" y="619" type="curve" smooth="yes"/>
			<point x="345" y="567"/>
			<point x="315" y="494"/>
			<point x="289" y="370" type="curve" smooth="yes"/>
			<point x="257" y="217" type="line" smooth="yes"/>
			<point x="227" y="75"/>
			<point x="203" y="20"/>
			<point x="163" y="-32" type="curve" smooth="yes"/>
			<point x="143" y="-58"/>
			<point x="109" y="-79"/>
			<point x="71" y="-82" type="curve"/>
			<point x="71" y="-94" type="line"/>
			<point x="101" y="-94" type="line"/>
			<point x="75" y="-76" type="line" smooth="yes"/>
			<point x="51" y="-58"/>
			<point x="33" y="-45"/>
			<point x="19" y="-45" type="curve" smooth="yes"/>
			<point x="5" y="-45"/>
			<point x="-3" y="-57"/>
			<point x="-3" y="-68" type="curve"/>
			<point x="15" y="-86"/>
			<point x="39" y="-100"/>
		</contour>
	</outline>
</glyph>
<glyph name="Uhorn" format="2">
	<unicode hex="01AF"/>
	<advance width="725"/>
	<outline>
		<contour>
			<point x="143" y="160" type="curve" smooth="yes"/>
			<point x="143" y="43"/>
			<point x="223" y="-13"/>
			<point x="339" y="-13" type="curve" smooth="yes"/>
			<point x="496" y="-13"/>
			<point x="568" y="63"/>
			<point x="602" y="246" type="curve" smooth="yes"/>
			<point x="683" y="676" type="line"/>
			<point x="660" y="676" type="line"/>
			<point x="583" y="272" type="line" smooth="yes"/>
			<point x="544" y="68"/>
			<point x="479" y="13"/>
			<point x="344" y="13" type="curve" smooth="yes"/>
			<point x="242" y="13"/>
			<point x="173" y="60"/>
			<point x="173" y="165" type="curve" smooth="yes"/>
			<point x="173" y="191"/>
			<point x="176" y="220"/>
			<point x="182" y="254" type="curve" smooth="yes"/>
			<point x="262" y="676" type="line"/>
			<point x="230" y="676" type="line"/>
			<point x="212" y="572"/>
			<point x="193" y="467"/>
			<point x="173" y="361" type="curve" smooth="yes"/>
			<point x="152" y="247" type="line" smooth="yes"/>
			<point x="146" y="215"/>
			<point x="143" y="185"/>
		</contour>
		<contour>
			<point x="670" y="656" type="line"/>
			<point x="763" y="661"/>
			<point x="795" y="705"/>
			<point x="795" y="779" type="curve" smooth="yes"/>
			<point x="795" y="804"/>
			<point x="792" y="818"/>
			<point x="786" y="829" type="curve"/>
			<point x="783" y="831"/>
			<point x="780" y="832"/>
			<point x="775" y="832" type="curve" smooth="yes"/>
			<point x="763" y="832"/>
			<point x="755" y="823"/>
			<point x="755" y="812" type="curve" smooth="yes"/>
			<point x="755" y="793"/>
			<point x="764" y="779"/>
			<point x="764" y="754" type="curve" smooth="yes"/>
			<point x="764" y="710"/>
			<point x="745" y="676"/>
			<point x="670" y="676" type="curve"/>
		</contour>
		<contour>
			<point x="126" y="656" type="line"/>
			<point x="237" y="649" type="line"/>
			<point x="251" y="649" type="line"/>
			<point x="364" y="656" type="line"/>
			<point x="368" y="676" type="line"/>
			<point x="130" y="676" type="line"/>
		</contour>
		<contour>
			<point x="539" y="656" type="line"/>
			<point x="660" y="649" type="line"/>
			<point x="668" y="649" type="line"/>
			<point x="673" y="676" type="line"/>
			<point x="543" y="676" type="line"/>
		</contour>
	</outline>
	<anchor name="aboveUC" x="459" y="696"/>
	<anchor name="belowLC" x="338" y="-20"/>
</glyph>
<glyph name="dotlessj" format="2">
	<unicode hex="0237"/>
	<advance width="251"/>
	<outline>
		<contour>
			<point x="-63" y="-255" type="line"/>
			<point x="-33" y="-248"/>
			<point x="-6" y="-236"/>
			<point x="25" y="-208" type="curve" smooth="yes"/>
			<point x="88" y="-150"/>
			<point x="110" y="-83"/>
			<point x="132" y="31" type="curve" smooth="yes"/>
			<point x="219" y="473" type="line"/>
			<point x="206" y="483" type="line"/>
			<point x="66" y="468" type="line"/>
			<point x="63" y="454" type="line"/>
			<point x="202" y="452" type="line"/>
			<point x="193" y="470" type="line"/>
			<point x="110" y="38" type="line" smooth="yes"/>
			<point x="88" y="-76"/>
			<point x="64" y="-133"/>
			<point x="25" y="-177" type="curve" smooth="yes"/>
			<point x="-7" y="-214"/>
			<point x="-35" y="-230"/>
			<point x="-67" y="-240" type="curve"/>
		</contour>
	</outline>
	<anchor name="aboveLC" x="203" y="490"/>
</glyph>
<glyph name="gscript" format="2">
	<unicode hex="0261"/>
	<advance width="469"/>
	<outline>
		<contour>
			<point x="146" y="-255" type="curve" smooth="yes"/>
			<point x="200" y="-255"/>
			<point x="254" y="-230"/>
			<point x="292" y="-192" type="curve" smooth="yes"/>
			<point x="339" y="-145"/>
			<point x="350" y="-62"/>
			<point x="379" y="143" type="curve"/>
			<point x="417" y="335" type="line"/>
			<point x="448" y="477" type="line"/>
			<point x="439" y="483" type="line"/>
			<point x="416" y="448" type="line"/>
			<point x="414" y="445" type="line"/>
			<point x="356" y="147" type="line"/>
			<point x="355" y="142" type="line"/>
			<point x="325" y="-64"/>
			<point x="316" y="-138"/>
			<point x="273" y="-181" type="curve" smooth="yes"/>
			<point x="246" y="-208"/>
			<point x="205" y="-235"/>
			<point x="150" y="-235" type="curve" smooth="yes"/>
			<point x="110" y="-235"/>
			<point x="74" y="-225"/>
			<point x="48" y="-211" type="curve"/>
			<point x="58" y="-224" type="line"/>
			<point x="42" y="-147" type="line" smooth="yes"/>
			<point x="40" y="-135"/>
			<point x="32" y="-130"/>
			<point x="23" y="-130" type="curve" smooth="yes"/>
			<point x="10" y="-130"/>
			<point x="0" y="-140"/>
			<point x="-3" y="-151" type="curve"/>
			<point x="9" y="-216"/>
			<point x="60" y="-255"/>
		</contour>
		<contour>
			<point x="160" y="-9" type="curve" smooth="yes"/>
			<point x="243" y="-9"/>
			<point x="311" y="79"/>
			<point x="380" y="177" type="curve"/>
			<point x="383" y="177" type="line"/>
			<point x="376" y="185" type="line"/>
			<point x="296" y="87"/>
			<point x="238" y="16"/>
			<point x="167" y="16" type="curve" smooth="yes"/>
			<point x="121" y="16"/>
			<point x="88" y="46"/>
			<point x="88" y="127" type="curve" smooth="yes"/>
			<point x="88" y="216"/>
			<point x="132" y="319"/>
			<point x="200" y="387" type="curve" smooth="yes"/>
			<point x="243" y="431"/>
			<point x="297" y="460"/>
			<point x="354" y="460" type="curve" smooth="yes"/>
			<point x="382" y="460"/>
			<point x="406" y="451"/>
			<point x="426" y="420" type="curve"/>
			<point x="433" y="440" type="line"/>
			<point x="417" y="471"/>
			<point x="392" y="483"/>
			<point x="359" y="483" type="curve" smooth="yes"/>
			<point x="211" y="483"/>
			<point x="60" y="284"/>
			<point x="60" y="120" type="curve" smooth="yes"/>
			<point x="60" y="22"/>
			<point x="108" y="-9"/>
		</contour>
	</outline>
	<anchor name="aboveLC" x="339" y="490"/>
	<anchor name="belowLC" x="153" y="-265"/>
</glyph>
<glyph name="r.sups" format="2">
	<unicode hex="02B3"/>
	<advance width="264"/>
	<outline>
		<contour>
			<point x="200" y="611" type="line"/>
			<point x="238" y="677"/>
			<point x="276" y="724"/>
			<point x="314" y="738" type="curve"/>
			<point x="314" y="740" type="line"/>
			<point x="288" y="733" type="line"/>
			<point x="312" y="718"/>
			<point x="325" y="712"/>
			<point x="339" y="712" type="curve" smooth="yes"/>
			<point x="351" y="712"/>
			<point x="358" y="721"/>
			<point x="359" y="733" type="curve"/>
			<point x="353" y="742"/>
			<point x="339" y="748"/>
			<point x="317" y="748" type="curve" smooth="yes"/>
			<point x="272" y="748"/>
			<point x="229" y="686"/>
			<point x="199" y="626" type="curve"/>
			<point x="190" y="626" type="line"/>
		</contour>
		<contour>
			<point x="140" y="430" type="line"/>
			<point x="144" y="426" type="line"/>
			<point x="163" y="430" type="line"/>
			<point x="204" y="626" type="line"/>
			<point x="205" y="630" type="line"/>
			<point x="227" y="741" type="line"/>
			<point x="218" y="748" type="line"/>
			<point x="123" y="734" type="line"/>
			<point x="121" y="724" type="line"/>
			<point x="207" y="722" type="line"/>
			<point x="203" y="727" type="line"/>
		</contour>
	</outline>
</glyph>
<glyph name="w.sups" format="2">
	<unicode hex="02B7"/>
	<advance width="499"/>
	<outline>
		<contour>
			<point x="211" y="427" type="curve"/>
			<point x="222" y="426" type="line"/>
			<point x="289" y="516"/>
			<point x="342" y="609"/>
			<point x="378" y="684" type="curve"/>
			<point x="379" y="686" type="line"/>
			<point x="376" y="686" type="line"/>
			<point x="381" y="610"/>
			<point x="386" y="531"/>
			<point x="391" y="427" type="curve"/>
			<point x="401" y="426" type="line"/>
			<point x="468" y="497"/>
			<point x="514" y="561"/>
			<point x="549" y="631" type="curve" smooth="yes"/>
			<point x="574" y="681"/>
			<point x="576" y="707"/>
			<point x="576" y="723" type="curve" smooth="yes"/>
			<point x="576" y="734"/>
			<point x="576" y="738"/>
			<point x="573" y="743" type="curve" smooth="yes"/>
			<point x="571" y="746"/>
			<point x="567" y="748"/>
			<point x="561" y="748" type="curve" smooth="yes"/>
			<point x="551" y="748"/>
			<point x="541" y="739"/>
			<point x="541" y="722" type="curve" smooth="yes"/>
			<point x="541" y="715"/>
			<point x="542" y="705"/>
			<point x="553" y="642" type="curve"/>
			<point x="559" y="700" type="line"/>
			<point x="551" y="677"/>
			<point x="542" y="656"/>
			<point x="533" y="637" type="curve" smooth="yes"/>
			<point x="499" y="565"/>
			<point x="461" y="517"/>
			<point x="409" y="454" type="curve"/>
			<point x="408" y="453" type="line"/>
			<point x="410" y="453" type="line"/>
			<point x="408" y="543"/>
			<point x="402" y="631"/>
			<point x="395" y="739" type="curve"/>
			<point x="384" y="739" type="line"/>
			<point x="340" y="637"/>
			<point x="287" y="544"/>
			<point x="229" y="460" type="curve"/>
			<point x="228" y="458" type="line"/>
			<point x="230" y="458" type="line"/>
			<point x="229" y="554"/>
			<point x="227" y="625"/>
			<point x="217" y="692" type="curve" smooth="yes"/>
			<point x="212" y="734"/>
			<point x="199" y="748"/>
			<point x="176" y="748" type="curve" smooth="yes"/>
			<point x="148" y="748"/>
			<point x="126" y="729"/>
			<point x="103" y="679" type="curve"/>
			<point x="113" y="675" type="line"/>
			<point x="136" y="718"/>
			<point x="152" y="726"/>
			<point x="167" y="726" type="curve" smooth="yes"/>
			<point x="181" y="726"/>
			<point x="190" y="719"/>
			<point x="195" y="687" type="curve" smooth="yes"/>
			<point x="205" y="616"/>
			<point x="208" y="542"/>
		</contour>
	</outline>
</glyph>
<glyph name="y.sups" format="2">
	<unicode hex="02B8"/>
	<advance width="321"/>
	<outline>
		<contour>
			<point x="27" y="296" type="curve"/>
			<point x="31" y="279"/>
			<point x="47" y="270"/>
			<point x="69" y="270" type="curve" smooth="yes"/>
			<point x="93" y="270"/>
			<point x="132" y="295"/>
			<point x="162" y="325" type="curve" smooth="yes"/>
			<point x="195" y="359"/>
			<point x="220" y="392"/>
			<point x="248" y="436" type="curve" smooth="yes"/>
			<point x="283" y="488"/>
			<point x="308" y="538"/>
			<point x="356" y="628" type="curve" smooth="yes"/>
			<point x="375" y="665"/>
			<point x="385" y="684"/>
			<point x="395" y="708" type="curve" smooth="yes"/>
			<point x="402" y="722"/>
			<point x="404" y="730"/>
			<point x="404" y="736" type="curve" smooth="yes"/>
			<point x="404" y="743"/>
			<point x="398" y="748"/>
			<point x="391" y="748" type="curve" smooth="yes"/>
			<point x="379" y="748"/>
			<point x="373" y="737"/>
			<point x="353" y="674" type="curve" smooth="yes"/>
			<point x="338" y="627"/>
			<point x="289" y="529"/>
			<point x="233" y="435" type="curve"/>
			<point x="208" y="397"/>
			<point x="180" y="363"/>
			<point x="152" y="335" type="curve" smooth="yes"/>
			<point x="126" y="310"/>
			<point x="102" y="295"/>
			<point x="76" y="283" type="curve"/>
			<point x="76" y="281" type="line"/>
			<point x="96" y="281" type="line"/>
			<point x="96" y="287" type="line"/>
			<point x="68" y="310"/>
			<point x="59" y="313"/>
			<point x="50" y="313" type="curve" smooth="yes"/>
			<point x="39" y="313"/>
			<point x="30" y="308"/>
		</contour>
		<contour>
			<point x="239" y="436" type="line"/>
			<point x="234" y="535"/>
			<point x="228" y="611"/>
			<point x="218" y="686" type="curve" smooth="yes"/>
			<point x="211" y="734"/>
			<point x="200" y="748"/>
			<point x="176" y="748" type="curve" smooth="yes"/>
			<point x="150" y="748"/>
			<point x="127" y="730"/>
			<point x="103" y="679" type="curve"/>
			<point x="113" y="675" type="line"/>
			<point x="137" y="719"/>
			<point x="153" y="726"/>
			<point x="167" y="726" type="curve" smooth="yes"/>
			<point x="182" y="726"/>
			<point x="188" y="718"/>
			<point x="194" y="678" type="curve" smooth="yes"/>
			<point x="206" y="601"/>
			<point x="215" y="529"/>
			<point x="221" y="413" type="curve"/>
			<point x="245" y="436" type="line"/>
		</contour>
	</outline>
</glyph>
<glyph name="ringhalfleftmod" format="2">
	<unicode hex="02BF"/>
	<advance width="230"/>
	<outline>
		<contour>
			<point x="258" y="536" type="curve"/>
			<point x="262" y="556" type="line"/>
			<point x="216" y="562"/>
			<point x="190" y="589"/>
			<point x="190" y="634" type="curve" smooth="yes"/>
			<point x="190" y="685"/>
			<point x="227" y="720"/>
			<point x="289" y="720" type="curve"/>
			<point x="291" y="740" type="line"/>
			<point x="206" y="740"/>
			<point x="166" y="689"/>
			<point x="166" y="633" type="curve" smooth="yes"/>
			<point x="166" y="578"/>
			<point x="206" y="540"/>
		</contour>
	</outline>
</glyph>
<glyph name="verticallinemod" format="2">
	<unicode hex="02C8"/>
	<advance width="194"/>
	<outline>
		<contour>
			<point x="160" y="559" type="line"/>
			<point x="180" y="559" type="line"/>
			<point x="222" y="747" type="line"/>
			<point x="190" y="747" type="line"/>
		</contour>
	</outline>
</glyph>
<glyph name="l.sups" format="2">
	<unicode hex="02E1"/>
	<advance width="190"/>
	<outline>
		<contour>
			<point x="169" y="421" type="curve" smooth="yes"/>
			<point x="208" y="421"/>
			<point x="238" y="453"/>
			<point x="267" y="492" type="curve"/>
			<point x="259" y="498" type="line"/>
			<point x="231" y="464"/>
			<point x="203" y="443"/>
			<point x="182" y="443" type="curve" smooth="yes"/>
			<point x="157" y="443"/>
			<point x="160" y="461"/>
			<point x="168" y="499" type="curve" smooth="yes"/>
			<point x="253" y="914" type="line"/>
			<point x="246" y="920" type="line"/>
			<point x="147" y="907" type="line"/>
			<point x="145" y="897" type="line"/>
			<point x="232" y="895" type="line"/>
			<point x="226" y="902" type="line"/>
			<point x="145" y="496" type="line" smooth="yes"/>
			<point x="141" y="475"/>
			<point x="139" y="466"/>
			<point x="139" y="452" type="curve" smooth="yes"/>
			<point x="139" y="433"/>
			<point x="152" y="421"/>
		</contour>
	</outline>
</glyph>
<glyph name="s.sups" format="2">
	<unicode hex="02E2"/>
	<advance width="250"/>
	<outline>
		<contour>
			<point x="160" y="441" type="line"/>
			<point x="144" y="486" type="line" smooth="yes"/>
			<point x="141" y="496"/>
			<point x="136" y="500"/>
			<point x="127" y="500" type="curve" smooth="yes"/>
			<point x="119" y="500"/>
			<point x="114" y="493"/>
			<point x="112" y="486" type="curve"/>
			<point x="124" y="445"/>
			<point x="149" y="428"/>
			<point x="198" y="428" type="curve" smooth="yes"/>
			<point x="257" y="428"/>
			<point x="301" y="460"/>
			<point x="301" y="516" type="curve" smooth="yes"/>
			<point x="301" y="547"/>
			<point x="285" y="569"/>
			<point x="238" y="602" type="curve" smooth="yes"/>
			<point x="202" y="628"/>
			<point x="185" y="642"/>
			<point x="185" y="676" type="curve" smooth="yes"/>
			<point x="185" y="712"/>
			<point x="212" y="740"/>
			<point x="265" y="740" type="curve" smooth="yes"/>
			<point x="279" y="740"/>
			<point x="294" y="736"/>
			<point x="305" y="729" type="curve"/>
			<point x="287" y="747" type="line"/>
			<point x="304" y="709" type="line" smooth="yes"/>
			<point x="309" y="698"/>
			<point x="316" y="695"/>
			<point x="324" y="695" type="curve" smooth="yes"/>
			<point x="331" y="695"/>
			<point x="338" y="700"/>
			<point x="339" y="707" type="curve"/>
			<point x="331" y="734"/>
			<point x="302" y="755"/>
			<point x="260" y="755" type="curve" smooth="yes"/>
			<point x="203" y="755"/>
			<point x="164" y="721"/>
			<point x="164" y="669" type="curve" smooth="yes"/>
			<point x="164" y="634"/>
			<point x="186" y="610"/>
			<point x="226" y="584" type="curve" smooth="yes"/>
			<point x="265" y="558"/>
			<point x="280" y="536"/>
			<point x="280" y="510" type="curve" smooth="yes"/>
			<point x="280" y="472"/>
			<point x="248" y="443"/>
			<point x="196" y="443" type="curve" smooth="yes"/>
			<point x="175" y="443"/>
			<point x="161" y="446"/>
			<point x="144" y="456" type="curve"/>
		</contour>
	</outline>
</glyph>
<glyph name="gravecmb" format="2">
	<unicode hex="0300"/>
	<outline>
		<contour>
			<point x="124" y="550" type="line"/>
			<point x="96" y="601"/>
			<point x="54" y="673"/>
			<point x="33" y="711" type="curve" smooth="yes"/>
			<point x="17" y="740"/>
			<point x="11" y="747"/>
			<point x="-1" y="747" type="curve" smooth="yes"/>
			<point x="-9" y="747"/>
			<point x="-16" y="741"/>
			<point x="-16" y="732" type="curve" smooth="yes"/>
			<point x="-16" y="721"/>
			<point x="-8" y="712"/>
			<point x="8" y="689" type="curve" smooth="yes"/>
			<point x="31" y="655"/>
			<point x="78" y="588"/>
			<point x="111" y="543" type="curve"/>
		</contour>
	</outline>
	<anchor name="_aboveLC" x="104" y="490"/>
	<anchor name="aboveLC" x="153" y="747"/>
</glyph>
<glyph name="acutecmb" format="2">
	<unicode hex="0301"/>
	<outline>
		<contour>
			<point x="110" y="550" type="curve"/>
			<point x="123" y="543" type="line"/>
			<point x="156" y="588"/>
			<point x="203" y="655"/>
			<point x="226" y="689" type="curve" smooth="yes"/>
			<point x="242" y="712"/>
			<point x="250" y="723"/>
			<point x="250" y="733" type="curve" smooth="yes"/>
			<point x="250" y="743"/>
			<point x="243" y="747"/>
			<point x="235" y="747" type="curve" smooth="yes"/>
			<point x="222" y="747"/>
			<point x="215" y="734"/>
			<point x="201" y="711" type="curve" smooth="yes"/>
			<point x="178" y="673"/>
			<point x="138" y="601"/>
		</contour>
	</outline>
	<anchor name="_aboveLC" x="104" y="490"/>
	<anchor name="aboveLC" x="159" y="747"/>
</glyph>
<glyph name="circumflexcmb" format="2">
	<unicode hex="0302"/>
	<outline>
		<contour>
			<point x="232" y="553" type="line"/>
			<point x="244" y="562" type="line"/>
			<point x="164" y="739" type="line"/>
			<point x="150" y="739" type="line"/>
			<point x="4" y="562" type="line"/>
			<point x="14" y="553" type="line"/>
			<point x="158" y="708" type="line"/>
			<point x="144" y="708" type="line"/>
		</contour>
	</outline>
	<anchor name="_aboveLC" x="105" y="490"/>
	<anchor name="aboveLC" x="159" y="739"/>
</glyph>
<glyph name="tildecmb" format="2">
	<unicode hex="0303"/>
	<outline>
		<contour>
			<point x="-20" y="603" type="curve"/>
			<point x="-7" y="597" type="line"/>
			<point x="13" y="652"/>
			<point x="39" y="670"/>
			<point x="67" y="670" type="curve" smooth="yes"/>
			<point x="87" y="670"/>
			<point x="102" y="661"/>
			<point x="129" y="632" type="curve" smooth="yes"/>
			<point x="160" y="600"/>
			<point x="179" y="587"/>
			<point x="205" y="587" type="curve" smooth="yes"/>
			<point x="239" y="587"/>
			<point x="269" y="616"/>
			<point x="292" y="674" type="curve"/>
			<point x="279" y="681" type="line"/>
			<point x="255" y="629"/>
			<point x="229" y="609"/>
			<point x="208" y="609" type="curve" smooth="yes"/>
			<point x="186" y="609"/>
			<point x="176" y="617"/>
			<point x="146" y="647" type="curve" smooth="yes"/>
			<point x="118" y="676"/>
			<point x="101" y="692"/>
			<point x="71" y="692" type="curve" smooth="yes"/>
			<point x="31" y="692"/>
			<point x="-2" y="665"/>
		</contour>
	</outline>
	<anchor name="_aboveLC" x="105" y="490"/>
	<anchor name="aboveLC" x="148" y="692"/>
</glyph>
<glyph name="macroncmb" format="2">
	<unicode hex="0304"/>
	<outline>
		<contour>
			<point x="-22" y="611" type="line"/>
			<point x="192" y="611" type="line"/>
			<point x="198" y="637" type="line"/>
			<point x="-16" y="637" type="line"/>
		</contour>
	</outline>
	<anchor name="_aboveLC" x="59" y="490"/>
	<anchor name="aboveLC" x="95" y="657"/>
</glyph>
<glyph name="brevecmb" format="2">
	<unicode hex="0306"/>
	<outline>
		<contour>
			<point x="123" y="585" type="curve" smooth="yes"/>
			<point x="197" y="585"/>
			<point x="255" y="637"/>
			<point x="283" y="724" type="curve"/>
			<point x="268" y="729" type="line"/>
			<point x="237" y="655"/>
			<point x="193" y="612"/>
			<point x="128" y="612" type="curve" smooth="yes"/>
			<point x="52" y="612"/>
			<point x="22" y="661"/>
			<point x="14" y="730" type="curve"/>
			<point x="-1" y="726" type="line"/>
			<point x="-1" y="639"/>
			<point x="42" y="585"/>
		</contour>
	</outline>
	<anchor name="_aboveLC" x="105" y="490"/>
	<anchor name="aboveLC" x="156" y="730"/>
</glyph>
<glyph name="dotaccentcmb" format="2">
	<unicode hex="0307"/>
	<outline>
		<contour>
			<point x="145" y="656" type="curve" smooth="yes"/>
			<point x="160" y="656"/>
			<point x="178" y="669"/>
			<point x="178" y="692" type="curve" smooth="yes"/>
			<point x="178" y="709"/>
			<point x="165" y="719"/>
			<point x="149" y="719" type="curve" smooth="yes"/>
			<point x="134" y="719"/>
			<point x="116" y="706"/>
			<point x="116" y="684" type="curve" smooth="yes"/>
			<point x="116" y="665"/>
			<point x="130" y="656"/>
		</contour>
	</outline>
	<anchor name="_aboveLC" x="105" y="490"/>
	<anchor name="aboveLC" x="154" y="719"/>
</glyph>
<glyph name="dieresiscmb" format="2">
	<unicode hex="0308"/>
	<outline>
		<contour>
			<point x="57" y="661" type="curve" smooth="yes"/>
			<point x="72" y="661"/>
			<point x="89" y="674"/>
			<point x="89" y="695" type="curve" smooth="yes"/>
			<point x="89" y="711"/>
			<point x="77" y="720"/>
			<point x="63" y="720" type="curve" smooth="yes"/>
			<point x="48" y="720"/>
			<point x="31" y="707"/>
			<point x="31" y="687" type="curve" smooth="yes"/>
			<point x="31" y="670"/>
			<point x="43" y="661"/>
		</contour>
		<contour>
			<point x="234" y="661" type="curve" smooth="yes"/>
			<point x="249" y="661"/>
			<point x="266" y="674"/>
			<point x="266" y="695" type="curve" smooth="yes"/>
			<point x="266" y="711"/>
			<point x="254" y="720"/>
			<point x="240" y="720" type="curve" smooth="yes"/>
			<point x="225" y="720"/>
			<point x="208" y="707"/>
			<point x="208" y="687" type="curve" smooth="yes"/>
			<point x="208" y="670"/>
			<point x="220" y="661"/>
		</contour>
	</outline>
	<anchor name="_aboveLC" x="105" y="490"/>
	<anchor name="aboveLC" x="154" y="720"/>
</glyph>
<glyph name="hoicmb" format="2">
	<unicode hex="0309"/>
	<outline>
		<contour>
			<point x="104" y="558" type="line"/>
			<point x="160" y="565"/>
			<point x="197" y="601"/>
			<point x="197" y="651" type="curve" smooth="yes"/>
			<point x="197" y="693"/>
			<point x="168" y="721"/>
			<point x="105" y="730" type="curve"/>
			<point x="99" y="707" type="line"/>
			<point x="155" y="699"/>
			<point x="176" y="679"/>
			<point x="176" y="646" type="curve" smooth="yes"/>
			<point x="176" y="613"/>
			<point x="151" y="582"/>
			<point x="101" y="572" type="curve"/>
		</contour>
	</outline>
	<anchor name="_aboveLC" x="105" y="490"/>
	<anchor name="aboveLC" x="156" y="730"/>
</glyph>
<glyph name="ringcmb" format="2">
	<unicode hex="030A"/>
	<outline>
		<contour>
			<point x="85" y="569" type="curve" smooth="yes"/>
			<point x="130" y="569"/>
			<point x="181" y="605"/>
			<point x="181" y="666" type="curve" smooth="yes"/>
			<point x="181" y="711"/>
			<point x="146" y="743"/>
			<point x="103" y="743" type="curve" smooth="yes"/>
			<point x="56" y="743"/>
			<point x="7" y="708"/>
			<point x="7" y="646" type="curve" smooth="yes"/>
			<point x="7" y="603"/>
			<point x="39" y="569"/>
		</contour>
		<contour>
			<point x="86" y="589" type="curve" smooth="yes"/>
			<point x="51" y="589"/>
			<point x="31" y="618"/>
			<point x="31" y="648" type="curve" smooth="yes"/>
			<point x="31" y="690"/>
			<point x="61" y="723"/>
			<point x="101" y="723" type="curve" smooth="yes"/>
			<point x="136" y="723"/>
			<point x="157" y="695"/>
			<point x="157" y="664" type="curve" smooth="yes"/>
			<point x="157" y="621"/>
			<point x="127" y="589"/>
		</contour>
	</outline>
	<anchor name="_aboveLC" x="59" y="490"/>
	<anchor name="aboveLC" x="113" y="743"/>
</glyph>
<glyph name="hungarumlautcmb" format="2">
	<unicode hex="030B"/>
	<outline>
		<contour>
			<point x="12" y="572" type="line"/>
			<point x="24" y="564" type="line"/>
			<point x="130" y="693" type="line" smooth="yes"/>
			<point x="138" y="703"/>
			<point x="146" y="715"/>
			<point x="146" y="722" type="curve" smooth="yes"/>
			<point x="146" y="731"/>
			<point x="140" y="737"/>
			<point x="131" y="737" type="curve" smooth="yes"/>
			<point x="120" y="737"/>
			<point x="112" y="727"/>
			<point x="102" y="711" type="curve" smooth="yes"/>
		</contour>
		<contour>
			<point x="152" y="572" type="line"/>
			<point x="164" y="564" type="line"/>
			<point x="270" y="693" type="line" smooth="yes"/>
			<point x="278" y="703"/>
			<point x="286" y="715"/>
			<point x="286" y="722" type="curve" smooth="yes"/>
			<point x="286" y="731"/>
			<point x="280" y="737"/>
			<point x="271" y="737" type="curve" smooth="yes"/>
			<point x="260" y="737"/>
			<point x="252" y="727"/>
			<point x="242" y="711" type="curve" smooth="yes"/>
		</contour>
	</outline>
	<anchor name="_aboveLC" x="105" y="490"/>
	<anchor name="aboveLC" x="157" y="737"/>
</glyph>
<glyph name="caroncmb" format="2">
	<unicode hex="030C"/>
	<outline>
		<contour>
			<point x="42" y="751" type="line"/>
			<point x="30" y="744" type="line"/>
			<point x="108" y="557" type="line"/>
			<point x="130" y="557" type="line"/>
			<point x="274" y="744" type="line"/>
			<point x="263" y="753" type="line"/>
			<point x="114" y="578" type="line"/>
			<point x="133" y="578" type="line"/>
		</contour>
	</outline>
	<anchor name="_aboveLC" x="105" y="490"/>
	<anchor name="aboveLC" x="161" y="753"/>
</glyph>
<glyph name="horncmb" format="2">
	<unicode hex="031B"/>
	<outline>
		<contour>
			<point x="101" y="470" type="line"/>
			<point x="205" y="485"/>
			<point x="244" y="552"/>
			<point x="244" y="615" type="curve" smooth="yes"/>
			<point x="244" y="636"/>
			<point x="239" y="650"/>
			<point x="235" y="658" type="curve"/>
			<point x="232" y="660"/>
			<point x="229" y="661"/>
			<point x="224" y="661" type="curve" smooth="yes"/>
			<point x="214" y="661"/>
			<point x="204" y="654"/>
			<point x="204" y="641" type="curve" smooth="yes"/>
			<point x="204" y="628"/>
			<point x="213" y="618"/>
			<point x="213" y="591" type="curve" smooth="yes"/>
			<point x="213" y="552"/>
			<point x="187" y="499"/>
			<point x="99" y="486" type="curve"/>
		</contour>
	</outline>
	<anchor name="_hornLC" x="101" y="470"/>
</glyph>
<glyph name="commabelowcmb" format="2">
	<unicode hex="0326"/>
	<outline>
		<contour>
			<point x="-41" y="-105" type="curve" smooth="yes"/>
			<point x="-41" y="-96"/>
			<point x="-42" y="-89"/>
			<point x="-45" y="-83" type="curve"/>
			<point x="-51" y="-78"/>
			<point x="-57" y="-75"/>
			<point x="-70" y="-75" type="curve" smooth="yes"/>
			<point x="-89" y="-75"/>
			<point x="-99" y="-91"/>
			<point x="-99" y="-106" type="curve" smooth="yes"/>
			<point x="-99" y="-122"/>
			<point x="-91" y="-134"/>
			<point x="-63" y="-145" type="curve"/>
			<point x="-65" y="-127" type="line"/>
			<point x="-80" y="-173"/>
			<point x="-102" y="-199"/>
			<point x="-143" y="-219" type="curve"/>
			<point x="-134" y="-236" type="line"/>
			<point x="-73" y="-210"/>
			<point x="-41" y="-146"/>
		</contour>
	</outline>
	<anchor name="_belowLC" x="-49" y="-20"/>
	<anchor name="belowLC" x="-95" y="-235"/>
</glyph>
<glyph name="cedillacmb" format="2">
	<unicode hex="0327"/>
	<outline>
		<contour>
			<point x="-95" y="-84" type="line"/>
			<point x="-36" y="-101"/>
			<point x="-12" y="-115"/>
			<point x="-12" y="-151" type="curve" smooth="yes"/>
			<point x="-12" y="-180"/>
			<point x="-42" y="-200"/>
			<point x="-82" y="-200" type="curve" smooth="yes"/>
			<point x="-107" y="-200"/>
			<point x="-130" y="-195"/>
			<point x="-149" y="-187" type="curve"/>
			<point x="-155" y="-201" type="line"/>
			<point x="-136" y="-212"/>
			<point x="-112" y="-218"/>
			<point x="-82" y="-218" type="curve" smooth="yes"/>
			<point x="-25" y="-218"/>
			<point x="14" y="-192"/>
			<point x="14" y="-150" type="curve" smooth="yes"/>
			<point x="14" y="-110"/>
			<point x="-20" y="-89"/>
			<point x="-79" y="-70" type="curve"/>
			<point x="-76" y="-81" type="line"/>
			<point x="-36" y="0" type="line"/>
			<point x="-52" y="0" type="line"/>
		</contour>
	</outline>
	<anchor name="_baseLC" x="-45" y="0"/>
</glyph>
<glyph name="ogonekcmb" format="2">
	<unicode hex="0328"/>
	<outline>
		<contour>
			<point x="-114" y="-175" type="curve" smooth="yes"/>
			<point x="-114" y="-213"/>
			<point x="-93" y="-245"/>
			<point x="-41" y="-245" type="curve" smooth="yes"/>
			<point x="-6" y="-245"/>
			<point x="28" y="-227"/>
			<point x="58" y="-201" type="curve"/>
			<point x="49" y="-191" type="line"/>
			<point x="24" y="-209"/>
			<point x="-9" y="-221"/>
			<point x="-34" y="-221" type="curve" smooth="yes"/>
			<point x="-70" y="-221"/>
			<point x="-87" y="-199"/>
			<point x="-87" y="-165" type="curve" smooth="yes"/>
			<point x="-87" y="-121"/>
			<point x="-49" y="-62"/>
			<point x="17" y="5" type="curve"/>
			<point x="-2" y="5" type="line"/>
			<point x="-2" y="4" type="line"/>
			<point x="-65" y="-54"/>
			<point x="-114" y="-120"/>
		</contour>
	</outline>
	<anchor name="_ogonek" x="1" y="0"/>
</glyph>
<glyph name="Delta" format="2">
	<unicode hex="0394"/>
	<unicode hex="2206"/>
	<advance width="686"/>
	<outline>
		<contour>
			<point x="37" y="0" type="line"/>
			<point x="576" y="0" type="line"/>
			<point x="580" y="22" type="line"/>
			<point x="460" y="684" type="line"/>
			<point x="440" y="684" type="line"/>
			<point x="41" y="22" type="line"/>
		</contour>
		<contour>
			<point x="65" y="16" type="line"/>
			<point x="444" y="651" type="line"/>
			<point x="450" y="661" type="line"/>
			<point x="433" y="661" type="line"/>
			<point x="547" y="19" type="line"/>
			<point x="555" y="26" type="line"/>
			<point x="57" y="26" type="line"/>
		</contour>
	</outline>
</glyph>
<glyph name="Theta" format="2">
	<unicode hex="0398"/>
	<advance width="653"/>
	<outline>
		<contour>
			<point x="183" y="240" type="line"/>
			<point x="202" y="240" type="line"/>
			<point x="229" y="327" type="line"/>
			<point x="233" y="347" type="line"/>
			<point x="240" y="435" type="line"/>
			<point x="221" y="435" type="line"/>
		</contour>
		<contour>
			<point x="472" y="240" type="line"/>
			<point x="491" y="240" type="line"/>
			<point x="529" y="435" type="line"/>
			<point x="510" y="435" type="line"/>
			<point x="483" y="347" type="line"/>
			<point x="479" y="327" type="line"/>
		</contour>
		<contour>
			<point x="304" y="-13" type="curve" smooth="yes"/>
			<point x="495" y="-13"/>
			<point x="645" y="169"/>
			<point x="645" y="418" type="curve" smooth="yes"/>
			<point x="645" y="573"/>
			<point x="570" y="689"/>
			<point x="406" y="689" type="curve" smooth="yes"/>
			<point x="220" y="689"/>
			<point x="65" y="502"/>
			<point x="65" y="259" type="curve" smooth="yes"/>
			<point x="65" y="104"/>
			<point x="147" y="-13"/>
		</contour>
		<contour>
			<point x="308" y="9" type="curve" smooth="yes"/>
			<point x="163" y="9"/>
			<point x="97" y="121"/>
			<point x="97" y="271" type="curve" smooth="yes"/>
			<point x="97" y="477"/>
			<point x="229" y="667"/>
			<point x="402" y="667" type="curve" smooth="yes"/>
			<point x="549" y="667"/>
			<point x="612" y="562"/>
			<point x="612" y="405" type="curve" smooth="yes"/>
			<point x="612" y="183"/>
			<point x="477" y="9"/>
		</contour>
		<contour>
			<point x="219" y="325" type="line"/>
			<point x="489" y="325" type="line"/>
			<point x="493" y="351" type="line"/>
			<point x="223" y="351" type="line"/>
		</contour>
	</outline>
</glyph>
<glyph name="Sigma" format="2">
	<unicode hex="03A3"/>
	<advance width="525"/>
	<outline>
		<contour>
			<point x="-23" y="0" type="line"/>
			<point x="462" y="0" type="line"/>
			<point x="505" y="169" type="line"/>
			<point x="483" y="169" type="line"/>
			<point x="428" y="6" type="line"/>
			<point x="447" y="28" type="line"/>
			<point x="5" y="28" type="line"/>
			<point x="6" y="19" type="line"/>
			<point x="320" y="343" type="line"/>
			<point x="150" y="670" type="line"/>
			<point x="150" y="676" type="line"/>
			<point x="131" y="676" type="line"/>
			<point x="127" y="656" type="line"/>
			<point x="298" y="330" type="line"/>
			<point x="298" y="350" type="line"/>
			<point x="-18" y="22" type="line"/>
		</contour>
		<contour>
			<point x="529" y="513" type="line"/>
			<point x="551" y="513" type="line"/>
			<point x="571" y="676" type="line"/>
			<point x="134" y="676" type="line"/>
			<point x="134" y="654" type="line"/>
			<point x="546" y="654" type="line"/>
			<point x="538" y="676" type="line"/>
		</contour>
	</outline>
</glyph>
<glyph name="Phi" format="2">
	<unicode hex="03A6"/>
	<advance width="651"/>
	<outline>
		<contour>
			<point x="319" y="125" type="curve"/>
			<point x="323" y="147" type="line"/>
			<point x="170" y="147"/>
			<point x="90" y="211"/>
			<point x="91" y="323" type="curve" smooth="yes"/>
			<point x="92" y="470"/>
			<point x="200" y="561"/>
			<point x="393" y="561" type="curve"/>
			<point x="396" y="583" type="line"/>
			<point x="155" y="583"/>
			<point x="63" y="458"/>
			<point x="62" y="319" type="curve" smooth="yes"/>
			<point x="61" y="207"/>
			<point x="141" y="125"/>
		</contour>
		<contour>
			<point x="162" y="0" type="line"/>
			<point x="410" y="0" type="line"/>
			<point x="414" y="20" type="line"/>
			<point x="298" y="27" type="line"/>
			<point x="284" y="27" type="line"/>
			<point x="166" y="20" type="line"/>
		</contour>
		<contour>
			<point x="275" y="0" type="line"/>
			<point x="309" y="0" type="line"/>
			<point x="326" y="104"/>
			<point x="346" y="209"/>
			<point x="366" y="313" type="curve" smooth="yes"/>
			<point x="439" y="685" type="line"/>
			<point x="406" y="685" type="line"/>
			<point x="388" y="581"/>
			<point x="368" y="468"/>
			<point x="347" y="364" type="curve" smooth="yes"/>
		</contour>
		<contour>
			<point x="298" y="665" type="line"/>
			<point x="413" y="658" type="line"/>
			<point x="427" y="658" type="line"/>
			<point x="546" y="665" type="line"/>
			<point x="550" y="685" type="line"/>
			<point x="302" y="685" type="line"/>
		</contour>
		<contour>
			<point x="319" y="125" type="line"/>
			<point x="562" y="125"/>
			<point x="652" y="250"/>
			<point x="653" y="389" type="curve" smooth="yes"/>
			<point x="654" y="501"/>
			<point x="572" y="583"/>
			<point x="396" y="583" type="curve"/>
			<point x="392" y="561" type="line"/>
			<point x="545" y="561"/>
			<point x="625" y="497"/>
			<point x="624" y="385" type="curve" smooth="yes"/>
			<point x="623" y="238"/>
			<point x="515" y="147"/>
			<point x="322" y="147" type="curve"/>
		</contour>
	</outline>
</glyph>
<glyph name="Psi" format="2">
	<unicode hex="03A8"/>
	<advance width="740"/>
	<outline>
		<contour>
			<point x="217" y="310"/>
			<point x="271" y="259"/>
			<point x="398" y="257" type="curve"/>
			<point x="399" y="279" type="line"/>
			<point x="293" y="282"/>
			<point x="243" y="322"/>
			<point x="233" y="452" type="curve" smooth="yes"/>
			<point x="223" y="584" type="line" smooth="yes"/>
			<point x="218" y="644"/>
			<point x="227" y="676"/>
			<point x="154" y="676" type="curve" smooth="yes"/>
			<point x="126" y="676" type="line"/>
			<point x="122" y="656" type="line"/>
			<point x="150" y="654" type="line" smooth="yes"/>
			<point x="201" y="650"/>
			<point x="192" y="629"/>
			<point x="196" y="581" type="curve" smooth="yes"/>
			<point x="206" y="451" type="line" smooth="yes"/>
		</contour>
		<contour>
			<point x="409" y="257" type="line"/>
			<point x="538" y="258"/>
			<point x="637" y="301"/>
			<point x="686" y="471" type="curve" smooth="yes"/>
			<point x="718" y="581" type="line" smooth="yes"/>
			<point x="732" y="628"/>
			<point x="733" y="650"/>
			<point x="784" y="654" type="curve" smooth="yes"/>
			<point x="810" y="656" type="line"/>
			<point x="814" y="676" type="line"/>
			<point x="790" y="676" type="line" smooth="yes"/>
			<point x="722" y="676"/>
			<point x="710" y="647"/>
			<point x="689" y="578" type="curve" smooth="yes"/>
			<point x="657" y="472" type="line" smooth="yes"/>
			<point x="607" y="307"/>
			<point x="518" y="279"/>
			<point x="409" y="279" type="curve"/>
		</contour>
		<contour>
			<point x="234" y="0" type="line"/>
			<point x="482" y="0" type="line"/>
			<point x="486" y="20" type="line"/>
			<point x="369" y="27" type="line"/>
			<point x="355" y="27" type="line"/>
			<point x="238" y="20" type="line"/>
		</contour>
		<contour>
			<point x="338" y="0" type="line"/>
			<point x="372" y="0" type="line"/>
			<point x="388" y="104"/>
			<point x="407" y="209"/>
			<point x="426" y="313" type="curve" smooth="yes"/>
			<point x="494" y="676" type="line"/>
			<point x="461" y="676" type="line"/>
			<point x="444" y="572"/>
			<point x="427" y="468"/>
			<point x="407" y="364" type="curve" smooth="yes"/>
		</contour>
		<contour>
			<point x="360" y="656" type="line"/>
			<point x="465" y="649" type="line"/>
			<point x="479" y="649" type="line"/>
			<point x="587" y="656" type="line"/>
			<point x="591" y="676" type="line"/>
			<point x="364" y="676" type="line"/>
		</contour>
	</outline>
</glyph>
<glyph name="Omega" format="2">
	<unicode hex="03A9"/>
	<unicode hex="2126"/>
	<advance width="704"/>
	<outline>
		<contour>
			<point x="69" y="0" type="line"/>
			<point x="267" y="0" type="line"/>
			<point x="287" y="108" type="line"/>
			<point x="187" y="172"/>
			<point x="158" y="233"/>
			<point x="158" y="349" type="curve" smooth="yes"/>
			<point x="158" y="542"/>
			<point x="278" y="668"/>
			<point x="419" y="668" type="curve" smooth="yes"/>
			<point x="559" y="668"/>
			<point x="627" y="582"/>
			<point x="627" y="446" type="curve" smooth="yes"/>
			<point x="627" y="291"/>
			<point x="557" y="183"/>
			<point x="414" y="108" type="curve"/>
			<point x="402" y="0" type="line"/>
			<point x="607" y="0" type="line"/>
			<point x="647" y="153" type="line"/>
			<point x="624" y="153" type="line"/>
			<point x="581" y="16" type="line"/>
			<point x="602" y="28" type="line"/>
			<point x="418" y="28" type="line"/>
			<point x="427" y="16" type="line"/>
			<point x="434" y="95" type="line"/>
			<point x="567" y="162"/>
			<point x="659" y="295"/>
			<point x="659" y="450" type="curve" smooth="yes"/>
			<point x="659" y="615"/>
			<point x="550" y="690"/>
			<point x="422" y="690" type="curve" smooth="yes"/>
			<point x="271" y="690"/>
			<point x="126" y="564"/>
			<point x="126" y="343" type="curve" smooth="yes"/>
			<point x="126" y="235"/>
			<point x="170" y="163"/>
			<point x="263" y="98" type="curve"/>
			<point x="247" y="14" type="line"/>
			<point x="255" y="28" type="line"/>
			<point x="85" y="28" type="line"/>
			<point x="100" y="7" type="line"/>
			<point x="91" y="153" type="line"/>
			<point x="68" y="153" type="line"/>
		</contour>
	</outline>
</glyph>
<glyph name="gamma" format="2">
	<unicode hex="03B3"/>
	<advance width="447"/>
	<outline>
		<contour>
			<point x="181" y="-4" type="curve"/>
			<point x="193" y="-6" type="line"/>
			<point x="302" y="116"/>
			<point x="370" y="221"/>
			<point x="414" y="311" type="curve" smooth="yes"/>
			<point x="450" y="383"/>
			<point x="454" y="427"/>
			<point x="454" y="452" type="curve" smooth="yes"/>
			<point x="454" y="468"/>
			<point x="453" y="475"/>
			<point x="449" y="483" type="curve"/>
			<point x="446" y="486"/>
			<point x="441" y="488"/>
			<point x="434" y="488" type="curve" smooth="yes"/>
			<point x="423" y="488"/>
			<point x="410" y="475"/>
			<point x="410" y="452" type="curve" smooth="yes"/>
			<point x="410" y="437"/>
			<point x="411" y="409"/>
			<point x="412" y="393" type="curve" smooth="yes"/>
			<point x="414" y="337" type="line"/>
			<point x="426" y="415" type="line"/>
			<point x="415" y="367"/>
			<point x="407" y="344"/>
			<point x="395" y="319" type="curve" smooth="yes"/>
			<point x="353" y="225"/>
			<point x="289" y="134"/>
			<point x="194" y="23" type="curve"/>
			<point x="203" y="22" type="line"/>
			<point x="204" y="131"/>
			<point x="200" y="267"/>
			<point x="193" y="340" type="curve" smooth="yes"/>
			<point x="183" y="445"/>
			<point x="177" y="483"/>
			<point x="125" y="483" type="curve" smooth="yes"/>
			<point x="99" y="483"/>
			<point x="76" y="473"/>
			<point x="47" y="450" type="curve"/>
			<point x="54" y="437" type="line"/>
			<point x="76" y="451"/>
			<point x="98" y="457"/>
			<point x="117" y="457" type="curve" smooth="yes"/>
			<point x="143" y="457"/>
			<point x="156" y="444"/>
			<point x="165" y="337" type="curve" smooth="yes"/>
			<point x="171" y="271"/>
			<point x="179" y="177"/>
		</contour>
		<contour>
			<point x="139" y="-190" type="line"/>
			<point x="162" y="-182" type="line"/>
			<point x="203" y="16" type="line"/>
			<point x="186" y="16" type="line"/>
			<point x="131" y="-184" type="line"/>
		</contour>
	</outline>
</glyph>
<glyph name="eta" format="2">
	<unicode hex="03B7"/>
	<advance width="519"/>
	<outline>
		<contour>
			<point x="104" y="0" type="curve"/>
			<point x="110" y="-5" type="line"/>
			<point x="131" y="0" type="line"/>
			<point x="200" y="332" type="line" smooth="yes"/>
			<point x="221" y="434"/>
			<point x="211" y="483"/>
			<point x="155" y="483" type="curve" smooth="yes"/>
			<point x="130" y="483"/>
			<point x="109" y="472"/>
			<point x="82" y="450" type="curve"/>
			<point x="89" y="437" type="line"/>
			<point x="109" y="450"/>
			<point x="130" y="457"/>
			<point x="149" y="457" type="curve" smooth="yes"/>
			<point x="182" y="457"/>
			<point x="200" y="436"/>
			<point x="177" y="331" type="curve" smooth="yes"/>
			<point x="153" y="221"/>
			<point x="128" y="110"/>
		</contour>
		<contour>
			<point x="341" y="-185" type="line"/>
			<point x="347" y="-190" type="line"/>
			<point x="368" y="-185" type="line"/>
			<point x="442" y="146" type="line" smooth="yes"/>
			<point x="474" y="291"/>
			<point x="483" y="344"/>
			<point x="483" y="398" type="curve" smooth="yes"/>
			<point x="483" y="463"/>
			<point x="450" y="483"/>
			<point x="409" y="483" type="curve" smooth="yes"/>
			<point x="349" y="483"/>
			<point x="264" y="428"/>
			<point x="185" y="337" type="curve"/>
			<point x="181" y="337" type="line"/>
			<point x="189" y="323" type="line"/>
			<point x="285" y="424"/>
			<point x="357" y="458"/>
			<point x="400" y="458" type="curve" smooth="yes"/>
			<point x="437" y="458"/>
			<point x="457" y="441"/>
			<point x="457" y="400" type="curve" smooth="yes"/>
			<point x="457" y="346"/>
			<point x="450" y="290"/>
			<point x="418" y="149" type="curve" smooth="yes"/>
		</contour>
	</outline>
	<anchor name="aboveLC" x="319" y="490"/>
	<anchor name="belowLC" x="119" y="-20"/>
</glyph>
<glyph name="theta" format="2">
	<unicode hex="03B8"/>
	<advance width="460"/>
	<outline>
		<contour>
			<point x="214" y="-13" type="curve" smooth="yes"/>
			<point x="372" y="-13"/>
			<point x="479" y="237"/>
			<point x="479" y="538" type="curve" smooth="yes"/>
			<point x="479" y="682"/>
			<point x="429" y="748"/>
			<point x="352" y="748" type="curve" smooth="yes"/>
			<point x="199" y="748"/>
			<point x="76" y="488"/>
			<point x="76" y="191" type="curve" smooth="yes"/>
			<point x="76" y="45"/>
			<point x="131" y="-13"/>
		</contour>
		<contour>
			<point x="216" y="7" type="curve" smooth="yes"/>
			<point x="148" y="7"/>
			<point x="103" y="57"/>
			<point x="103" y="198" type="curve" smooth="yes"/>
			<point x="103" y="473"/>
			<point x="220" y="728"/>
			<point x="350" y="728" type="curve" smooth="yes"/>
			<point x="417" y="728"/>
			<point x="453" y="666"/>
			<point x="453" y="531" type="curve" smooth="yes"/>
			<point x="453" y="259"/>
			<point x="357" y="7"/>
		</contour>
		<contour>
			<point x="110" y="363" type="line"/>
			<point x="448" y="363" type="line"/>
			<point x="448" y="388" type="line"/>
			<point x="110" y="388" type="line"/>
		</contour>
	</outline>
</glyph>
<glyph name="iota" format="2">
	<unicode hex="03B9"/>
	<advance width="297"/>
	<outline>
		<contour>
			<point x="158" y="-13" type="curve" smooth="yes"/>
			<point x="185" y="-13"/>
			<point x="218" y="9"/>
			<point x="260" y="59" type="curve"/>
			<point x="251" y="69" type="line"/>
			<point x="211" y="26"/>
			<point x="182" y="13"/>
			<point x="159" y="13" type="curve" smooth="yes"/>
			<point x="140" y="13"/>
			<point x="127" y="23"/>
			<point x="127" y="56" type="curve" smooth="yes"/>
			<point x="127" y="73"/>
			<point x="132" y="99"/>
			<point x="188" y="359" type="curve" smooth="yes"/>
			<point x="212" y="470" type="line"/>
			<point x="206" y="475" type="line"/>
			<point x="185" y="470" type="line"/>
			<point x="139" y="240" type="line" smooth="yes"/>
			<point x="117" y="128"/>
			<point x="104" y="72"/>
			<point x="104" y="45" type="curve" smooth="yes"/>
			<point x="104" y="3"/>
			<point x="128" y="-13"/>
		</contour>
	</outline>
	<anchor name="aboveLC" x="201" y="490"/>
</glyph>
<glyph name="kappa" format="2">
	<unicode hex="03BA"/>
	<advance width="506"/>
	<outline>
		<contour>
			<point x="104" y="0" type="curve"/>
			<point x="110" y="-5" type="line"/>
			<point x="131" y="0" type="line"/>
			<point x="200" y="332" type="line" smooth="yes"/>
			<point x="221" y="434"/>
			<point x="211" y="483"/>
			<point x="155" y="483" type="curve" smooth="yes"/>
			<point x="130" y="483"/>
			<point x="109" y="472"/>
			<point x="82" y="450" type="curve"/>
			<point x="89" y="437" type="line"/>
			<point x="109" y="450"/>
			<point x="129" y="457"/>
			<point x="148" y="457" type="curve" smooth="yes"/>
			<point x="175" y="457"/>
			<point x="200" y="443"/>
			<point x="176" y="331" type="curve" smooth="yes"/>
			<point x="152" y="221"/>
			<point x="128" y="110"/>
		</contour>
		<contour>
			<point x="341" y="7"/>
			<point x="357" y="-13"/>
			<point x="392" y="-13" type="curve" smooth="yes"/>
			<point x="432" y="-13"/>
			<point x="458" y="11"/>
			<point x="497" y="59" type="curve"/>
			<point x="488" y="69" type="line"/>
			<point x="463" y="41"/>
			<point x="432" y="13"/>
			<point x="395" y="13" type="curve" smooth="yes"/>
			<point x="370" y="13"/>
			<point x="362" y="28"/>
			<point x="345" y="66" type="curve" smooth="yes"/>
			<point x="309" y="147" type="line" smooth="yes"/>
			<point x="286" y="199"/>
			<point x="264" y="242"/>
			<point x="193" y="245" type="curve"/>
			<point x="189" y="245" type="line"/>
			<point x="190" y="238" type="line"/>
			<point x="442" y="413" type="line" smooth="yes"/>
			<point x="484" y="442"/>
			<point x="490" y="450"/>
			<point x="490" y="460" type="curve" smooth="yes"/>
			<point x="490" y="470"/>
			<point x="482" y="474"/>
			<point x="474" y="475" type="curve"/>
			<point x="174" y="240" type="line"/>
			<point x="175" y="231" type="line"/>
			<point x="186" y="231" type="line" smooth="yes"/>
			<point x="238" y="231"/>
			<point x="263" y="201"/>
			<point x="286" y="143" type="curve" smooth="yes"/>
			<point x="322" y="54" type="line" smooth="yes"/>
		</contour>
	</outline>
</glyph>
<glyph name="lambda" format="2">
	<unicode hex="03BB"/>
	<advance width="501"/>
	<outline>
		<contour>
			<point x="12" y="0" type="line"/>
			<point x="37" y="-5" type="line"/>
			<point x="133" y="154"/>
			<point x="232" y="309"/>
			<point x="334" y="462" type="curve"/>
			<point x="337" y="462" type="line"/>
			<point x="328" y="490" type="line"/>
			<point x="218" y="328"/>
			<point x="111" y="167"/>
			<point x="9" y="5" type="curve"/>
		</contour>
		<contour>
			<point x="354" y="9"/>
			<point x="370" y="-13"/>
			<point x="411" y="-13" type="curve" smooth="yes"/>
			<point x="448" y="-13"/>
			<point x="477" y="15"/>
			<point x="502" y="39" type="curve"/>
			<point x="494" y="50" type="line"/>
			<point x="465" y="27"/>
			<point x="443" y="13"/>
			<point x="416" y="13" type="curve" smooth="yes"/>
			<point x="384" y="13"/>
			<point x="375" y="35"/>
			<point x="368" y="125" type="curve" smooth="yes"/>
			<point x="329" y="606" type="line" smooth="yes"/>
			<point x="320" y="713"/>
			<point x="278" y="739"/>
			<point x="225" y="739" type="curve" smooth="yes"/>
			<point x="191" y="739"/>
			<point x="150" y="723"/>
			<point x="121" y="694" type="curve"/>
			<point x="131" y="682" type="line"/>
			<point x="157" y="698"/>
			<point x="182" y="713"/>
			<point x="222" y="713" type="curve" smooth="yes"/>
			<point x="275" y="713"/>
			<point x="304" y="688"/>
			<point x="312" y="583" type="curve" smooth="yes"/>
			<point x="346" y="122" type="line" smooth="yes"/>
		</contour>
	</outline>
</glyph>
